G04 #@! TF.GenerationSoftware,KiCad,Pcbnew,(6.0.8)*
G04 #@! TF.CreationDate,2022-11-06T23:41:33+01:00*
G04 #@! TF.ProjectId,17_CAN_Controller,31375f43-414e-45f4-936f-6e74726f6c6c,rev?*
G04 #@! TF.SameCoordinates,Original*
G04 #@! TF.FileFunction,Legend,Top*
G04 #@! TF.FilePolarity,Positive*
%FSLAX46Y46*%
G04 Gerber Fmt 4.6, Leading zero omitted, Abs format (unit mm)*
G04 Created by KiCad (PCBNEW (6.0.8)) date 2022-11-06 23:41:33*
%MOMM*%
%LPD*%
G01*
G04 APERTURE LIST*
G04 Aperture macros list*
%AMRoundRect*
0 Rectangle with rounded corners*
0 $1 Rounding radius*
0 $2 $3 $4 $5 $6 $7 $8 $9 X,Y pos of 4 corners*
0 Add a 4 corners polygon primitive as box body*
4,1,4,$2,$3,$4,$5,$6,$7,$8,$9,$2,$3,0*
0 Add four circle primitives for the rounded corners*
1,1,$1+$1,$2,$3*
1,1,$1+$1,$4,$5*
1,1,$1+$1,$6,$7*
1,1,$1+$1,$8,$9*
0 Add four rect primitives between the rounded corners*
20,1,$1+$1,$2,$3,$4,$5,0*
20,1,$1+$1,$4,$5,$6,$7,0*
20,1,$1+$1,$6,$7,$8,$9,0*
20,1,$1+$1,$8,$9,$2,$3,0*%
G04 Aperture macros list end*
%ADD10C,0.150000*%
%ADD11C,0.120000*%
%ADD12RoundRect,0.237500X0.287500X0.237500X-0.287500X0.237500X-0.287500X-0.237500X0.287500X-0.237500X0*%
%ADD13RoundRect,0.225000X0.225000X0.250000X-0.225000X0.250000X-0.225000X-0.250000X0.225000X-0.250000X0*%
%ADD14RoundRect,0.225000X-0.250000X0.225000X-0.250000X-0.225000X0.250000X-0.225000X0.250000X0.225000X0*%
%ADD15RoundRect,0.200000X-0.275000X0.200000X-0.275000X-0.200000X0.275000X-0.200000X0.275000X0.200000X0*%
%ADD16R,1.400000X1.200000*%
%ADD17RoundRect,0.150000X-0.875000X-0.150000X0.875000X-0.150000X0.875000X0.150000X-0.875000X0.150000X0*%
%ADD18R,1.700000X1.700000*%
%ADD19O,1.700000X1.700000*%
G04 APERTURE END LIST*
D10*
X106449523Y-63092380D02*
X105973333Y-63092380D01*
X105925714Y-63568571D01*
X105973333Y-63520952D01*
X106068571Y-63473333D01*
X106306666Y-63473333D01*
X106401904Y-63520952D01*
X106449523Y-63568571D01*
X106497142Y-63663809D01*
X106497142Y-63901904D01*
X106449523Y-63997142D01*
X106401904Y-64044761D01*
X106306666Y-64092380D01*
X106068571Y-64092380D01*
X105973333Y-64044761D01*
X105925714Y-63997142D01*
X106782857Y-63092380D02*
X107116190Y-64092380D01*
X107449523Y-63092380D01*
X106573333Y-69192380D02*
X106240000Y-68716190D01*
X106001904Y-69192380D02*
X106001904Y-68192380D01*
X106382857Y-68192380D01*
X106478095Y-68240000D01*
X106525714Y-68287619D01*
X106573333Y-68382857D01*
X106573333Y-68525714D01*
X106525714Y-68620952D01*
X106478095Y-68668571D01*
X106382857Y-68716190D01*
X106001904Y-68716190D01*
X106906666Y-68192380D02*
X107573333Y-69192380D01*
X107573333Y-68192380D02*
X106906666Y-69192380D01*
X106573333Y-74197142D02*
X106525714Y-74244761D01*
X106382857Y-74292380D01*
X106287619Y-74292380D01*
X106144761Y-74244761D01*
X106049523Y-74149523D01*
X106001904Y-74054285D01*
X105954285Y-73863809D01*
X105954285Y-73720952D01*
X106001904Y-73530476D01*
X106049523Y-73435238D01*
X106144761Y-73340000D01*
X106287619Y-73292380D01*
X106382857Y-73292380D01*
X106525714Y-73340000D01*
X106573333Y-73387619D01*
X106954285Y-74244761D02*
X107097142Y-74292380D01*
X107335238Y-74292380D01*
X107430476Y-74244761D01*
X107478095Y-74197142D01*
X107525714Y-74101904D01*
X107525714Y-74006666D01*
X107478095Y-73911428D01*
X107430476Y-73863809D01*
X107335238Y-73816190D01*
X107144761Y-73768571D01*
X107049523Y-73720952D01*
X107001904Y-73673333D01*
X106954285Y-73578095D01*
X106954285Y-73482857D01*
X107001904Y-73387619D01*
X107049523Y-73340000D01*
X107144761Y-73292380D01*
X107382857Y-73292380D01*
X107525714Y-73340000D01*
X106116190Y-76644761D02*
X106259047Y-76692380D01*
X106497142Y-76692380D01*
X106592380Y-76644761D01*
X106640000Y-76597142D01*
X106687619Y-76501904D01*
X106687619Y-76406666D01*
X106640000Y-76311428D01*
X106592380Y-76263809D01*
X106497142Y-76216190D01*
X106306666Y-76168571D01*
X106211428Y-76120952D01*
X106163809Y-76073333D01*
X106116190Y-75978095D01*
X106116190Y-75882857D01*
X106163809Y-75787619D01*
X106211428Y-75740000D01*
X106306666Y-75692380D01*
X106544761Y-75692380D01*
X106687619Y-75740000D01*
X107116190Y-76692380D02*
X107116190Y-75692380D01*
X105930476Y-79244761D02*
X106073333Y-79292380D01*
X106311428Y-79292380D01*
X106406666Y-79244761D01*
X106454285Y-79197142D01*
X106501904Y-79101904D01*
X106501904Y-79006666D01*
X106454285Y-78911428D01*
X106406666Y-78863809D01*
X106311428Y-78816190D01*
X106120952Y-78768571D01*
X106025714Y-78720952D01*
X105978095Y-78673333D01*
X105930476Y-78578095D01*
X105930476Y-78482857D01*
X105978095Y-78387619D01*
X106025714Y-78340000D01*
X106120952Y-78292380D01*
X106359047Y-78292380D01*
X106501904Y-78340000D01*
X107120952Y-78292380D02*
X107311428Y-78292380D01*
X107406666Y-78340000D01*
X107501904Y-78435238D01*
X107549523Y-78625714D01*
X107549523Y-78959047D01*
X107501904Y-79149523D01*
X107406666Y-79244761D01*
X107311428Y-79292380D01*
X107120952Y-79292380D01*
X107025714Y-79244761D01*
X106930476Y-79149523D01*
X106882857Y-78959047D01*
X106882857Y-78625714D01*
X106930476Y-78435238D01*
X107025714Y-78340000D01*
X107120952Y-78292380D01*
X105954285Y-81744761D02*
X106097142Y-81792380D01*
X106335238Y-81792380D01*
X106430476Y-81744761D01*
X106478095Y-81697142D01*
X106525714Y-81601904D01*
X106525714Y-81506666D01*
X106478095Y-81411428D01*
X106430476Y-81363809D01*
X106335238Y-81316190D01*
X106144761Y-81268571D01*
X106049523Y-81220952D01*
X106001904Y-81173333D01*
X105954285Y-81078095D01*
X105954285Y-80982857D01*
X106001904Y-80887619D01*
X106049523Y-80840000D01*
X106144761Y-80792380D01*
X106382857Y-80792380D01*
X106525714Y-80840000D01*
X107525714Y-81697142D02*
X107478095Y-81744761D01*
X107335238Y-81792380D01*
X107240000Y-81792380D01*
X107097142Y-81744761D01*
X107001904Y-81649523D01*
X106954285Y-81554285D01*
X106906666Y-81363809D01*
X106906666Y-81220952D01*
X106954285Y-81030476D01*
X107001904Y-80935238D01*
X107097142Y-80840000D01*
X107240000Y-80792380D01*
X107335238Y-80792380D01*
X107478095Y-80840000D01*
X107525714Y-80887619D01*
X107954285Y-81792380D02*
X107954285Y-80792380D01*
X108525714Y-81792380D02*
X108097142Y-81220952D01*
X108525714Y-80792380D02*
X107954285Y-81363809D01*
X106248285Y-70790000D02*
X106162571Y-70747142D01*
X106034000Y-70747142D01*
X105905428Y-70790000D01*
X105819714Y-70875714D01*
X105776857Y-70961428D01*
X105734000Y-71132857D01*
X105734000Y-71261428D01*
X105776857Y-71432857D01*
X105819714Y-71518571D01*
X105905428Y-71604285D01*
X106034000Y-71647142D01*
X106119714Y-71647142D01*
X106248285Y-71604285D01*
X106291142Y-71561428D01*
X106291142Y-71261428D01*
X106119714Y-71261428D01*
X106676857Y-71647142D02*
X106676857Y-70747142D01*
X107191142Y-71647142D01*
X107191142Y-70747142D01*
X107619714Y-71647142D02*
X107619714Y-70747142D01*
X107834000Y-70747142D01*
X107962571Y-70790000D01*
X108048285Y-70875714D01*
X108091142Y-70961428D01*
X108134000Y-71132857D01*
X108134000Y-71261428D01*
X108091142Y-71432857D01*
X108048285Y-71518571D01*
X107962571Y-71604285D01*
X107834000Y-71647142D01*
X107619714Y-71647142D01*
X105778095Y-65592380D02*
X106349523Y-65592380D01*
X106063809Y-66592380D02*
X106063809Y-65592380D01*
X106587619Y-65592380D02*
X107254285Y-66592380D01*
X107254285Y-65592380D02*
X106587619Y-66592380D01*
D11*
X112711267Y-63530000D02*
X112368733Y-63530000D01*
X112711267Y-64550000D02*
X112368733Y-64550000D01*
X118180580Y-63530000D02*
X117899420Y-63530000D01*
X118180580Y-64550000D02*
X117899420Y-64550000D01*
X110230000Y-78774420D02*
X110230000Y-79055580D01*
X111250000Y-78774420D02*
X111250000Y-79055580D01*
X116230000Y-78799420D02*
X116230000Y-79080580D01*
X117250000Y-78799420D02*
X117250000Y-79080580D01*
X109462500Y-78677742D02*
X109462500Y-79152258D01*
X108417500Y-78677742D02*
X108417500Y-79152258D01*
X115740000Y-80590000D02*
X115740000Y-77290000D01*
X115740000Y-77290000D02*
X111740000Y-77290000D01*
X114140000Y-77005000D02*
X110280000Y-77005000D01*
X118000000Y-77005000D02*
X118000000Y-76760000D01*
X114140000Y-65235000D02*
X110280000Y-65235000D01*
X114140000Y-65235000D02*
X118000000Y-65235000D01*
X118000000Y-65235000D02*
X118000000Y-65480000D01*
X110280000Y-77005000D02*
X110280000Y-76760000D01*
X110280000Y-65235000D02*
X110280000Y-65480000D01*
X110280000Y-65480000D02*
X108465000Y-65480000D01*
X114140000Y-77005000D02*
X118000000Y-77005000D01*
%LPC*%
D12*
X113415000Y-64040000D03*
X111665000Y-64040000D03*
D13*
X118815000Y-64040000D03*
X117265000Y-64040000D03*
D14*
X110740000Y-78140000D03*
X110740000Y-79690000D03*
X116740000Y-78165000D03*
X116740000Y-79715000D03*
D15*
X108940000Y-78090000D03*
X108940000Y-79740000D03*
D16*
X114840000Y-78090000D03*
X112640000Y-78090000D03*
X112640000Y-79790000D03*
X114840000Y-79790000D03*
D17*
X109490000Y-66040000D03*
X109490000Y-67310000D03*
X109490000Y-68580000D03*
X109490000Y-69850000D03*
X109490000Y-71120000D03*
X109490000Y-72390000D03*
X109490000Y-73660000D03*
X109490000Y-74930000D03*
X109490000Y-76200000D03*
X118790000Y-76200000D03*
X118790000Y-74930000D03*
X118790000Y-73660000D03*
X118790000Y-72390000D03*
X118790000Y-71120000D03*
X118790000Y-69850000D03*
X118790000Y-68580000D03*
X118790000Y-67310000D03*
X118790000Y-66040000D03*
D18*
X104140000Y-63500000D03*
D19*
X104140000Y-66040000D03*
X104140000Y-68580000D03*
X104140000Y-71120000D03*
X104140000Y-73660000D03*
X104140000Y-76200000D03*
X104140000Y-78740000D03*
X104140000Y-81280000D03*
D18*
X119380000Y-81280000D03*
M02*
