G04 #@! TF.GenerationSoftware,KiCad,Pcbnew,(6.0.8)*
G04 #@! TF.CreationDate,2023-04-23T16:45:02+02:00*
G04 #@! TF.ProjectId,17_CAN_Controller,31375f43-414e-45f4-936f-6e74726f6c6c,rev?*
G04 #@! TF.SameCoordinates,Original*
G04 #@! TF.FileFunction,Copper,L1,Top*
G04 #@! TF.FilePolarity,Positive*
%FSLAX46Y46*%
G04 Gerber Fmt 4.6, Leading zero omitted, Abs format (unit mm)*
G04 Created by KiCad (PCBNEW (6.0.8)) date 2023-04-23 16:45:02*
%MOMM*%
%LPD*%
G01*
G04 APERTURE LIST*
G04 Aperture macros list*
%AMRoundRect*
0 Rectangle with rounded corners*
0 $1 Rounding radius*
0 $2 $3 $4 $5 $6 $7 $8 $9 X,Y pos of 4 corners*
0 Add a 4 corners polygon primitive as box body*
4,1,4,$2,$3,$4,$5,$6,$7,$8,$9,$2,$3,0*
0 Add four circle primitives for the rounded corners*
1,1,$1+$1,$2,$3*
1,1,$1+$1,$4,$5*
1,1,$1+$1,$6,$7*
1,1,$1+$1,$8,$9*
0 Add four rect primitives between the rounded corners*
20,1,$1+$1,$2,$3,$4,$5,0*
20,1,$1+$1,$4,$5,$6,$7,0*
20,1,$1+$1,$6,$7,$8,$9,0*
20,1,$1+$1,$8,$9,$2,$3,0*%
G04 Aperture macros list end*
G04 #@! TA.AperFunction,SMDPad,CuDef*
%ADD10RoundRect,0.200000X0.200000X0.275000X-0.200000X0.275000X-0.200000X-0.275000X0.200000X-0.275000X0*%
G04 #@! TD*
G04 #@! TA.AperFunction,SMDPad,CuDef*
%ADD11RoundRect,0.225000X0.225000X0.250000X-0.225000X0.250000X-0.225000X-0.250000X0.225000X-0.250000X0*%
G04 #@! TD*
G04 #@! TA.AperFunction,SMDPad,CuDef*
%ADD12RoundRect,0.225000X-0.250000X0.225000X-0.250000X-0.225000X0.250000X-0.225000X0.250000X0.225000X0*%
G04 #@! TD*
G04 #@! TA.AperFunction,SMDPad,CuDef*
%ADD13RoundRect,0.200000X-0.275000X0.200000X-0.275000X-0.200000X0.275000X-0.200000X0.275000X0.200000X0*%
G04 #@! TD*
G04 #@! TA.AperFunction,SMDPad,CuDef*
%ADD14R,1.400000X1.200000*%
G04 #@! TD*
G04 #@! TA.AperFunction,SMDPad,CuDef*
%ADD15RoundRect,0.150000X-0.875000X-0.150000X0.875000X-0.150000X0.875000X0.150000X-0.875000X0.150000X0*%
G04 #@! TD*
G04 #@! TA.AperFunction,ComponentPad*
%ADD16R,1.700000X1.700000*%
G04 #@! TD*
G04 #@! TA.AperFunction,ComponentPad*
%ADD17O,1.700000X1.700000*%
G04 #@! TD*
G04 #@! TA.AperFunction,ViaPad*
%ADD18C,1.000000*%
G04 #@! TD*
G04 #@! TA.AperFunction,Conductor*
%ADD19C,0.400000*%
G04 #@! TD*
G04 APERTURE END LIST*
D10*
X113365000Y-64040000D03*
X111715000Y-64040000D03*
D11*
X118815000Y-64040000D03*
X117265000Y-64040000D03*
D12*
X110740000Y-78140000D03*
X110740000Y-79690000D03*
X116740000Y-78165000D03*
X116740000Y-79715000D03*
D13*
X108940000Y-78090000D03*
X108940000Y-79740000D03*
D14*
X114840000Y-78090000D03*
X112640000Y-78090000D03*
X112640000Y-79790000D03*
X114840000Y-79790000D03*
D15*
X109490000Y-66040000D03*
X109490000Y-67310000D03*
X109490000Y-68580000D03*
X109490000Y-69850000D03*
X109490000Y-71120000D03*
X109490000Y-72390000D03*
X109490000Y-73660000D03*
X109490000Y-74930000D03*
X109490000Y-76200000D03*
X118790000Y-76200000D03*
X118790000Y-74930000D03*
X118790000Y-73660000D03*
X118790000Y-72390000D03*
X118790000Y-71120000D03*
X118790000Y-69850000D03*
X118790000Y-68580000D03*
X118790000Y-67310000D03*
X118790000Y-66040000D03*
D16*
X104140000Y-63500000D03*
D17*
X104140000Y-66040000D03*
X104140000Y-68580000D03*
X104140000Y-71120000D03*
X104140000Y-73660000D03*
X104140000Y-76200000D03*
X104140000Y-78740000D03*
X104140000Y-81280000D03*
D16*
X119380000Y-81280000D03*
D18*
X115840000Y-63340000D03*
X106540000Y-80140000D03*
X111590000Y-76590000D03*
X106540000Y-77540000D03*
X116740000Y-81040000D03*
X106540000Y-74840000D03*
X116540000Y-65740000D03*
X116540000Y-68540000D03*
X113240000Y-71040000D03*
X116540000Y-69840000D03*
X116540000Y-72340000D03*
D19*
X110790000Y-78090000D02*
X110740000Y-78140000D01*
X104140000Y-71120000D02*
X105820000Y-71120000D01*
X116740000Y-79715000D02*
X116740000Y-81040000D01*
X105820000Y-71120000D02*
X106540000Y-71840000D01*
X109490000Y-76200000D02*
X111200000Y-76200000D01*
X111590000Y-76590000D02*
X111590000Y-78090000D01*
X116540000Y-64040000D02*
X117265000Y-64040000D01*
X111200000Y-76200000D02*
X111590000Y-76590000D01*
X114840000Y-79790000D02*
X116665000Y-79790000D01*
X116665000Y-79790000D02*
X116740000Y-79715000D01*
X106540000Y-71840000D02*
X106540000Y-74840000D01*
X111590000Y-78090000D02*
X110790000Y-78090000D01*
X106540000Y-74840000D02*
X106540000Y-77540000D01*
X106540000Y-77540000D02*
X106540000Y-80140000D01*
X112640000Y-78090000D02*
X111590000Y-78090000D01*
X115840000Y-63340000D02*
X116540000Y-64040000D01*
X119440000Y-64040000D02*
X120040000Y-64640000D01*
X120040000Y-64640000D02*
X120040000Y-65940000D01*
X108900000Y-63500000D02*
X109440000Y-64040000D01*
X109440000Y-64040000D02*
X111665000Y-64040000D01*
X119940000Y-66040000D02*
X118790000Y-66040000D01*
X116840000Y-66040000D02*
X116540000Y-65740000D01*
X118815000Y-64040000D02*
X119440000Y-64040000D01*
X104140000Y-63500000D02*
X108900000Y-63500000D01*
X118790000Y-66040000D02*
X116840000Y-66040000D01*
X120040000Y-65940000D02*
X119940000Y-66040000D01*
X109490000Y-66040000D02*
X104140000Y-66040000D01*
X107170000Y-67310000D02*
X105900000Y-68580000D01*
X105900000Y-68580000D02*
X104140000Y-68580000D01*
X109490000Y-67310000D02*
X107170000Y-67310000D01*
X108990000Y-79690000D02*
X108940000Y-79740000D01*
X112640000Y-79790000D02*
X110840000Y-79790000D01*
X110840000Y-79790000D02*
X110740000Y-79690000D01*
X110740000Y-79690000D02*
X108990000Y-79690000D01*
X114840000Y-78090000D02*
X114840000Y-77520000D01*
X114840000Y-77520000D02*
X112250000Y-74930000D01*
X114915000Y-78165000D02*
X114840000Y-78090000D01*
X109490000Y-74930000D02*
X112250000Y-74930000D01*
X116740000Y-78165000D02*
X114915000Y-78165000D01*
X118790000Y-68580000D02*
X116580000Y-68580000D01*
X116580000Y-68580000D02*
X116540000Y-68540000D01*
X118790000Y-71120000D02*
X113320000Y-71120000D01*
X113320000Y-71120000D02*
X113240000Y-71040000D01*
X118790000Y-69850000D02*
X116550000Y-69850000D01*
X116550000Y-69850000D02*
X116540000Y-69840000D01*
X116590000Y-72390000D02*
X116540000Y-72340000D01*
X118790000Y-72390000D02*
X116590000Y-72390000D01*
X107720000Y-76420000D02*
X108940000Y-77640000D01*
X108380000Y-73660000D02*
X107720000Y-74320000D01*
X107720000Y-74320000D02*
X107720000Y-76420000D01*
X108940000Y-77640000D02*
X108940000Y-78090000D01*
X109490000Y-73660000D02*
X108380000Y-73660000D01*
X115040000Y-64440000D02*
X114640000Y-64040000D01*
X118790000Y-67310000D02*
X116010000Y-67310000D01*
X116010000Y-67310000D02*
X115040000Y-66340000D01*
X114640000Y-64040000D02*
X113415000Y-64040000D01*
X115040000Y-66340000D02*
X115040000Y-64440000D01*
G04 #@! TA.AperFunction,Conductor*
G36*
X108622460Y-64228502D02*
G01*
X108643435Y-64245405D01*
X108918565Y-64520536D01*
X108924418Y-64526801D01*
X108962439Y-64570385D01*
X109014729Y-64607136D01*
X109019971Y-64611028D01*
X109070282Y-64650476D01*
X109077201Y-64653600D01*
X109079493Y-64654988D01*
X109094165Y-64663357D01*
X109096525Y-64664622D01*
X109102739Y-64668990D01*
X109109818Y-64671750D01*
X109109820Y-64671751D01*
X109162275Y-64692202D01*
X109168344Y-64694753D01*
X109226573Y-64721045D01*
X109234046Y-64722430D01*
X109236612Y-64723234D01*
X109252835Y-64727855D01*
X109255427Y-64728520D01*
X109262509Y-64731282D01*
X109270044Y-64732274D01*
X109325861Y-64739622D01*
X109332377Y-64740654D01*
X109353506Y-64744570D01*
X109395186Y-64752295D01*
X109402766Y-64751858D01*
X109402767Y-64751858D01*
X109457380Y-64748709D01*
X109464633Y-64748500D01*
X110894290Y-64748500D01*
X110962411Y-64768502D01*
X110983385Y-64785405D01*
X111074619Y-64876639D01*
X111221301Y-64965472D01*
X111228548Y-64967743D01*
X111228550Y-64967744D01*
X111276090Y-64982642D01*
X111384938Y-65016753D01*
X111458365Y-65023500D01*
X111461263Y-65023500D01*
X111715665Y-65023499D01*
X111971634Y-65023499D01*
X111974492Y-65023236D01*
X111974501Y-65023236D01*
X112010004Y-65019974D01*
X112045062Y-65016753D01*
X112051447Y-65014752D01*
X112201450Y-64967744D01*
X112201452Y-64967743D01*
X112208699Y-64965472D01*
X112355381Y-64876639D01*
X112450905Y-64781115D01*
X112513217Y-64747089D01*
X112584032Y-64752154D01*
X112629095Y-64781115D01*
X112724619Y-64876639D01*
X112871301Y-64965472D01*
X112878548Y-64967743D01*
X112878550Y-64967744D01*
X112926090Y-64982642D01*
X113034938Y-65016753D01*
X113108365Y-65023500D01*
X113111263Y-65023500D01*
X113365665Y-65023499D01*
X113621634Y-65023499D01*
X113624492Y-65023236D01*
X113624501Y-65023236D01*
X113660004Y-65019974D01*
X113695062Y-65016753D01*
X113701447Y-65014752D01*
X113851450Y-64967744D01*
X113851452Y-64967743D01*
X113858699Y-64965472D01*
X114005381Y-64876639D01*
X114096615Y-64785405D01*
X114158927Y-64751379D01*
X114185710Y-64748500D01*
X114205500Y-64748500D01*
X114273621Y-64768502D01*
X114320114Y-64822158D01*
X114331500Y-64874500D01*
X114331500Y-66311088D01*
X114331208Y-66319658D01*
X114327275Y-66377352D01*
X114328580Y-66384829D01*
X114328580Y-66384830D01*
X114338261Y-66440299D01*
X114339223Y-66446821D01*
X114346898Y-66510242D01*
X114349581Y-66517343D01*
X114350222Y-66519952D01*
X114354685Y-66536262D01*
X114355450Y-66538798D01*
X114356757Y-66546284D01*
X114359811Y-66553241D01*
X114382442Y-66604795D01*
X114384933Y-66610899D01*
X114407513Y-66670656D01*
X114411817Y-66676919D01*
X114413054Y-66679285D01*
X114421299Y-66694097D01*
X114422632Y-66696351D01*
X114425685Y-66703305D01*
X114463967Y-66753193D01*
X114464579Y-66753991D01*
X114468459Y-66759332D01*
X114500339Y-66805720D01*
X114500344Y-66805725D01*
X114504643Y-66811981D01*
X114510313Y-66817032D01*
X114510314Y-66817034D01*
X114551161Y-66853427D01*
X114556438Y-66858408D01*
X115488565Y-67790536D01*
X115494418Y-67796801D01*
X115532439Y-67840385D01*
X115584729Y-67877136D01*
X115589995Y-67881047D01*
X115618516Y-67903410D01*
X115659781Y-67961183D01*
X115663261Y-68032094D01*
X115651185Y-68063264D01*
X115608567Y-68140787D01*
X115606706Y-68146654D01*
X115606705Y-68146656D01*
X115551720Y-68319992D01*
X115548765Y-68329306D01*
X115526719Y-68525851D01*
X115543268Y-68722934D01*
X115597783Y-68913050D01*
X115600602Y-68918535D01*
X115677844Y-69068830D01*
X115688187Y-69088956D01*
X115692011Y-69093780D01*
X115692013Y-69093784D01*
X115704858Y-69109990D01*
X115731495Y-69175801D01*
X115718324Y-69245565D01*
X115710074Y-69259443D01*
X115707809Y-69262752D01*
X115703846Y-69267474D01*
X115608567Y-69440787D01*
X115548765Y-69629306D01*
X115526719Y-69825851D01*
X115543268Y-70022934D01*
X115555053Y-70064033D01*
X115594004Y-70199870D01*
X115597783Y-70213050D01*
X115605230Y-70227541D01*
X115605419Y-70227908D01*
X115618765Y-70297639D01*
X115592293Y-70363516D01*
X115534408Y-70404623D01*
X115493351Y-70411500D01*
X114088677Y-70411500D01*
X114020556Y-70391498D01*
X113991034Y-70365136D01*
X113962960Y-70330713D01*
X113962957Y-70330710D01*
X113959065Y-70325938D01*
X113952724Y-70320692D01*
X113811425Y-70203799D01*
X113811421Y-70203797D01*
X113806675Y-70199870D01*
X113632701Y-70105802D01*
X113443768Y-70047318D01*
X113437643Y-70046674D01*
X113437642Y-70046674D01*
X113253204Y-70027289D01*
X113253202Y-70027289D01*
X113247075Y-70026645D01*
X113164576Y-70034153D01*
X113056251Y-70044011D01*
X113056248Y-70044012D01*
X113050112Y-70044570D01*
X113044206Y-70046308D01*
X113044202Y-70046309D01*
X112983981Y-70064033D01*
X112860381Y-70100410D01*
X112854923Y-70103263D01*
X112854919Y-70103265D01*
X112809060Y-70127240D01*
X112685110Y-70192040D01*
X112530975Y-70315968D01*
X112403846Y-70467474D01*
X112400879Y-70472872D01*
X112400875Y-70472877D01*
X112351224Y-70563193D01*
X112308567Y-70640787D01*
X112306706Y-70646654D01*
X112306705Y-70646656D01*
X112250627Y-70823436D01*
X112248765Y-70829306D01*
X112226719Y-71025851D01*
X112243268Y-71222934D01*
X112244967Y-71228858D01*
X112286586Y-71374000D01*
X112297783Y-71413050D01*
X112388187Y-71588956D01*
X112511035Y-71743953D01*
X112515728Y-71747947D01*
X112515729Y-71747948D01*
X112614755Y-71832225D01*
X112661650Y-71872136D01*
X112834294Y-71968624D01*
X113022392Y-72029740D01*
X113218777Y-72053158D01*
X113224912Y-72052686D01*
X113224914Y-72052686D01*
X113409830Y-72038457D01*
X113409834Y-72038456D01*
X113415972Y-72037984D01*
X113606463Y-71984798D01*
X113611967Y-71982018D01*
X113611969Y-71982017D01*
X113777495Y-71898404D01*
X113777497Y-71898403D01*
X113782996Y-71895625D01*
X113834726Y-71855209D01*
X113900719Y-71829033D01*
X113912297Y-71828500D01*
X115472029Y-71828500D01*
X115540150Y-71848502D01*
X115586643Y-71902158D01*
X115596747Y-71972432D01*
X115592131Y-71992599D01*
X115580953Y-72027836D01*
X115548765Y-72129306D01*
X115526719Y-72325851D01*
X115528081Y-72342069D01*
X115541889Y-72506507D01*
X115543268Y-72522934D01*
X115544967Y-72528858D01*
X115582528Y-72659848D01*
X115597783Y-72713050D01*
X115688187Y-72888956D01*
X115811035Y-73043953D01*
X115815728Y-73047947D01*
X115815729Y-73047948D01*
X115900789Y-73120339D01*
X115961650Y-73172136D01*
X116134294Y-73268624D01*
X116322392Y-73329740D01*
X116518777Y-73353158D01*
X116524912Y-73352686D01*
X116524914Y-73352686D01*
X116709830Y-73338457D01*
X116709834Y-73338456D01*
X116715972Y-73337984D01*
X116906463Y-73284798D01*
X116911967Y-73282018D01*
X116911969Y-73282017D01*
X117077491Y-73198406D01*
X117077493Y-73198405D01*
X117082996Y-73195625D01*
X117087859Y-73191826D01*
X117093028Y-73188545D01*
X117161261Y-73168930D01*
X117229267Y-73189319D01*
X117275455Y-73243237D01*
X117285160Y-73313567D01*
X117281543Y-73330080D01*
X117261233Y-73399989D01*
X117261232Y-73399993D01*
X117259438Y-73406169D01*
X117256500Y-73443498D01*
X117256500Y-73876502D01*
X117256693Y-73878950D01*
X117256693Y-73878958D01*
X117258351Y-73900014D01*
X117259438Y-73913831D01*
X117281515Y-73989820D01*
X117302005Y-74060348D01*
X117305855Y-74073601D01*
X117390547Y-74216807D01*
X117393229Y-74219489D01*
X117418502Y-74283861D01*
X117404600Y-74353484D01*
X117394428Y-74369312D01*
X117390547Y-74373193D01*
X117305855Y-74516399D01*
X117259438Y-74676169D01*
X117258934Y-74682574D01*
X117258933Y-74682579D01*
X117257470Y-74701173D01*
X117256500Y-74713498D01*
X117256500Y-75146502D01*
X117259438Y-75183831D01*
X117305855Y-75343601D01*
X117390547Y-75486807D01*
X117393229Y-75489489D01*
X117418502Y-75553861D01*
X117404600Y-75623484D01*
X117394428Y-75639312D01*
X117390547Y-75643193D01*
X117305855Y-75786399D01*
X117259438Y-75946169D01*
X117256500Y-75983498D01*
X117256500Y-76416502D01*
X117259438Y-76453831D01*
X117288472Y-76553769D01*
X117303586Y-76605790D01*
X117305855Y-76613601D01*
X117309892Y-76620427D01*
X117386509Y-76749980D01*
X117386511Y-76749983D01*
X117390547Y-76756807D01*
X117508193Y-76874453D01*
X117515017Y-76878489D01*
X117515020Y-76878491D01*
X117562004Y-76906277D01*
X117651399Y-76959145D01*
X117659010Y-76961356D01*
X117659012Y-76961357D01*
X117711231Y-76976528D01*
X117811169Y-77005562D01*
X117817574Y-77006066D01*
X117817579Y-77006067D01*
X117846042Y-77008307D01*
X117846050Y-77008307D01*
X117848498Y-77008500D01*
X119731502Y-77008500D01*
X119733950Y-77008307D01*
X119733958Y-77008307D01*
X119762421Y-77006067D01*
X119762426Y-77006066D01*
X119768831Y-77005562D01*
X119868769Y-76976528D01*
X119920988Y-76961357D01*
X119920990Y-76961356D01*
X119928601Y-76959145D01*
X119951362Y-76945684D01*
X120020178Y-76928225D01*
X120087509Y-76950742D01*
X120131978Y-77006087D01*
X120141500Y-77054138D01*
X120141500Y-79796000D01*
X120121498Y-79864121D01*
X120067842Y-79910614D01*
X120015500Y-79922000D01*
X119652115Y-79922000D01*
X119636876Y-79926475D01*
X119635671Y-79927865D01*
X119634000Y-79935548D01*
X119634000Y-81408000D01*
X119613998Y-81476121D01*
X119560342Y-81522614D01*
X119508000Y-81534000D01*
X118040116Y-81534000D01*
X118024877Y-81538475D01*
X118023672Y-81539865D01*
X118022001Y-81547548D01*
X118022001Y-81915500D01*
X118001999Y-81983621D01*
X117948343Y-82030114D01*
X117896001Y-82041500D01*
X105481905Y-82041500D01*
X105413784Y-82021498D01*
X105367291Y-81967842D01*
X105357187Y-81897568D01*
X105368948Y-81859673D01*
X105405136Y-81786452D01*
X105407430Y-81781811D01*
X105472370Y-81568069D01*
X105501529Y-81346590D01*
X105503156Y-81280000D01*
X105484852Y-81057361D01*
X105472424Y-81007885D01*
X118022000Y-81007885D01*
X118026475Y-81023124D01*
X118027865Y-81024329D01*
X118035548Y-81026000D01*
X119107885Y-81026000D01*
X119123124Y-81021525D01*
X119124329Y-81020135D01*
X119126000Y-81012452D01*
X119126000Y-79940116D01*
X119121525Y-79924877D01*
X119120135Y-79923672D01*
X119112452Y-79922001D01*
X118485331Y-79922001D01*
X118478510Y-79922371D01*
X118427648Y-79927895D01*
X118412396Y-79931521D01*
X118291946Y-79976676D01*
X118276351Y-79985214D01*
X118174276Y-80061715D01*
X118161715Y-80074276D01*
X118085214Y-80176351D01*
X118076676Y-80191946D01*
X118031522Y-80312394D01*
X118027895Y-80327649D01*
X118022369Y-80378514D01*
X118022000Y-80385328D01*
X118022000Y-81007885D01*
X105472424Y-81007885D01*
X105430431Y-80840702D01*
X105341354Y-80635840D01*
X105261999Y-80513176D01*
X105222822Y-80452617D01*
X105222820Y-80452614D01*
X105220014Y-80448277D01*
X105069670Y-80283051D01*
X105065619Y-80279852D01*
X105065615Y-80279848D01*
X104898414Y-80147800D01*
X104898410Y-80147798D01*
X104894359Y-80144598D01*
X104853053Y-80121796D01*
X104803084Y-80071364D01*
X104788312Y-80001921D01*
X104813428Y-79935516D01*
X104840780Y-79908909D01*
X104897378Y-79868538D01*
X105019860Y-79781173D01*
X105178096Y-79623489D01*
X105244179Y-79531525D01*
X105305435Y-79446277D01*
X105308453Y-79442077D01*
X105407430Y-79241811D01*
X105472370Y-79028069D01*
X105501529Y-78806590D01*
X105501795Y-78795698D01*
X105503074Y-78743365D01*
X105503074Y-78743361D01*
X105503156Y-78740000D01*
X105484852Y-78517361D01*
X105430431Y-78300702D01*
X105341354Y-78095840D01*
X105220014Y-77908277D01*
X105069670Y-77743051D01*
X105065619Y-77739852D01*
X105065615Y-77739848D01*
X104898414Y-77607800D01*
X104898410Y-77607798D01*
X104894359Y-77604598D01*
X104853053Y-77581796D01*
X104803084Y-77531364D01*
X104788312Y-77461921D01*
X104813428Y-77395516D01*
X104840780Y-77368909D01*
X104903146Y-77324424D01*
X105019860Y-77241173D01*
X105028563Y-77232501D01*
X105122051Y-77139338D01*
X105178096Y-77083489D01*
X105232120Y-77008307D01*
X105305435Y-76906277D01*
X105308453Y-76902077D01*
X105310946Y-76897034D01*
X105405136Y-76706453D01*
X105405137Y-76706451D01*
X105407430Y-76701811D01*
X105472370Y-76488069D01*
X105501529Y-76266590D01*
X105503156Y-76200000D01*
X105484852Y-75977361D01*
X105430431Y-75760702D01*
X105341354Y-75555840D01*
X105220014Y-75368277D01*
X105069670Y-75203051D01*
X105065619Y-75199852D01*
X105065615Y-75199848D01*
X104898414Y-75067800D01*
X104898410Y-75067798D01*
X104894359Y-75064598D01*
X104853053Y-75041796D01*
X104803084Y-74991364D01*
X104788312Y-74921921D01*
X104813428Y-74855516D01*
X104840780Y-74828909D01*
X104897378Y-74788538D01*
X105019860Y-74701173D01*
X105178096Y-74543489D01*
X105308453Y-74362077D01*
X105327169Y-74324209D01*
X105405136Y-74166453D01*
X105405137Y-74166451D01*
X105407430Y-74161811D01*
X105459685Y-73989820D01*
X105470865Y-73953023D01*
X105470865Y-73953021D01*
X105472370Y-73948069D01*
X105501529Y-73726590D01*
X105503156Y-73660000D01*
X105484852Y-73437361D01*
X105430431Y-73220702D01*
X105341354Y-73015840D01*
X105259269Y-72888956D01*
X105222822Y-72832617D01*
X105222820Y-72832614D01*
X105220014Y-72828277D01*
X105069670Y-72663051D01*
X105065619Y-72659852D01*
X105065615Y-72659848D01*
X104898414Y-72527800D01*
X104898410Y-72527798D01*
X104894359Y-72524598D01*
X104852569Y-72501529D01*
X104802598Y-72451097D01*
X104787826Y-72381654D01*
X104812942Y-72315248D01*
X104840294Y-72288641D01*
X105015328Y-72163792D01*
X105023200Y-72157139D01*
X105174052Y-72006812D01*
X105180730Y-71998965D01*
X105305003Y-71826020D01*
X105310313Y-71817183D01*
X105404670Y-71626267D01*
X105408469Y-71616672D01*
X105470377Y-71412910D01*
X105472555Y-71402837D01*
X105473986Y-71391962D01*
X105471775Y-71377778D01*
X105458617Y-71374000D01*
X104012000Y-71374000D01*
X103943879Y-71353998D01*
X103897386Y-71300342D01*
X103886000Y-71248000D01*
X103886000Y-70992000D01*
X103906002Y-70923879D01*
X103959658Y-70877386D01*
X104012000Y-70866000D01*
X105458344Y-70866000D01*
X105471875Y-70862027D01*
X105473180Y-70852947D01*
X105431214Y-70685875D01*
X105427894Y-70676124D01*
X105342972Y-70480814D01*
X105338105Y-70471739D01*
X105222426Y-70292926D01*
X105216136Y-70284757D01*
X105072806Y-70127240D01*
X105065273Y-70120215D01*
X104898139Y-69988222D01*
X104889556Y-69982520D01*
X104852602Y-69962120D01*
X104802631Y-69911687D01*
X104787859Y-69842245D01*
X104812975Y-69775839D01*
X104840327Y-69749232D01*
X104897378Y-69708538D01*
X105019860Y-69621173D01*
X105178096Y-69463489D01*
X105266132Y-69340974D01*
X105322127Y-69297326D01*
X105368455Y-69288500D01*
X105871088Y-69288500D01*
X105879658Y-69288792D01*
X105929776Y-69292209D01*
X105929780Y-69292209D01*
X105937352Y-69292725D01*
X105944829Y-69291420D01*
X105944830Y-69291420D01*
X105971308Y-69286799D01*
X106000303Y-69281738D01*
X106006821Y-69280777D01*
X106070242Y-69273102D01*
X106077343Y-69270419D01*
X106079952Y-69269778D01*
X106096262Y-69265315D01*
X106098798Y-69264550D01*
X106106284Y-69263243D01*
X106164800Y-69237556D01*
X106170904Y-69235065D01*
X106223548Y-69215173D01*
X106223549Y-69215172D01*
X106230656Y-69212487D01*
X106236919Y-69208183D01*
X106239285Y-69206946D01*
X106254097Y-69198701D01*
X106256351Y-69197368D01*
X106263305Y-69194315D01*
X106314002Y-69155413D01*
X106319332Y-69151541D01*
X106365720Y-69119661D01*
X106365725Y-69119656D01*
X106371981Y-69115357D01*
X106395504Y-69088956D01*
X106413435Y-69068830D01*
X106418416Y-69063554D01*
X107426566Y-68055405D01*
X107488878Y-68021379D01*
X107515661Y-68018500D01*
X107881007Y-68018500D01*
X107949128Y-68038502D01*
X107995621Y-68092158D01*
X108005725Y-68162432D01*
X108002004Y-68179652D01*
X107961233Y-68319989D01*
X107961232Y-68319993D01*
X107959438Y-68326169D01*
X107958934Y-68332574D01*
X107958933Y-68332579D01*
X107956693Y-68361042D01*
X107956500Y-68363498D01*
X107956500Y-68796502D01*
X107959438Y-68833831D01*
X108005855Y-68993601D01*
X108090547Y-69136807D01*
X108093229Y-69139489D01*
X108118502Y-69203861D01*
X108104600Y-69273484D01*
X108094428Y-69289312D01*
X108090547Y-69293193D01*
X108005855Y-69436399D01*
X107959438Y-69596169D01*
X107958934Y-69602574D01*
X107958933Y-69602579D01*
X107957470Y-69621173D01*
X107956500Y-69633498D01*
X107956500Y-70066502D01*
X107959438Y-70103831D01*
X108005855Y-70263601D01*
X108090547Y-70406807D01*
X108093229Y-70409489D01*
X108118502Y-70473861D01*
X108104600Y-70543484D01*
X108094428Y-70559312D01*
X108090547Y-70563193D01*
X108005855Y-70706399D01*
X107959438Y-70866169D01*
X107956500Y-70903498D01*
X107956500Y-71336502D01*
X107959438Y-71373831D01*
X108005855Y-71533601D01*
X108090547Y-71676807D01*
X108093229Y-71679489D01*
X108118502Y-71743861D01*
X108104600Y-71813484D01*
X108094428Y-71829312D01*
X108090547Y-71833193D01*
X108005855Y-71976399D01*
X108003644Y-71984010D01*
X108003643Y-71984012D01*
X107999299Y-71998965D01*
X107959438Y-72136169D01*
X107958934Y-72142574D01*
X107958933Y-72142579D01*
X107957264Y-72163792D01*
X107956500Y-72173498D01*
X107956500Y-72606502D01*
X107959438Y-72643831D01*
X108005855Y-72803601D01*
X108051061Y-72880039D01*
X108068519Y-72948853D01*
X108046002Y-73016184D01*
X108015668Y-73044344D01*
X108016696Y-73045684D01*
X108016694Y-73045685D01*
X108016695Y-73045685D01*
X107965998Y-73084587D01*
X107960668Y-73088459D01*
X107914280Y-73120339D01*
X107914275Y-73120344D01*
X107908019Y-73124643D01*
X107902968Y-73130313D01*
X107902966Y-73130314D01*
X107866565Y-73171170D01*
X107861584Y-73176446D01*
X107239480Y-73798550D01*
X107233215Y-73804404D01*
X107189615Y-73842439D01*
X107185248Y-73848653D01*
X107152872Y-73894719D01*
X107148939Y-73900014D01*
X107109524Y-73950282D01*
X107106401Y-73957198D01*
X107105017Y-73959484D01*
X107096643Y-73974165D01*
X107095378Y-73976525D01*
X107091010Y-73982739D01*
X107088250Y-73989818D01*
X107088249Y-73989820D01*
X107067798Y-74042275D01*
X107065247Y-74048344D01*
X107038955Y-74106573D01*
X107037571Y-74114040D01*
X107036770Y-74116595D01*
X107032141Y-74132848D01*
X107031478Y-74135428D01*
X107028718Y-74142509D01*
X107027727Y-74150040D01*
X107027726Y-74150042D01*
X107020379Y-74205852D01*
X107019348Y-74212359D01*
X107007704Y-74275186D01*
X107008141Y-74282766D01*
X107008141Y-74282767D01*
X107011291Y-74337392D01*
X107011500Y-74344646D01*
X107011500Y-76391088D01*
X107011208Y-76399658D01*
X107007275Y-76457352D01*
X107008580Y-76464829D01*
X107008580Y-76464830D01*
X107018261Y-76520299D01*
X107019223Y-76526821D01*
X107026898Y-76590242D01*
X107029581Y-76597343D01*
X107030222Y-76599952D01*
X107034685Y-76616262D01*
X107035450Y-76618798D01*
X107036757Y-76626284D01*
X107039811Y-76633241D01*
X107062442Y-76684795D01*
X107064933Y-76690899D01*
X107087513Y-76750656D01*
X107091817Y-76756919D01*
X107093054Y-76759285D01*
X107101299Y-76774097D01*
X107102632Y-76776351D01*
X107105685Y-76783305D01*
X107140916Y-76829217D01*
X107144579Y-76833991D01*
X107148459Y-76839332D01*
X107180339Y-76885720D01*
X107180344Y-76885725D01*
X107184643Y-76891981D01*
X107190313Y-76897032D01*
X107190314Y-76897034D01*
X107231170Y-76933435D01*
X107236446Y-76938416D01*
X107931955Y-77633925D01*
X107965981Y-77696237D01*
X107966407Y-77747760D01*
X107965245Y-77753562D01*
X107963247Y-77759938D01*
X107956500Y-77833365D01*
X107956501Y-78346634D01*
X107963247Y-78420062D01*
X108014528Y-78583699D01*
X108103361Y-78730381D01*
X108198885Y-78825905D01*
X108232911Y-78888217D01*
X108227846Y-78959032D01*
X108198885Y-79004095D01*
X108103361Y-79099619D01*
X108014528Y-79246301D01*
X107963247Y-79409938D01*
X107956500Y-79483365D01*
X107956501Y-79996634D01*
X107956764Y-79999492D01*
X107956764Y-79999501D01*
X107957650Y-80009144D01*
X107963247Y-80070062D01*
X108014528Y-80233699D01*
X108103361Y-80380381D01*
X108224619Y-80501639D01*
X108371301Y-80590472D01*
X108378548Y-80592743D01*
X108378550Y-80592744D01*
X108435590Y-80610619D01*
X108534938Y-80641753D01*
X108608365Y-80648500D01*
X108611263Y-80648500D01*
X108940860Y-80648499D01*
X109271634Y-80648499D01*
X109274492Y-80648236D01*
X109274501Y-80648236D01*
X109310004Y-80644974D01*
X109345062Y-80641753D01*
X109351447Y-80639752D01*
X109501450Y-80592744D01*
X109501452Y-80592743D01*
X109508699Y-80590472D01*
X109655381Y-80501639D01*
X109721615Y-80435405D01*
X109783927Y-80401379D01*
X109810710Y-80398500D01*
X109883951Y-80398500D01*
X109952072Y-80418502D01*
X109972968Y-80435326D01*
X110021651Y-80483924D01*
X110032298Y-80494552D01*
X110038528Y-80498392D01*
X110038529Y-80498393D01*
X110170482Y-80579730D01*
X110177899Y-80584302D01*
X110340243Y-80638149D01*
X110347080Y-80638849D01*
X110347082Y-80638850D01*
X110388401Y-80643083D01*
X110441268Y-80648500D01*
X111038732Y-80648500D01*
X111041978Y-80648163D01*
X111041982Y-80648163D01*
X111083172Y-80643889D01*
X111141019Y-80637887D01*
X111221156Y-80611151D01*
X111296324Y-80586073D01*
X111296326Y-80586072D01*
X111303268Y-80583756D01*
X111309493Y-80579904D01*
X111316121Y-80576799D01*
X111316764Y-80578171D01*
X111377162Y-80561549D01*
X111444932Y-80582709D01*
X111485536Y-80627024D01*
X111486233Y-80628297D01*
X111489385Y-80636705D01*
X111494769Y-80643888D01*
X111494769Y-80643889D01*
X111507212Y-80660491D01*
X111576739Y-80753261D01*
X111693295Y-80840615D01*
X111829684Y-80891745D01*
X111891866Y-80898500D01*
X113388134Y-80898500D01*
X113450316Y-80891745D01*
X113586705Y-80840615D01*
X113664852Y-80782047D01*
X113731358Y-80757199D01*
X113800741Y-80772252D01*
X113815982Y-80782047D01*
X113886352Y-80834786D01*
X113901946Y-80843324D01*
X114022394Y-80888478D01*
X114037649Y-80892105D01*
X114088514Y-80897631D01*
X114095328Y-80898000D01*
X114567885Y-80898000D01*
X114583124Y-80893525D01*
X114584329Y-80892135D01*
X114586000Y-80884452D01*
X114586000Y-80879884D01*
X115094000Y-80879884D01*
X115098475Y-80895123D01*
X115099865Y-80896328D01*
X115107548Y-80897999D01*
X115584669Y-80897999D01*
X115591490Y-80897629D01*
X115642352Y-80892105D01*
X115657604Y-80888479D01*
X115778054Y-80843324D01*
X115793649Y-80834786D01*
X115895724Y-80758285D01*
X115908285Y-80745724D01*
X115990172Y-80636462D01*
X115991532Y-80637481D01*
X116034368Y-80594743D01*
X116103759Y-80579730D01*
X116160743Y-80598139D01*
X116171882Y-80605005D01*
X116185061Y-80611151D01*
X116333814Y-80660491D01*
X116347190Y-80663358D01*
X116438097Y-80672672D01*
X116444513Y-80673000D01*
X116467885Y-80673000D01*
X116483124Y-80668525D01*
X116484329Y-80667135D01*
X116486000Y-80659452D01*
X116486000Y-80654885D01*
X116994000Y-80654885D01*
X116998475Y-80670124D01*
X116999865Y-80671329D01*
X117007548Y-80673000D01*
X117035438Y-80673000D01*
X117041953Y-80672663D01*
X117134057Y-80663106D01*
X117147456Y-80660212D01*
X117296107Y-80610619D01*
X117309286Y-80604445D01*
X117442173Y-80522212D01*
X117453574Y-80513176D01*
X117563986Y-80402571D01*
X117572998Y-80391160D01*
X117655004Y-80258120D01*
X117661151Y-80244939D01*
X117710491Y-80096186D01*
X117713358Y-80082810D01*
X117722672Y-79991903D01*
X117722929Y-79986874D01*
X117718525Y-79971876D01*
X117717135Y-79970671D01*
X117709452Y-79969000D01*
X117012115Y-79969000D01*
X116996876Y-79973475D01*
X116995671Y-79974865D01*
X116994000Y-79982548D01*
X116994000Y-80654885D01*
X116486000Y-80654885D01*
X116486000Y-79987115D01*
X116481525Y-79971876D01*
X116480135Y-79970671D01*
X116472452Y-79969000D01*
X116106115Y-79969000D01*
X116090876Y-79973475D01*
X116068611Y-79999170D01*
X116067189Y-79997938D01*
X116062185Y-80007100D01*
X115999871Y-80041122D01*
X115973094Y-80044000D01*
X115112115Y-80044000D01*
X115096876Y-80048475D01*
X115095671Y-80049865D01*
X115094000Y-80057548D01*
X115094000Y-80879884D01*
X114586000Y-80879884D01*
X114586000Y-79662000D01*
X114606002Y-79593879D01*
X114659658Y-79547386D01*
X114712000Y-79536000D01*
X115698885Y-79536000D01*
X115714124Y-79531525D01*
X115736389Y-79505830D01*
X115737811Y-79507062D01*
X115742815Y-79497900D01*
X115805129Y-79463878D01*
X115831906Y-79461000D01*
X117704885Y-79461000D01*
X117720124Y-79456525D01*
X117721329Y-79455135D01*
X117723000Y-79447452D01*
X117723000Y-79444562D01*
X117722663Y-79438047D01*
X117713106Y-79345943D01*
X117710212Y-79332544D01*
X117660619Y-79183893D01*
X117654445Y-79170714D01*
X117572212Y-79037827D01*
X117558629Y-79020689D01*
X117560559Y-79019159D01*
X117532097Y-78967120D01*
X117537113Y-78896301D01*
X117560799Y-78859383D01*
X117559843Y-78858628D01*
X117564381Y-78852882D01*
X117569552Y-78847702D01*
X117601608Y-78795698D01*
X117655462Y-78708331D01*
X117655463Y-78708329D01*
X117659302Y-78702101D01*
X117713149Y-78539757D01*
X117723500Y-78438732D01*
X117723500Y-77891268D01*
X117722954Y-77886000D01*
X117717793Y-77836263D01*
X117712887Y-77788981D01*
X117658756Y-77626732D01*
X117650176Y-77612866D01*
X117572606Y-77487515D01*
X117568752Y-77481287D01*
X117447702Y-77360448D01*
X117404369Y-77333737D01*
X117308331Y-77274538D01*
X117308329Y-77274537D01*
X117302101Y-77270698D01*
X117139757Y-77216851D01*
X117132920Y-77216151D01*
X117132918Y-77216150D01*
X117091599Y-77211917D01*
X117038732Y-77206500D01*
X116441268Y-77206500D01*
X116438022Y-77206837D01*
X116438018Y-77206837D01*
X116403917Y-77210375D01*
X116338981Y-77217113D01*
X116320209Y-77223376D01*
X116183676Y-77268927D01*
X116183674Y-77268928D01*
X116176732Y-77271244D01*
X116170508Y-77275095D01*
X116170507Y-77275096D01*
X116161065Y-77280939D01*
X116092613Y-77299777D01*
X116024843Y-77278616D01*
X115991720Y-77242467D01*
X115990615Y-77243295D01*
X115977646Y-77225991D01*
X115903261Y-77126739D01*
X115786705Y-77039385D01*
X115650316Y-76988255D01*
X115588134Y-76981500D01*
X115355660Y-76981500D01*
X115287539Y-76961498D01*
X115266565Y-76944595D01*
X112771450Y-74449480D01*
X112765596Y-74443215D01*
X112765201Y-74442762D01*
X112727561Y-74399615D01*
X112675280Y-74362871D01*
X112669986Y-74358939D01*
X112625693Y-74324209D01*
X112619718Y-74319524D01*
X112612802Y-74316401D01*
X112610516Y-74315017D01*
X112595835Y-74306643D01*
X112593475Y-74305378D01*
X112587261Y-74301010D01*
X112580182Y-74298250D01*
X112580180Y-74298249D01*
X112527725Y-74277798D01*
X112521656Y-74275247D01*
X112463427Y-74248955D01*
X112455960Y-74247571D01*
X112453405Y-74246770D01*
X112437152Y-74242141D01*
X112434572Y-74241478D01*
X112427491Y-74238718D01*
X112419960Y-74237727D01*
X112419958Y-74237726D01*
X112390339Y-74233827D01*
X112364139Y-74230378D01*
X112357641Y-74229348D01*
X112294814Y-74217704D01*
X112287234Y-74218141D01*
X112287233Y-74218141D01*
X112232608Y-74221291D01*
X112225354Y-74221500D01*
X111098993Y-74221500D01*
X111030872Y-74201498D01*
X110984379Y-74147842D01*
X110974275Y-74077568D01*
X110977996Y-74060348D01*
X111018767Y-73920011D01*
X111018768Y-73920007D01*
X111020562Y-73913831D01*
X111021650Y-73900014D01*
X111023307Y-73878958D01*
X111023307Y-73878950D01*
X111023500Y-73876502D01*
X111023500Y-73443498D01*
X111020562Y-73406169D01*
X110974145Y-73246399D01*
X110889453Y-73103193D01*
X110886771Y-73100511D01*
X110861498Y-73036139D01*
X110875400Y-72966516D01*
X110885572Y-72950688D01*
X110889453Y-72946807D01*
X110974145Y-72803601D01*
X111020562Y-72643831D01*
X111023500Y-72606502D01*
X111023500Y-72173498D01*
X111022736Y-72163792D01*
X111021067Y-72142579D01*
X111021066Y-72142574D01*
X111020562Y-72136169D01*
X110980701Y-71998965D01*
X110976357Y-71984012D01*
X110976356Y-71984010D01*
X110974145Y-71976399D01*
X110889453Y-71833193D01*
X110886771Y-71830511D01*
X110861498Y-71766139D01*
X110875400Y-71696516D01*
X110885572Y-71680688D01*
X110889453Y-71676807D01*
X110974145Y-71533601D01*
X111020562Y-71373831D01*
X111023500Y-71336502D01*
X111023500Y-70903498D01*
X111020562Y-70866169D01*
X110974145Y-70706399D01*
X110889453Y-70563193D01*
X110886771Y-70560511D01*
X110861498Y-70496139D01*
X110875400Y-70426516D01*
X110885572Y-70410688D01*
X110889453Y-70406807D01*
X110974145Y-70263601D01*
X111020562Y-70103831D01*
X111023500Y-70066502D01*
X111023500Y-69633498D01*
X111022530Y-69621173D01*
X111021067Y-69602579D01*
X111021066Y-69602574D01*
X111020562Y-69596169D01*
X110974145Y-69436399D01*
X110889453Y-69293193D01*
X110886771Y-69290511D01*
X110861498Y-69226139D01*
X110875400Y-69156516D01*
X110885572Y-69140688D01*
X110889453Y-69136807D01*
X110974145Y-68993601D01*
X111020562Y-68833831D01*
X111023500Y-68796502D01*
X111023500Y-68363498D01*
X111023307Y-68361042D01*
X111021067Y-68332579D01*
X111021066Y-68332574D01*
X111020562Y-68326169D01*
X110991528Y-68226231D01*
X110976357Y-68174012D01*
X110976356Y-68174010D01*
X110974145Y-68166399D01*
X110889453Y-68023193D01*
X110886771Y-68020511D01*
X110861498Y-67956139D01*
X110875400Y-67886516D01*
X110885572Y-67870688D01*
X110889453Y-67866807D01*
X110974145Y-67723601D01*
X111020562Y-67563831D01*
X111023500Y-67526502D01*
X111023500Y-67093498D01*
X111022530Y-67081173D01*
X111021067Y-67062579D01*
X111021066Y-67062574D01*
X111020562Y-67056169D01*
X110974145Y-66896399D01*
X110889453Y-66753193D01*
X110886771Y-66750511D01*
X110861498Y-66686139D01*
X110875400Y-66616516D01*
X110885572Y-66600688D01*
X110889453Y-66596807D01*
X110974145Y-66453601D01*
X111020562Y-66293831D01*
X111023500Y-66256502D01*
X111023500Y-65823498D01*
X111020562Y-65786169D01*
X110974145Y-65626399D01*
X110957107Y-65597589D01*
X110893491Y-65490020D01*
X110893489Y-65490017D01*
X110889453Y-65483193D01*
X110771807Y-65365547D01*
X110764983Y-65361511D01*
X110764980Y-65361509D01*
X110635427Y-65284892D01*
X110635428Y-65284892D01*
X110628601Y-65280855D01*
X110620990Y-65278644D01*
X110620988Y-65278643D01*
X110558194Y-65260400D01*
X110468831Y-65234438D01*
X110462426Y-65233934D01*
X110462421Y-65233933D01*
X110433958Y-65231693D01*
X110433950Y-65231693D01*
X110431502Y-65231500D01*
X108548498Y-65231500D01*
X108546050Y-65231693D01*
X108546042Y-65231693D01*
X108517579Y-65233933D01*
X108517574Y-65233934D01*
X108511169Y-65234438D01*
X108421806Y-65260400D01*
X108359012Y-65278643D01*
X108359010Y-65278644D01*
X108351399Y-65280855D01*
X108295431Y-65313955D01*
X108231294Y-65331500D01*
X105368286Y-65331500D01*
X105300165Y-65311498D01*
X105262494Y-65273941D01*
X105253734Y-65260400D01*
X105220014Y-65208277D01*
X105177708Y-65161783D01*
X105072798Y-65046488D01*
X105041746Y-64982642D01*
X105050141Y-64912143D01*
X105095317Y-64857375D01*
X105121761Y-64843706D01*
X105228297Y-64803767D01*
X105236705Y-64800615D01*
X105353261Y-64713261D01*
X105440615Y-64596705D01*
X105491745Y-64460316D01*
X105498500Y-64398134D01*
X105498500Y-64334500D01*
X105518502Y-64266379D01*
X105572158Y-64219886D01*
X105624500Y-64208500D01*
X108554339Y-64208500D01*
X108622460Y-64228502D01*
G37*
G04 #@! TD.AperFunction*
G04 #@! TA.AperFunction,Conductor*
G36*
X111972461Y-75658502D02*
G01*
X111993435Y-75675405D01*
X113084934Y-76766905D01*
X113118960Y-76829217D01*
X113113895Y-76900033D01*
X113071348Y-76956868D01*
X113004828Y-76981679D01*
X112995839Y-76982000D01*
X112912115Y-76982000D01*
X112896876Y-76986475D01*
X112895671Y-76987865D01*
X112894000Y-76995548D01*
X112894000Y-78218000D01*
X112873998Y-78286121D01*
X112820342Y-78332614D01*
X112768000Y-78344000D01*
X111781115Y-78344000D01*
X111765876Y-78348474D01*
X111764111Y-78350512D01*
X111704385Y-78388896D01*
X111668886Y-78394000D01*
X110612000Y-78394000D01*
X110543879Y-78373998D01*
X110497386Y-78320342D01*
X110486000Y-78268000D01*
X110486000Y-77867885D01*
X110994000Y-77867885D01*
X110998475Y-77883124D01*
X110999865Y-77884329D01*
X111007548Y-77886000D01*
X111373885Y-77886000D01*
X111389124Y-77881526D01*
X111390889Y-77879488D01*
X111450615Y-77841104D01*
X111486114Y-77836000D01*
X112367885Y-77836000D01*
X112383124Y-77831525D01*
X112384329Y-77830135D01*
X112386000Y-77822452D01*
X112386000Y-77000116D01*
X112381525Y-76984877D01*
X112380135Y-76983672D01*
X112372452Y-76982001D01*
X111895331Y-76982001D01*
X111888510Y-76982371D01*
X111837648Y-76987895D01*
X111822396Y-76991521D01*
X111701946Y-77036676D01*
X111686351Y-77045214D01*
X111584276Y-77121715D01*
X111571719Y-77134272D01*
X111498101Y-77232501D01*
X111441241Y-77275016D01*
X111370423Y-77280042D01*
X111331159Y-77264196D01*
X111308125Y-77249998D01*
X111294939Y-77243849D01*
X111146186Y-77194509D01*
X111132810Y-77191642D01*
X111041903Y-77182328D01*
X111035486Y-77182000D01*
X111012115Y-77182000D01*
X110996876Y-77186475D01*
X110995671Y-77187865D01*
X110994000Y-77195548D01*
X110994000Y-77867885D01*
X110486000Y-77867885D01*
X110486000Y-77200115D01*
X110475424Y-77164095D01*
X110459512Y-77139338D01*
X110459510Y-77068342D01*
X110497891Y-77008614D01*
X110545253Y-76982839D01*
X110620790Y-76960893D01*
X110635221Y-76954648D01*
X110764678Y-76878089D01*
X110777104Y-76868449D01*
X110883449Y-76762104D01*
X110893089Y-76749678D01*
X110969648Y-76620221D01*
X110975893Y-76605790D01*
X111014939Y-76471395D01*
X111014899Y-76457294D01*
X111007630Y-76454000D01*
X109362000Y-76454000D01*
X109293879Y-76433998D01*
X109247386Y-76380342D01*
X109236000Y-76328000D01*
X109236000Y-76072000D01*
X109256002Y-76003879D01*
X109309658Y-75957386D01*
X109362000Y-75946000D01*
X111001878Y-75946000D01*
X111015409Y-75942027D01*
X111016544Y-75934129D01*
X110977475Y-75799653D01*
X110977678Y-75728657D01*
X111016232Y-75669041D01*
X111080896Y-75639732D01*
X111098472Y-75638500D01*
X111904340Y-75638500D01*
X111972461Y-75658502D01*
G37*
G04 #@! TD.AperFunction*
G04 #@! TA.AperFunction,Conductor*
G36*
X120083621Y-62758502D02*
G01*
X120130114Y-62812158D01*
X120141500Y-62864500D01*
X120141500Y-63430212D01*
X120121498Y-63498333D01*
X120067842Y-63544826D01*
X119997568Y-63554930D01*
X119932988Y-63525436D01*
X119925677Y-63518151D01*
X119922556Y-63515341D01*
X119917561Y-63509615D01*
X119865280Y-63472871D01*
X119859986Y-63468939D01*
X119815693Y-63434209D01*
X119809718Y-63429524D01*
X119802802Y-63426401D01*
X119800516Y-63425017D01*
X119785835Y-63416643D01*
X119783475Y-63415378D01*
X119777261Y-63411010D01*
X119770182Y-63408250D01*
X119770180Y-63408249D01*
X119717725Y-63387798D01*
X119711656Y-63385247D01*
X119659781Y-63361824D01*
X119619572Y-63330466D01*
X119618752Y-63331287D01*
X119502882Y-63215619D01*
X119497702Y-63210448D01*
X119479818Y-63199424D01*
X119358331Y-63124538D01*
X119358329Y-63124537D01*
X119352101Y-63120698D01*
X119189757Y-63066851D01*
X119182920Y-63066151D01*
X119182918Y-63066150D01*
X119141599Y-63061917D01*
X119088732Y-63056500D01*
X118541268Y-63056500D01*
X118538022Y-63056837D01*
X118538018Y-63056837D01*
X118508730Y-63059876D01*
X118438981Y-63067113D01*
X118430963Y-63069788D01*
X118283676Y-63118927D01*
X118283674Y-63118928D01*
X118276732Y-63121244D01*
X118131287Y-63211248D01*
X118126114Y-63216430D01*
X118120377Y-63220977D01*
X118118945Y-63219170D01*
X118066425Y-63247902D01*
X117995605Y-63242892D01*
X117959147Y-63219501D01*
X117958317Y-63220552D01*
X117941160Y-63207002D01*
X117808120Y-63124996D01*
X117794939Y-63118849D01*
X117646186Y-63069509D01*
X117632810Y-63066642D01*
X117541903Y-63057328D01*
X117536874Y-63057071D01*
X117521876Y-63061475D01*
X117520671Y-63062865D01*
X117519000Y-63070548D01*
X117519000Y-64168000D01*
X117498998Y-64236121D01*
X117445342Y-64282614D01*
X117393000Y-64294000D01*
X116325115Y-64294000D01*
X116309876Y-64298475D01*
X116308671Y-64299865D01*
X116307000Y-64307548D01*
X116307000Y-64335438D01*
X116307337Y-64341953D01*
X116316894Y-64434057D01*
X116319789Y-64447459D01*
X116371431Y-64602254D01*
X116374015Y-64673203D01*
X116337831Y-64734287D01*
X116287481Y-64763003D01*
X116160381Y-64800410D01*
X116154923Y-64803263D01*
X116154919Y-64803265D01*
X116090175Y-64837113D01*
X115985110Y-64892040D01*
X115953450Y-64917495D01*
X115887830Y-64944591D01*
X115817976Y-64931908D01*
X115766067Y-64883472D01*
X115748500Y-64819298D01*
X115748500Y-64468911D01*
X115748792Y-64460342D01*
X115752209Y-64410223D01*
X115752209Y-64410219D01*
X115752725Y-64402647D01*
X115741736Y-64339685D01*
X115740777Y-64333182D01*
X115734015Y-64277302D01*
X115733102Y-64269758D01*
X115730416Y-64262649D01*
X115729784Y-64260078D01*
X115725324Y-64243772D01*
X115724549Y-64241204D01*
X115723242Y-64233716D01*
X115697561Y-64175212D01*
X115695069Y-64169105D01*
X115675173Y-64116452D01*
X115675173Y-64116451D01*
X115672487Y-64109344D01*
X115668184Y-64103083D01*
X115666947Y-64100717D01*
X115658720Y-64085937D01*
X115657369Y-64083652D01*
X115654315Y-64076695D01*
X115649695Y-64070675D01*
X115649692Y-64070669D01*
X115615421Y-64026009D01*
X115611541Y-64020668D01*
X115579661Y-63974280D01*
X115579656Y-63974275D01*
X115575357Y-63968019D01*
X115528829Y-63926564D01*
X115523554Y-63921584D01*
X115369855Y-63767885D01*
X116307000Y-63767885D01*
X116311475Y-63783124D01*
X116312865Y-63784329D01*
X116320548Y-63786000D01*
X116992885Y-63786000D01*
X117008124Y-63781525D01*
X117009329Y-63780135D01*
X117011000Y-63772452D01*
X117011000Y-63075115D01*
X117006525Y-63059876D01*
X117005135Y-63058671D01*
X116997452Y-63057000D01*
X116994562Y-63057000D01*
X116988047Y-63057337D01*
X116895943Y-63066894D01*
X116882544Y-63069788D01*
X116733893Y-63119381D01*
X116720714Y-63125555D01*
X116587827Y-63207788D01*
X116576426Y-63216824D01*
X116466014Y-63327429D01*
X116457002Y-63338840D01*
X116374996Y-63471880D01*
X116368849Y-63485061D01*
X116319509Y-63633814D01*
X116316642Y-63647190D01*
X116307328Y-63738097D01*
X116307000Y-63744514D01*
X116307000Y-63767885D01*
X115369855Y-63767885D01*
X115161450Y-63559480D01*
X115155596Y-63553215D01*
X115148278Y-63544826D01*
X115117561Y-63509615D01*
X115065280Y-63472871D01*
X115059986Y-63468939D01*
X115015693Y-63434209D01*
X115009718Y-63429524D01*
X115002802Y-63426401D01*
X115000516Y-63425017D01*
X114985835Y-63416643D01*
X114983475Y-63415378D01*
X114977261Y-63411010D01*
X114970182Y-63408250D01*
X114970180Y-63408249D01*
X114917725Y-63387798D01*
X114911656Y-63385247D01*
X114853427Y-63358955D01*
X114845960Y-63357571D01*
X114843405Y-63356770D01*
X114827152Y-63352141D01*
X114824572Y-63351478D01*
X114817491Y-63348718D01*
X114809960Y-63347727D01*
X114809958Y-63347726D01*
X114780339Y-63343827D01*
X114754139Y-63340378D01*
X114747641Y-63339348D01*
X114684814Y-63327704D01*
X114677234Y-63328141D01*
X114677233Y-63328141D01*
X114622608Y-63331291D01*
X114615354Y-63331500D01*
X114185710Y-63331500D01*
X114117589Y-63311498D01*
X114096615Y-63294595D01*
X114005381Y-63203361D01*
X113858699Y-63114528D01*
X113851452Y-63112257D01*
X113851450Y-63112256D01*
X113785164Y-63091483D01*
X113695062Y-63063247D01*
X113621635Y-63056500D01*
X113618737Y-63056500D01*
X113364335Y-63056501D01*
X113108366Y-63056501D01*
X113105508Y-63056764D01*
X113105499Y-63056764D01*
X113071630Y-63059876D01*
X113034938Y-63063247D01*
X113028560Y-63065246D01*
X113028559Y-63065246D01*
X112878550Y-63112256D01*
X112878548Y-63112257D01*
X112871301Y-63114528D01*
X112724619Y-63203361D01*
X112629095Y-63298885D01*
X112566783Y-63332911D01*
X112495968Y-63327846D01*
X112450905Y-63298885D01*
X112355381Y-63203361D01*
X112208699Y-63114528D01*
X112201452Y-63112257D01*
X112201450Y-63112256D01*
X112135164Y-63091483D01*
X112045062Y-63063247D01*
X111971635Y-63056500D01*
X111968737Y-63056500D01*
X111714335Y-63056501D01*
X111458366Y-63056501D01*
X111455508Y-63056764D01*
X111455499Y-63056764D01*
X111421630Y-63059876D01*
X111384938Y-63063247D01*
X111378560Y-63065246D01*
X111378559Y-63065246D01*
X111228550Y-63112256D01*
X111228548Y-63112257D01*
X111221301Y-63114528D01*
X111074619Y-63203361D01*
X110983385Y-63294595D01*
X110921073Y-63328621D01*
X110894290Y-63331500D01*
X109785660Y-63331500D01*
X109717539Y-63311498D01*
X109696565Y-63294595D01*
X109421450Y-63019480D01*
X109415596Y-63013215D01*
X109415201Y-63012762D01*
X109377561Y-62969615D01*
X109371346Y-62965247D01*
X109365702Y-62960165D01*
X109367328Y-62958359D01*
X109330447Y-62912061D01*
X109323256Y-62841429D01*
X109355393Y-62778123D01*
X109416654Y-62742240D01*
X109447126Y-62738500D01*
X120015500Y-62738500D01*
X120083621Y-62758502D01*
G37*
G04 #@! TD.AperFunction*
M02*
