M48
; DRILL file {KiCad (6.0.8)} date Sun Apr 23 16:46:22 2023
; FORMAT={-:-/ absolute / metric / decimal}
; #@! TF.CreationDate,2023-04-23T16:46:22+02:00
; #@! TF.GenerationSoftware,Kicad,Pcbnew,(6.0.8)
; #@! TF.FileFunction,Plated,1,2,PTH
FMAT,2
METRIC
; #@! TA.AperFunction,Plated,PTH,ViaDrill
T1C0.600
; #@! TA.AperFunction,Plated,PTH,ComponentDrill
T2C1.000
%
G90
G05
T1
X106.54Y-74.84
X106.54Y-77.54
X106.54Y-80.14
X111.59Y-76.59
X113.24Y-71.04
X115.84Y-63.34
X116.54Y-65.74
X116.54Y-68.54
X116.54Y-69.84
X116.54Y-72.34
X116.74Y-81.04
T2
X104.14Y-63.5
X104.14Y-66.04
X104.14Y-68.58
X104.14Y-71.12
X104.14Y-73.66
X104.14Y-76.2
X104.14Y-78.74
X104.14Y-81.28
X119.38Y-81.28
T0
M30
