%TF.GenerationSoftware,KiCad,Pcbnew,(5.1.9)-1*%
%TF.CreationDate,2021-06-01T13:49:10+02:00*%
%TF.ProjectId,17_CAN_Controller,31375f43-414e-45f4-936f-6e74726f6c6c,rev?*%
%TF.SameCoordinates,Original*%
%TF.FileFunction,Other,Fab,Top*%
%FSLAX46Y46*%
G04 Gerber Fmt 4.6, Leading zero omitted, Abs format (unit mm)*
G04 Created by KiCad (PCBNEW (5.1.9)-1) date 2021-06-01 13:49:10*
%MOMM*%
%LPD*%
G01*
G04 APERTURE LIST*
%TA.AperFunction,Profile*%
%ADD10C,0.050000*%
%TD*%
%ADD11C,0.120000*%
%ADD12C,0.100000*%
%ADD13C,0.150000*%
%ADD14C,0.060000*%
%ADD15C,0.105000*%
G04 APERTURE END LIST*
D10*
X100330000Y-82550000D02*
X120650000Y-82550000D01*
X100330000Y-62230000D02*
X101600000Y-62230000D01*
X100330000Y-64770000D02*
X100330000Y-62230000D01*
X100330000Y-72390000D02*
X100330000Y-67310000D01*
X120650000Y-62230000D02*
X120650000Y-82550000D01*
X101600000Y-62230000D02*
X120650000Y-62230000D01*
X100330000Y-80010000D02*
X100330000Y-82550000D01*
X100330000Y-64770000D02*
X100330000Y-67310000D01*
X100330000Y-80010000D02*
X100330000Y-72390000D01*
D11*
%TO.C,J2*%
X101600000Y-70485000D02*
X101600000Y-66675000D01*
D12*
X104775000Y-69850000D02*
X101600000Y-69850000D01*
X101600000Y-67310000D02*
X102870000Y-67310000D01*
X102870000Y-67310000D02*
X105410000Y-67310000D01*
X105410000Y-67310000D02*
X105410000Y-69215000D01*
X105410000Y-69215000D02*
X104775000Y-69850000D01*
D11*
%TO.C,J3*%
X101600000Y-73025000D02*
X101600000Y-69215000D01*
D12*
X104775000Y-72390000D02*
X101600000Y-72390000D01*
X101600000Y-69850000D02*
X102870000Y-69850000D01*
X102870000Y-69850000D02*
X105410000Y-69850000D01*
X105410000Y-69850000D02*
X105410000Y-71755000D01*
X105410000Y-71755000D02*
X104775000Y-72390000D01*
D11*
%TO.C,J5*%
X101600000Y-65405000D02*
X101600000Y-61595000D01*
D12*
X104775000Y-64770000D02*
X101600000Y-64770000D01*
X101600000Y-62230000D02*
X102870000Y-62230000D01*
X102870000Y-62230000D02*
X105410000Y-62230000D01*
X105410000Y-62230000D02*
X105410000Y-64135000D01*
X105410000Y-64135000D02*
X104775000Y-64770000D01*
D11*
%TO.C,J1*%
X101600000Y-67945000D02*
X101600000Y-64135000D01*
D12*
X104775000Y-67310000D02*
X101600000Y-67310000D01*
X101600000Y-64770000D02*
X102870000Y-64770000D01*
X102870000Y-64770000D02*
X105410000Y-64770000D01*
X105410000Y-64770000D02*
X105410000Y-66675000D01*
X105410000Y-66675000D02*
X104775000Y-67310000D01*
%TO.C,R2*%
X113340000Y-63640000D02*
X113340000Y-64440000D01*
X113340000Y-64440000D02*
X111740000Y-64440000D01*
X111740000Y-64440000D02*
X111740000Y-63640000D01*
X111740000Y-63640000D02*
X113340000Y-63640000D01*
D11*
%TO.C,J8*%
X101600000Y-80645000D02*
X101600000Y-76835000D01*
D12*
X104775000Y-80010000D02*
X101600000Y-80010000D01*
X101600000Y-77470000D02*
X102870000Y-77470000D01*
X102870000Y-77470000D02*
X105410000Y-77470000D01*
X105410000Y-77470000D02*
X105410000Y-79375000D01*
X105410000Y-79375000D02*
X104775000Y-80010000D01*
%TO.C,C1*%
X118840000Y-63640000D02*
X118840000Y-64440000D01*
X118840000Y-64440000D02*
X117240000Y-64440000D01*
X117240000Y-64440000D02*
X117240000Y-63640000D01*
X117240000Y-63640000D02*
X118840000Y-63640000D01*
D11*
%TO.C,J9*%
X101600000Y-83185000D02*
X101600000Y-79375000D01*
D12*
X104775000Y-82550000D02*
X101600000Y-82550000D01*
X101600000Y-80010000D02*
X102870000Y-80010000D01*
X102870000Y-80010000D02*
X105410000Y-80010000D01*
X105410000Y-80010000D02*
X105410000Y-81915000D01*
X105410000Y-81915000D02*
X104775000Y-82550000D01*
%TO.C,C2*%
X110340000Y-78115000D02*
X111140000Y-78115000D01*
X111140000Y-78115000D02*
X111140000Y-79715000D01*
X111140000Y-79715000D02*
X110340000Y-79715000D01*
X110340000Y-79715000D02*
X110340000Y-78115000D01*
%TO.C,C3*%
X116340000Y-78140000D02*
X117140000Y-78140000D01*
X117140000Y-78140000D02*
X117140000Y-79740000D01*
X117140000Y-79740000D02*
X116340000Y-79740000D01*
X116340000Y-79740000D02*
X116340000Y-78140000D01*
D11*
%TO.C,J6*%
X101600000Y-75565000D02*
X101600000Y-71755000D01*
D12*
X104775000Y-74930000D02*
X101600000Y-74930000D01*
X101600000Y-72390000D02*
X102870000Y-72390000D01*
X102870000Y-72390000D02*
X105410000Y-72390000D01*
X105410000Y-72390000D02*
X105410000Y-74295000D01*
X105410000Y-74295000D02*
X104775000Y-74930000D01*
D11*
%TO.C,J7*%
X101600000Y-78105000D02*
X101600000Y-74295000D01*
D12*
X104775000Y-77470000D02*
X101600000Y-77470000D01*
X101600000Y-74930000D02*
X102870000Y-74930000D01*
X102870000Y-74930000D02*
X105410000Y-74930000D01*
X105410000Y-74930000D02*
X105410000Y-76835000D01*
X105410000Y-76835000D02*
X104775000Y-77470000D01*
%TO.C,R1*%
X108527500Y-78115000D02*
X109352500Y-78115000D01*
X109352500Y-78115000D02*
X109352500Y-79715000D01*
X109352500Y-79715000D02*
X108527500Y-79715000D01*
X108527500Y-79715000D02*
X108527500Y-78115000D01*
%TO.C,U1*%
X111390000Y-65345000D02*
X117890000Y-65345000D01*
X117890000Y-65345000D02*
X117890000Y-76895000D01*
X117890000Y-76895000D02*
X110390000Y-76895000D01*
X110390000Y-76895000D02*
X110390000Y-66345000D01*
X110390000Y-66345000D02*
X111390000Y-65345000D01*
%TO.C,Y1*%
X115340000Y-78690000D02*
X114340000Y-77690000D01*
X112140000Y-80190000D02*
X115340000Y-80190000D01*
X112140000Y-77690000D02*
X112140000Y-80190000D01*
X115340000Y-77690000D02*
X112140000Y-77690000D01*
X115340000Y-80190000D02*
X115340000Y-77690000D01*
%TD*%
%TO.C,J2*%
D13*
X91511904Y-68937142D02*
X91464285Y-68984761D01*
X91321428Y-69032380D01*
X91226190Y-69032380D01*
X91083333Y-68984761D01*
X90988095Y-68889523D01*
X90940476Y-68794285D01*
X90892857Y-68603809D01*
X90892857Y-68460952D01*
X90940476Y-68270476D01*
X90988095Y-68175238D01*
X91083333Y-68080000D01*
X91226190Y-68032380D01*
X91321428Y-68032380D01*
X91464285Y-68080000D01*
X91511904Y-68127619D01*
X92083333Y-69032380D02*
X91988095Y-68984761D01*
X91940476Y-68937142D01*
X91892857Y-68841904D01*
X91892857Y-68556190D01*
X91940476Y-68460952D01*
X91988095Y-68413333D01*
X92083333Y-68365714D01*
X92226190Y-68365714D01*
X92321428Y-68413333D01*
X92369047Y-68460952D01*
X92416666Y-68556190D01*
X92416666Y-68841904D01*
X92369047Y-68937142D01*
X92321428Y-68984761D01*
X92226190Y-69032380D01*
X92083333Y-69032380D01*
X92845238Y-68365714D02*
X92845238Y-69032380D01*
X92845238Y-68460952D02*
X92892857Y-68413333D01*
X92988095Y-68365714D01*
X93130952Y-68365714D01*
X93226190Y-68413333D01*
X93273809Y-68508571D01*
X93273809Y-69032380D01*
X93750000Y-68365714D02*
X93750000Y-69032380D01*
X93750000Y-68460952D02*
X93797619Y-68413333D01*
X93892857Y-68365714D01*
X94035714Y-68365714D01*
X94130952Y-68413333D01*
X94178571Y-68508571D01*
X94178571Y-69032380D01*
X94416666Y-69127619D02*
X95178571Y-69127619D01*
X95607142Y-68032380D02*
X95702380Y-68032380D01*
X95797619Y-68080000D01*
X95845238Y-68127619D01*
X95892857Y-68222857D01*
X95940476Y-68413333D01*
X95940476Y-68651428D01*
X95892857Y-68841904D01*
X95845238Y-68937142D01*
X95797619Y-68984761D01*
X95702380Y-69032380D01*
X95607142Y-69032380D01*
X95511904Y-68984761D01*
X95464285Y-68937142D01*
X95416666Y-68841904D01*
X95369047Y-68651428D01*
X95369047Y-68413333D01*
X95416666Y-68222857D01*
X95464285Y-68127619D01*
X95511904Y-68080000D01*
X95607142Y-68032380D01*
X96892857Y-69032380D02*
X96321428Y-69032380D01*
X96607142Y-69032380D02*
X96607142Y-68032380D01*
X96511904Y-68175238D01*
X96416666Y-68270476D01*
X96321428Y-68318095D01*
X97226190Y-69032380D02*
X97750000Y-68365714D01*
X97226190Y-68365714D02*
X97750000Y-69032380D01*
X98321428Y-68032380D02*
X98416666Y-68032380D01*
X98511904Y-68080000D01*
X98559523Y-68127619D01*
X98607142Y-68222857D01*
X98654761Y-68413333D01*
X98654761Y-68651428D01*
X98607142Y-68841904D01*
X98559523Y-68937142D01*
X98511904Y-68984761D01*
X98416666Y-69032380D01*
X98321428Y-69032380D01*
X98226190Y-68984761D01*
X98178571Y-68937142D01*
X98130952Y-68841904D01*
X98083333Y-68651428D01*
X98083333Y-68413333D01*
X98130952Y-68222857D01*
X98178571Y-68127619D01*
X98226190Y-68080000D01*
X98321428Y-68032380D01*
X99607142Y-69032380D02*
X99035714Y-69032380D01*
X99321428Y-69032380D02*
X99321428Y-68032380D01*
X99226190Y-68175238D01*
X99130952Y-68270476D01*
X99035714Y-68318095D01*
X103806666Y-68032380D02*
X103806666Y-68746666D01*
X103759047Y-68889523D01*
X103663809Y-68984761D01*
X103520952Y-69032380D01*
X103425714Y-69032380D01*
X104235238Y-68127619D02*
X104282857Y-68080000D01*
X104378095Y-68032380D01*
X104616190Y-68032380D01*
X104711428Y-68080000D01*
X104759047Y-68127619D01*
X104806666Y-68222857D01*
X104806666Y-68318095D01*
X104759047Y-68460952D01*
X104187619Y-69032380D01*
X104806666Y-69032380D01*
%TO.C,J3*%
X91511904Y-71477142D02*
X91464285Y-71524761D01*
X91321428Y-71572380D01*
X91226190Y-71572380D01*
X91083333Y-71524761D01*
X90988095Y-71429523D01*
X90940476Y-71334285D01*
X90892857Y-71143809D01*
X90892857Y-71000952D01*
X90940476Y-70810476D01*
X90988095Y-70715238D01*
X91083333Y-70620000D01*
X91226190Y-70572380D01*
X91321428Y-70572380D01*
X91464285Y-70620000D01*
X91511904Y-70667619D01*
X92083333Y-71572380D02*
X91988095Y-71524761D01*
X91940476Y-71477142D01*
X91892857Y-71381904D01*
X91892857Y-71096190D01*
X91940476Y-71000952D01*
X91988095Y-70953333D01*
X92083333Y-70905714D01*
X92226190Y-70905714D01*
X92321428Y-70953333D01*
X92369047Y-71000952D01*
X92416666Y-71096190D01*
X92416666Y-71381904D01*
X92369047Y-71477142D01*
X92321428Y-71524761D01*
X92226190Y-71572380D01*
X92083333Y-71572380D01*
X92845238Y-70905714D02*
X92845238Y-71572380D01*
X92845238Y-71000952D02*
X92892857Y-70953333D01*
X92988095Y-70905714D01*
X93130952Y-70905714D01*
X93226190Y-70953333D01*
X93273809Y-71048571D01*
X93273809Y-71572380D01*
X93750000Y-70905714D02*
X93750000Y-71572380D01*
X93750000Y-71000952D02*
X93797619Y-70953333D01*
X93892857Y-70905714D01*
X94035714Y-70905714D01*
X94130952Y-70953333D01*
X94178571Y-71048571D01*
X94178571Y-71572380D01*
X94416666Y-71667619D02*
X95178571Y-71667619D01*
X95607142Y-70572380D02*
X95702380Y-70572380D01*
X95797619Y-70620000D01*
X95845238Y-70667619D01*
X95892857Y-70762857D01*
X95940476Y-70953333D01*
X95940476Y-71191428D01*
X95892857Y-71381904D01*
X95845238Y-71477142D01*
X95797619Y-71524761D01*
X95702380Y-71572380D01*
X95607142Y-71572380D01*
X95511904Y-71524761D01*
X95464285Y-71477142D01*
X95416666Y-71381904D01*
X95369047Y-71191428D01*
X95369047Y-70953333D01*
X95416666Y-70762857D01*
X95464285Y-70667619D01*
X95511904Y-70620000D01*
X95607142Y-70572380D01*
X96892857Y-71572380D02*
X96321428Y-71572380D01*
X96607142Y-71572380D02*
X96607142Y-70572380D01*
X96511904Y-70715238D01*
X96416666Y-70810476D01*
X96321428Y-70858095D01*
X97226190Y-71572380D02*
X97750000Y-70905714D01*
X97226190Y-70905714D02*
X97750000Y-71572380D01*
X98321428Y-70572380D02*
X98416666Y-70572380D01*
X98511904Y-70620000D01*
X98559523Y-70667619D01*
X98607142Y-70762857D01*
X98654761Y-70953333D01*
X98654761Y-71191428D01*
X98607142Y-71381904D01*
X98559523Y-71477142D01*
X98511904Y-71524761D01*
X98416666Y-71572380D01*
X98321428Y-71572380D01*
X98226190Y-71524761D01*
X98178571Y-71477142D01*
X98130952Y-71381904D01*
X98083333Y-71191428D01*
X98083333Y-70953333D01*
X98130952Y-70762857D01*
X98178571Y-70667619D01*
X98226190Y-70620000D01*
X98321428Y-70572380D01*
X99607142Y-71572380D02*
X99035714Y-71572380D01*
X99321428Y-71572380D02*
X99321428Y-70572380D01*
X99226190Y-70715238D01*
X99130952Y-70810476D01*
X99035714Y-70858095D01*
X103806666Y-70572380D02*
X103806666Y-71286666D01*
X103759047Y-71429523D01*
X103663809Y-71524761D01*
X103520952Y-71572380D01*
X103425714Y-71572380D01*
X104187619Y-70572380D02*
X104806666Y-70572380D01*
X104473333Y-70953333D01*
X104616190Y-70953333D01*
X104711428Y-71000952D01*
X104759047Y-71048571D01*
X104806666Y-71143809D01*
X104806666Y-71381904D01*
X104759047Y-71477142D01*
X104711428Y-71524761D01*
X104616190Y-71572380D01*
X104330476Y-71572380D01*
X104235238Y-71524761D01*
X104187619Y-71477142D01*
%TO.C,J5*%
X91511904Y-63857142D02*
X91464285Y-63904761D01*
X91321428Y-63952380D01*
X91226190Y-63952380D01*
X91083333Y-63904761D01*
X90988095Y-63809523D01*
X90940476Y-63714285D01*
X90892857Y-63523809D01*
X90892857Y-63380952D01*
X90940476Y-63190476D01*
X90988095Y-63095238D01*
X91083333Y-63000000D01*
X91226190Y-62952380D01*
X91321428Y-62952380D01*
X91464285Y-63000000D01*
X91511904Y-63047619D01*
X92083333Y-63952380D02*
X91988095Y-63904761D01*
X91940476Y-63857142D01*
X91892857Y-63761904D01*
X91892857Y-63476190D01*
X91940476Y-63380952D01*
X91988095Y-63333333D01*
X92083333Y-63285714D01*
X92226190Y-63285714D01*
X92321428Y-63333333D01*
X92369047Y-63380952D01*
X92416666Y-63476190D01*
X92416666Y-63761904D01*
X92369047Y-63857142D01*
X92321428Y-63904761D01*
X92226190Y-63952380D01*
X92083333Y-63952380D01*
X92845238Y-63285714D02*
X92845238Y-63952380D01*
X92845238Y-63380952D02*
X92892857Y-63333333D01*
X92988095Y-63285714D01*
X93130952Y-63285714D01*
X93226190Y-63333333D01*
X93273809Y-63428571D01*
X93273809Y-63952380D01*
X93750000Y-63285714D02*
X93750000Y-63952380D01*
X93750000Y-63380952D02*
X93797619Y-63333333D01*
X93892857Y-63285714D01*
X94035714Y-63285714D01*
X94130952Y-63333333D01*
X94178571Y-63428571D01*
X94178571Y-63952380D01*
X94416666Y-64047619D02*
X95178571Y-64047619D01*
X95607142Y-62952380D02*
X95702380Y-62952380D01*
X95797619Y-63000000D01*
X95845238Y-63047619D01*
X95892857Y-63142857D01*
X95940476Y-63333333D01*
X95940476Y-63571428D01*
X95892857Y-63761904D01*
X95845238Y-63857142D01*
X95797619Y-63904761D01*
X95702380Y-63952380D01*
X95607142Y-63952380D01*
X95511904Y-63904761D01*
X95464285Y-63857142D01*
X95416666Y-63761904D01*
X95369047Y-63571428D01*
X95369047Y-63333333D01*
X95416666Y-63142857D01*
X95464285Y-63047619D01*
X95511904Y-63000000D01*
X95607142Y-62952380D01*
X96892857Y-63952380D02*
X96321428Y-63952380D01*
X96607142Y-63952380D02*
X96607142Y-62952380D01*
X96511904Y-63095238D01*
X96416666Y-63190476D01*
X96321428Y-63238095D01*
X97226190Y-63952380D02*
X97750000Y-63285714D01*
X97226190Y-63285714D02*
X97750000Y-63952380D01*
X98321428Y-62952380D02*
X98416666Y-62952380D01*
X98511904Y-63000000D01*
X98559523Y-63047619D01*
X98607142Y-63142857D01*
X98654761Y-63333333D01*
X98654761Y-63571428D01*
X98607142Y-63761904D01*
X98559523Y-63857142D01*
X98511904Y-63904761D01*
X98416666Y-63952380D01*
X98321428Y-63952380D01*
X98226190Y-63904761D01*
X98178571Y-63857142D01*
X98130952Y-63761904D01*
X98083333Y-63571428D01*
X98083333Y-63333333D01*
X98130952Y-63142857D01*
X98178571Y-63047619D01*
X98226190Y-63000000D01*
X98321428Y-62952380D01*
X99607142Y-63952380D02*
X99035714Y-63952380D01*
X99321428Y-63952380D02*
X99321428Y-62952380D01*
X99226190Y-63095238D01*
X99130952Y-63190476D01*
X99035714Y-63238095D01*
X103806666Y-62952380D02*
X103806666Y-63666666D01*
X103759047Y-63809523D01*
X103663809Y-63904761D01*
X103520952Y-63952380D01*
X103425714Y-63952380D01*
X104759047Y-62952380D02*
X104282857Y-62952380D01*
X104235238Y-63428571D01*
X104282857Y-63380952D01*
X104378095Y-63333333D01*
X104616190Y-63333333D01*
X104711428Y-63380952D01*
X104759047Y-63428571D01*
X104806666Y-63523809D01*
X104806666Y-63761904D01*
X104759047Y-63857142D01*
X104711428Y-63904761D01*
X104616190Y-63952380D01*
X104378095Y-63952380D01*
X104282857Y-63904761D01*
X104235238Y-63857142D01*
%TO.C,J1*%
X91511904Y-66397142D02*
X91464285Y-66444761D01*
X91321428Y-66492380D01*
X91226190Y-66492380D01*
X91083333Y-66444761D01*
X90988095Y-66349523D01*
X90940476Y-66254285D01*
X90892857Y-66063809D01*
X90892857Y-65920952D01*
X90940476Y-65730476D01*
X90988095Y-65635238D01*
X91083333Y-65540000D01*
X91226190Y-65492380D01*
X91321428Y-65492380D01*
X91464285Y-65540000D01*
X91511904Y-65587619D01*
X92083333Y-66492380D02*
X91988095Y-66444761D01*
X91940476Y-66397142D01*
X91892857Y-66301904D01*
X91892857Y-66016190D01*
X91940476Y-65920952D01*
X91988095Y-65873333D01*
X92083333Y-65825714D01*
X92226190Y-65825714D01*
X92321428Y-65873333D01*
X92369047Y-65920952D01*
X92416666Y-66016190D01*
X92416666Y-66301904D01*
X92369047Y-66397142D01*
X92321428Y-66444761D01*
X92226190Y-66492380D01*
X92083333Y-66492380D01*
X92845238Y-65825714D02*
X92845238Y-66492380D01*
X92845238Y-65920952D02*
X92892857Y-65873333D01*
X92988095Y-65825714D01*
X93130952Y-65825714D01*
X93226190Y-65873333D01*
X93273809Y-65968571D01*
X93273809Y-66492380D01*
X93750000Y-65825714D02*
X93750000Y-66492380D01*
X93750000Y-65920952D02*
X93797619Y-65873333D01*
X93892857Y-65825714D01*
X94035714Y-65825714D01*
X94130952Y-65873333D01*
X94178571Y-65968571D01*
X94178571Y-66492380D01*
X94416666Y-66587619D02*
X95178571Y-66587619D01*
X95607142Y-65492380D02*
X95702380Y-65492380D01*
X95797619Y-65540000D01*
X95845238Y-65587619D01*
X95892857Y-65682857D01*
X95940476Y-65873333D01*
X95940476Y-66111428D01*
X95892857Y-66301904D01*
X95845238Y-66397142D01*
X95797619Y-66444761D01*
X95702380Y-66492380D01*
X95607142Y-66492380D01*
X95511904Y-66444761D01*
X95464285Y-66397142D01*
X95416666Y-66301904D01*
X95369047Y-66111428D01*
X95369047Y-65873333D01*
X95416666Y-65682857D01*
X95464285Y-65587619D01*
X95511904Y-65540000D01*
X95607142Y-65492380D01*
X96892857Y-66492380D02*
X96321428Y-66492380D01*
X96607142Y-66492380D02*
X96607142Y-65492380D01*
X96511904Y-65635238D01*
X96416666Y-65730476D01*
X96321428Y-65778095D01*
X97226190Y-66492380D02*
X97750000Y-65825714D01*
X97226190Y-65825714D02*
X97750000Y-66492380D01*
X98321428Y-65492380D02*
X98416666Y-65492380D01*
X98511904Y-65540000D01*
X98559523Y-65587619D01*
X98607142Y-65682857D01*
X98654761Y-65873333D01*
X98654761Y-66111428D01*
X98607142Y-66301904D01*
X98559523Y-66397142D01*
X98511904Y-66444761D01*
X98416666Y-66492380D01*
X98321428Y-66492380D01*
X98226190Y-66444761D01*
X98178571Y-66397142D01*
X98130952Y-66301904D01*
X98083333Y-66111428D01*
X98083333Y-65873333D01*
X98130952Y-65682857D01*
X98178571Y-65587619D01*
X98226190Y-65540000D01*
X98321428Y-65492380D01*
X99607142Y-66492380D02*
X99035714Y-66492380D01*
X99321428Y-66492380D02*
X99321428Y-65492380D01*
X99226190Y-65635238D01*
X99130952Y-65730476D01*
X99035714Y-65778095D01*
X103806666Y-65492380D02*
X103806666Y-66206666D01*
X103759047Y-66349523D01*
X103663809Y-66444761D01*
X103520952Y-66492380D01*
X103425714Y-66492380D01*
X104806666Y-66492380D02*
X104235238Y-66492380D01*
X104520952Y-66492380D02*
X104520952Y-65492380D01*
X104425714Y-65635238D01*
X104330476Y-65730476D01*
X104235238Y-65778095D01*
%TO.C,R2*%
X111468571Y-63062380D02*
X110897142Y-63062380D01*
X111182857Y-63062380D02*
X111182857Y-62062380D01*
X111087619Y-62205238D01*
X110992380Y-62300476D01*
X110897142Y-62348095D01*
X112087619Y-62062380D02*
X112182857Y-62062380D01*
X112278095Y-62110000D01*
X112325714Y-62157619D01*
X112373333Y-62252857D01*
X112420952Y-62443333D01*
X112420952Y-62681428D01*
X112373333Y-62871904D01*
X112325714Y-62967142D01*
X112278095Y-63014761D01*
X112182857Y-63062380D01*
X112087619Y-63062380D01*
X111992380Y-63014761D01*
X111944761Y-62967142D01*
X111897142Y-62871904D01*
X111849523Y-62681428D01*
X111849523Y-62443333D01*
X111897142Y-62252857D01*
X111944761Y-62157619D01*
X111992380Y-62110000D01*
X112087619Y-62062380D01*
X113040000Y-62062380D02*
X113135238Y-62062380D01*
X113230476Y-62110000D01*
X113278095Y-62157619D01*
X113325714Y-62252857D01*
X113373333Y-62443333D01*
X113373333Y-62681428D01*
X113325714Y-62871904D01*
X113278095Y-62967142D01*
X113230476Y-63014761D01*
X113135238Y-63062380D01*
X113040000Y-63062380D01*
X112944761Y-63014761D01*
X112897142Y-62967142D01*
X112849523Y-62871904D01*
X112801904Y-62681428D01*
X112801904Y-62443333D01*
X112849523Y-62252857D01*
X112897142Y-62157619D01*
X112944761Y-62110000D01*
X113040000Y-62062380D01*
X113801904Y-63062380D02*
X113801904Y-62062380D01*
X113897142Y-62681428D02*
X114182857Y-63062380D01*
X114182857Y-62395714D02*
X113801904Y-62776666D01*
D14*
X112473333Y-64220952D02*
X112340000Y-64030476D01*
X112244761Y-64220952D02*
X112244761Y-63820952D01*
X112397142Y-63820952D01*
X112435238Y-63840000D01*
X112454285Y-63859047D01*
X112473333Y-63897142D01*
X112473333Y-63954285D01*
X112454285Y-63992380D01*
X112435238Y-64011428D01*
X112397142Y-64030476D01*
X112244761Y-64030476D01*
X112625714Y-63859047D02*
X112644761Y-63840000D01*
X112682857Y-63820952D01*
X112778095Y-63820952D01*
X112816190Y-63840000D01*
X112835238Y-63859047D01*
X112854285Y-63897142D01*
X112854285Y-63935238D01*
X112835238Y-63992380D01*
X112606666Y-64220952D01*
X112854285Y-64220952D01*
%TO.C,J8*%
D13*
X91511904Y-79097142D02*
X91464285Y-79144761D01*
X91321428Y-79192380D01*
X91226190Y-79192380D01*
X91083333Y-79144761D01*
X90988095Y-79049523D01*
X90940476Y-78954285D01*
X90892857Y-78763809D01*
X90892857Y-78620952D01*
X90940476Y-78430476D01*
X90988095Y-78335238D01*
X91083333Y-78240000D01*
X91226190Y-78192380D01*
X91321428Y-78192380D01*
X91464285Y-78240000D01*
X91511904Y-78287619D01*
X92083333Y-79192380D02*
X91988095Y-79144761D01*
X91940476Y-79097142D01*
X91892857Y-79001904D01*
X91892857Y-78716190D01*
X91940476Y-78620952D01*
X91988095Y-78573333D01*
X92083333Y-78525714D01*
X92226190Y-78525714D01*
X92321428Y-78573333D01*
X92369047Y-78620952D01*
X92416666Y-78716190D01*
X92416666Y-79001904D01*
X92369047Y-79097142D01*
X92321428Y-79144761D01*
X92226190Y-79192380D01*
X92083333Y-79192380D01*
X92845238Y-78525714D02*
X92845238Y-79192380D01*
X92845238Y-78620952D02*
X92892857Y-78573333D01*
X92988095Y-78525714D01*
X93130952Y-78525714D01*
X93226190Y-78573333D01*
X93273809Y-78668571D01*
X93273809Y-79192380D01*
X93750000Y-78525714D02*
X93750000Y-79192380D01*
X93750000Y-78620952D02*
X93797619Y-78573333D01*
X93892857Y-78525714D01*
X94035714Y-78525714D01*
X94130952Y-78573333D01*
X94178571Y-78668571D01*
X94178571Y-79192380D01*
X94416666Y-79287619D02*
X95178571Y-79287619D01*
X95607142Y-78192380D02*
X95702380Y-78192380D01*
X95797619Y-78240000D01*
X95845238Y-78287619D01*
X95892857Y-78382857D01*
X95940476Y-78573333D01*
X95940476Y-78811428D01*
X95892857Y-79001904D01*
X95845238Y-79097142D01*
X95797619Y-79144761D01*
X95702380Y-79192380D01*
X95607142Y-79192380D01*
X95511904Y-79144761D01*
X95464285Y-79097142D01*
X95416666Y-79001904D01*
X95369047Y-78811428D01*
X95369047Y-78573333D01*
X95416666Y-78382857D01*
X95464285Y-78287619D01*
X95511904Y-78240000D01*
X95607142Y-78192380D01*
X96892857Y-79192380D02*
X96321428Y-79192380D01*
X96607142Y-79192380D02*
X96607142Y-78192380D01*
X96511904Y-78335238D01*
X96416666Y-78430476D01*
X96321428Y-78478095D01*
X97226190Y-79192380D02*
X97750000Y-78525714D01*
X97226190Y-78525714D02*
X97750000Y-79192380D01*
X98321428Y-78192380D02*
X98416666Y-78192380D01*
X98511904Y-78240000D01*
X98559523Y-78287619D01*
X98607142Y-78382857D01*
X98654761Y-78573333D01*
X98654761Y-78811428D01*
X98607142Y-79001904D01*
X98559523Y-79097142D01*
X98511904Y-79144761D01*
X98416666Y-79192380D01*
X98321428Y-79192380D01*
X98226190Y-79144761D01*
X98178571Y-79097142D01*
X98130952Y-79001904D01*
X98083333Y-78811428D01*
X98083333Y-78573333D01*
X98130952Y-78382857D01*
X98178571Y-78287619D01*
X98226190Y-78240000D01*
X98321428Y-78192380D01*
X99607142Y-79192380D02*
X99035714Y-79192380D01*
X99321428Y-79192380D02*
X99321428Y-78192380D01*
X99226190Y-78335238D01*
X99130952Y-78430476D01*
X99035714Y-78478095D01*
X103806666Y-78192380D02*
X103806666Y-78906666D01*
X103759047Y-79049523D01*
X103663809Y-79144761D01*
X103520952Y-79192380D01*
X103425714Y-79192380D01*
X104425714Y-78620952D02*
X104330476Y-78573333D01*
X104282857Y-78525714D01*
X104235238Y-78430476D01*
X104235238Y-78382857D01*
X104282857Y-78287619D01*
X104330476Y-78240000D01*
X104425714Y-78192380D01*
X104616190Y-78192380D01*
X104711428Y-78240000D01*
X104759047Y-78287619D01*
X104806666Y-78382857D01*
X104806666Y-78430476D01*
X104759047Y-78525714D01*
X104711428Y-78573333D01*
X104616190Y-78620952D01*
X104425714Y-78620952D01*
X104330476Y-78668571D01*
X104282857Y-78716190D01*
X104235238Y-78811428D01*
X104235238Y-79001904D01*
X104282857Y-79097142D01*
X104330476Y-79144761D01*
X104425714Y-79192380D01*
X104616190Y-79192380D01*
X104711428Y-79144761D01*
X104759047Y-79097142D01*
X104806666Y-79001904D01*
X104806666Y-78811428D01*
X104759047Y-78716190D01*
X104711428Y-78668571D01*
X104616190Y-78620952D01*
%TO.C,C1*%
X116492380Y-63062380D02*
X115920952Y-63062380D01*
X116206666Y-63062380D02*
X116206666Y-62062380D01*
X116111428Y-62205238D01*
X116016190Y-62300476D01*
X115920952Y-62348095D01*
X117111428Y-62062380D02*
X117206666Y-62062380D01*
X117301904Y-62110000D01*
X117349523Y-62157619D01*
X117397142Y-62252857D01*
X117444761Y-62443333D01*
X117444761Y-62681428D01*
X117397142Y-62871904D01*
X117349523Y-62967142D01*
X117301904Y-63014761D01*
X117206666Y-63062380D01*
X117111428Y-63062380D01*
X117016190Y-63014761D01*
X116968571Y-62967142D01*
X116920952Y-62871904D01*
X116873333Y-62681428D01*
X116873333Y-62443333D01*
X116920952Y-62252857D01*
X116968571Y-62157619D01*
X117016190Y-62110000D01*
X117111428Y-62062380D01*
X118063809Y-62062380D02*
X118159047Y-62062380D01*
X118254285Y-62110000D01*
X118301904Y-62157619D01*
X118349523Y-62252857D01*
X118397142Y-62443333D01*
X118397142Y-62681428D01*
X118349523Y-62871904D01*
X118301904Y-62967142D01*
X118254285Y-63014761D01*
X118159047Y-63062380D01*
X118063809Y-63062380D01*
X117968571Y-63014761D01*
X117920952Y-62967142D01*
X117873333Y-62871904D01*
X117825714Y-62681428D01*
X117825714Y-62443333D01*
X117873333Y-62252857D01*
X117920952Y-62157619D01*
X117968571Y-62110000D01*
X118063809Y-62062380D01*
X118825714Y-62395714D02*
X118825714Y-63062380D01*
X118825714Y-62490952D02*
X118873333Y-62443333D01*
X118968571Y-62395714D01*
X119111428Y-62395714D01*
X119206666Y-62443333D01*
X119254285Y-62538571D01*
X119254285Y-63062380D01*
X120063809Y-62538571D02*
X119730476Y-62538571D01*
X119730476Y-63062380D02*
X119730476Y-62062380D01*
X120206666Y-62062380D01*
D14*
X117973333Y-64182857D02*
X117954285Y-64201904D01*
X117897142Y-64220952D01*
X117859047Y-64220952D01*
X117801904Y-64201904D01*
X117763809Y-64163809D01*
X117744761Y-64125714D01*
X117725714Y-64049523D01*
X117725714Y-63992380D01*
X117744761Y-63916190D01*
X117763809Y-63878095D01*
X117801904Y-63840000D01*
X117859047Y-63820952D01*
X117897142Y-63820952D01*
X117954285Y-63840000D01*
X117973333Y-63859047D01*
X118354285Y-64220952D02*
X118125714Y-64220952D01*
X118240000Y-64220952D02*
X118240000Y-63820952D01*
X118201904Y-63878095D01*
X118163809Y-63916190D01*
X118125714Y-63935238D01*
%TO.C,J9*%
D13*
X91511904Y-81637142D02*
X91464285Y-81684761D01*
X91321428Y-81732380D01*
X91226190Y-81732380D01*
X91083333Y-81684761D01*
X90988095Y-81589523D01*
X90940476Y-81494285D01*
X90892857Y-81303809D01*
X90892857Y-81160952D01*
X90940476Y-80970476D01*
X90988095Y-80875238D01*
X91083333Y-80780000D01*
X91226190Y-80732380D01*
X91321428Y-80732380D01*
X91464285Y-80780000D01*
X91511904Y-80827619D01*
X92083333Y-81732380D02*
X91988095Y-81684761D01*
X91940476Y-81637142D01*
X91892857Y-81541904D01*
X91892857Y-81256190D01*
X91940476Y-81160952D01*
X91988095Y-81113333D01*
X92083333Y-81065714D01*
X92226190Y-81065714D01*
X92321428Y-81113333D01*
X92369047Y-81160952D01*
X92416666Y-81256190D01*
X92416666Y-81541904D01*
X92369047Y-81637142D01*
X92321428Y-81684761D01*
X92226190Y-81732380D01*
X92083333Y-81732380D01*
X92845238Y-81065714D02*
X92845238Y-81732380D01*
X92845238Y-81160952D02*
X92892857Y-81113333D01*
X92988095Y-81065714D01*
X93130952Y-81065714D01*
X93226190Y-81113333D01*
X93273809Y-81208571D01*
X93273809Y-81732380D01*
X93750000Y-81065714D02*
X93750000Y-81732380D01*
X93750000Y-81160952D02*
X93797619Y-81113333D01*
X93892857Y-81065714D01*
X94035714Y-81065714D01*
X94130952Y-81113333D01*
X94178571Y-81208571D01*
X94178571Y-81732380D01*
X94416666Y-81827619D02*
X95178571Y-81827619D01*
X95607142Y-80732380D02*
X95702380Y-80732380D01*
X95797619Y-80780000D01*
X95845238Y-80827619D01*
X95892857Y-80922857D01*
X95940476Y-81113333D01*
X95940476Y-81351428D01*
X95892857Y-81541904D01*
X95845238Y-81637142D01*
X95797619Y-81684761D01*
X95702380Y-81732380D01*
X95607142Y-81732380D01*
X95511904Y-81684761D01*
X95464285Y-81637142D01*
X95416666Y-81541904D01*
X95369047Y-81351428D01*
X95369047Y-81113333D01*
X95416666Y-80922857D01*
X95464285Y-80827619D01*
X95511904Y-80780000D01*
X95607142Y-80732380D01*
X96892857Y-81732380D02*
X96321428Y-81732380D01*
X96607142Y-81732380D02*
X96607142Y-80732380D01*
X96511904Y-80875238D01*
X96416666Y-80970476D01*
X96321428Y-81018095D01*
X97226190Y-81732380D02*
X97750000Y-81065714D01*
X97226190Y-81065714D02*
X97750000Y-81732380D01*
X98321428Y-80732380D02*
X98416666Y-80732380D01*
X98511904Y-80780000D01*
X98559523Y-80827619D01*
X98607142Y-80922857D01*
X98654761Y-81113333D01*
X98654761Y-81351428D01*
X98607142Y-81541904D01*
X98559523Y-81637142D01*
X98511904Y-81684761D01*
X98416666Y-81732380D01*
X98321428Y-81732380D01*
X98226190Y-81684761D01*
X98178571Y-81637142D01*
X98130952Y-81541904D01*
X98083333Y-81351428D01*
X98083333Y-81113333D01*
X98130952Y-80922857D01*
X98178571Y-80827619D01*
X98226190Y-80780000D01*
X98321428Y-80732380D01*
X99607142Y-81732380D02*
X99035714Y-81732380D01*
X99321428Y-81732380D02*
X99321428Y-80732380D01*
X99226190Y-80875238D01*
X99130952Y-80970476D01*
X99035714Y-81018095D01*
X103806666Y-80732380D02*
X103806666Y-81446666D01*
X103759047Y-81589523D01*
X103663809Y-81684761D01*
X103520952Y-81732380D01*
X103425714Y-81732380D01*
X104330476Y-81732380D02*
X104520952Y-81732380D01*
X104616190Y-81684761D01*
X104663809Y-81637142D01*
X104759047Y-81494285D01*
X104806666Y-81303809D01*
X104806666Y-80922857D01*
X104759047Y-80827619D01*
X104711428Y-80780000D01*
X104616190Y-80732380D01*
X104425714Y-80732380D01*
X104330476Y-80780000D01*
X104282857Y-80827619D01*
X104235238Y-80922857D01*
X104235238Y-81160952D01*
X104282857Y-81256190D01*
X104330476Y-81303809D01*
X104425714Y-81351428D01*
X104616190Y-81351428D01*
X104711428Y-81303809D01*
X104759047Y-81256190D01*
X104806666Y-81160952D01*
%TO.C,C2*%
X108857619Y-80557857D02*
X108810000Y-80510238D01*
X108762380Y-80415000D01*
X108762380Y-80176904D01*
X108810000Y-80081666D01*
X108857619Y-80034047D01*
X108952857Y-79986428D01*
X109048095Y-79986428D01*
X109190952Y-80034047D01*
X109762380Y-80605476D01*
X109762380Y-79986428D01*
X108857619Y-79605476D02*
X108810000Y-79557857D01*
X108762380Y-79462619D01*
X108762380Y-79224523D01*
X108810000Y-79129285D01*
X108857619Y-79081666D01*
X108952857Y-79034047D01*
X109048095Y-79034047D01*
X109190952Y-79081666D01*
X109762380Y-79653095D01*
X109762380Y-79034047D01*
X109095714Y-78605476D02*
X110095714Y-78605476D01*
X109143333Y-78605476D02*
X109095714Y-78510238D01*
X109095714Y-78319761D01*
X109143333Y-78224523D01*
X109190952Y-78176904D01*
X109286190Y-78129285D01*
X109571904Y-78129285D01*
X109667142Y-78176904D01*
X109714761Y-78224523D01*
X109762380Y-78319761D01*
X109762380Y-78510238D01*
X109714761Y-78605476D01*
X109238571Y-77367380D02*
X109238571Y-77700714D01*
X109762380Y-77700714D02*
X108762380Y-77700714D01*
X108762380Y-77224523D01*
D14*
X110882857Y-78981666D02*
X110901904Y-79000714D01*
X110920952Y-79057857D01*
X110920952Y-79095952D01*
X110901904Y-79153095D01*
X110863809Y-79191190D01*
X110825714Y-79210238D01*
X110749523Y-79229285D01*
X110692380Y-79229285D01*
X110616190Y-79210238D01*
X110578095Y-79191190D01*
X110540000Y-79153095D01*
X110520952Y-79095952D01*
X110520952Y-79057857D01*
X110540000Y-79000714D01*
X110559047Y-78981666D01*
X110559047Y-78829285D02*
X110540000Y-78810238D01*
X110520952Y-78772142D01*
X110520952Y-78676904D01*
X110540000Y-78638809D01*
X110559047Y-78619761D01*
X110597142Y-78600714D01*
X110635238Y-78600714D01*
X110692380Y-78619761D01*
X110920952Y-78848333D01*
X110920952Y-78600714D01*
%TO.C,C3*%
D13*
X114857619Y-80582857D02*
X114810000Y-80535238D01*
X114762380Y-80440000D01*
X114762380Y-80201904D01*
X114810000Y-80106666D01*
X114857619Y-80059047D01*
X114952857Y-80011428D01*
X115048095Y-80011428D01*
X115190952Y-80059047D01*
X115762380Y-80630476D01*
X115762380Y-80011428D01*
X114857619Y-79630476D02*
X114810000Y-79582857D01*
X114762380Y-79487619D01*
X114762380Y-79249523D01*
X114810000Y-79154285D01*
X114857619Y-79106666D01*
X114952857Y-79059047D01*
X115048095Y-79059047D01*
X115190952Y-79106666D01*
X115762380Y-79678095D01*
X115762380Y-79059047D01*
X115095714Y-78630476D02*
X116095714Y-78630476D01*
X115143333Y-78630476D02*
X115095714Y-78535238D01*
X115095714Y-78344761D01*
X115143333Y-78249523D01*
X115190952Y-78201904D01*
X115286190Y-78154285D01*
X115571904Y-78154285D01*
X115667142Y-78201904D01*
X115714761Y-78249523D01*
X115762380Y-78344761D01*
X115762380Y-78535238D01*
X115714761Y-78630476D01*
X115238571Y-77392380D02*
X115238571Y-77725714D01*
X115762380Y-77725714D02*
X114762380Y-77725714D01*
X114762380Y-77249523D01*
D14*
X116882857Y-79006666D02*
X116901904Y-79025714D01*
X116920952Y-79082857D01*
X116920952Y-79120952D01*
X116901904Y-79178095D01*
X116863809Y-79216190D01*
X116825714Y-79235238D01*
X116749523Y-79254285D01*
X116692380Y-79254285D01*
X116616190Y-79235238D01*
X116578095Y-79216190D01*
X116540000Y-79178095D01*
X116520952Y-79120952D01*
X116520952Y-79082857D01*
X116540000Y-79025714D01*
X116559047Y-79006666D01*
X116520952Y-78873333D02*
X116520952Y-78625714D01*
X116673333Y-78759047D01*
X116673333Y-78701904D01*
X116692380Y-78663809D01*
X116711428Y-78644761D01*
X116749523Y-78625714D01*
X116844761Y-78625714D01*
X116882857Y-78644761D01*
X116901904Y-78663809D01*
X116920952Y-78701904D01*
X116920952Y-78816190D01*
X116901904Y-78854285D01*
X116882857Y-78873333D01*
%TO.C,J6*%
D13*
X91511904Y-74017142D02*
X91464285Y-74064761D01*
X91321428Y-74112380D01*
X91226190Y-74112380D01*
X91083333Y-74064761D01*
X90988095Y-73969523D01*
X90940476Y-73874285D01*
X90892857Y-73683809D01*
X90892857Y-73540952D01*
X90940476Y-73350476D01*
X90988095Y-73255238D01*
X91083333Y-73160000D01*
X91226190Y-73112380D01*
X91321428Y-73112380D01*
X91464285Y-73160000D01*
X91511904Y-73207619D01*
X92083333Y-74112380D02*
X91988095Y-74064761D01*
X91940476Y-74017142D01*
X91892857Y-73921904D01*
X91892857Y-73636190D01*
X91940476Y-73540952D01*
X91988095Y-73493333D01*
X92083333Y-73445714D01*
X92226190Y-73445714D01*
X92321428Y-73493333D01*
X92369047Y-73540952D01*
X92416666Y-73636190D01*
X92416666Y-73921904D01*
X92369047Y-74017142D01*
X92321428Y-74064761D01*
X92226190Y-74112380D01*
X92083333Y-74112380D01*
X92845238Y-73445714D02*
X92845238Y-74112380D01*
X92845238Y-73540952D02*
X92892857Y-73493333D01*
X92988095Y-73445714D01*
X93130952Y-73445714D01*
X93226190Y-73493333D01*
X93273809Y-73588571D01*
X93273809Y-74112380D01*
X93750000Y-73445714D02*
X93750000Y-74112380D01*
X93750000Y-73540952D02*
X93797619Y-73493333D01*
X93892857Y-73445714D01*
X94035714Y-73445714D01*
X94130952Y-73493333D01*
X94178571Y-73588571D01*
X94178571Y-74112380D01*
X94416666Y-74207619D02*
X95178571Y-74207619D01*
X95607142Y-73112380D02*
X95702380Y-73112380D01*
X95797619Y-73160000D01*
X95845238Y-73207619D01*
X95892857Y-73302857D01*
X95940476Y-73493333D01*
X95940476Y-73731428D01*
X95892857Y-73921904D01*
X95845238Y-74017142D01*
X95797619Y-74064761D01*
X95702380Y-74112380D01*
X95607142Y-74112380D01*
X95511904Y-74064761D01*
X95464285Y-74017142D01*
X95416666Y-73921904D01*
X95369047Y-73731428D01*
X95369047Y-73493333D01*
X95416666Y-73302857D01*
X95464285Y-73207619D01*
X95511904Y-73160000D01*
X95607142Y-73112380D01*
X96892857Y-74112380D02*
X96321428Y-74112380D01*
X96607142Y-74112380D02*
X96607142Y-73112380D01*
X96511904Y-73255238D01*
X96416666Y-73350476D01*
X96321428Y-73398095D01*
X97226190Y-74112380D02*
X97750000Y-73445714D01*
X97226190Y-73445714D02*
X97750000Y-74112380D01*
X98321428Y-73112380D02*
X98416666Y-73112380D01*
X98511904Y-73160000D01*
X98559523Y-73207619D01*
X98607142Y-73302857D01*
X98654761Y-73493333D01*
X98654761Y-73731428D01*
X98607142Y-73921904D01*
X98559523Y-74017142D01*
X98511904Y-74064761D01*
X98416666Y-74112380D01*
X98321428Y-74112380D01*
X98226190Y-74064761D01*
X98178571Y-74017142D01*
X98130952Y-73921904D01*
X98083333Y-73731428D01*
X98083333Y-73493333D01*
X98130952Y-73302857D01*
X98178571Y-73207619D01*
X98226190Y-73160000D01*
X98321428Y-73112380D01*
X99607142Y-74112380D02*
X99035714Y-74112380D01*
X99321428Y-74112380D02*
X99321428Y-73112380D01*
X99226190Y-73255238D01*
X99130952Y-73350476D01*
X99035714Y-73398095D01*
X103806666Y-73112380D02*
X103806666Y-73826666D01*
X103759047Y-73969523D01*
X103663809Y-74064761D01*
X103520952Y-74112380D01*
X103425714Y-74112380D01*
X104711428Y-73112380D02*
X104520952Y-73112380D01*
X104425714Y-73160000D01*
X104378095Y-73207619D01*
X104282857Y-73350476D01*
X104235238Y-73540952D01*
X104235238Y-73921904D01*
X104282857Y-74017142D01*
X104330476Y-74064761D01*
X104425714Y-74112380D01*
X104616190Y-74112380D01*
X104711428Y-74064761D01*
X104759047Y-74017142D01*
X104806666Y-73921904D01*
X104806666Y-73683809D01*
X104759047Y-73588571D01*
X104711428Y-73540952D01*
X104616190Y-73493333D01*
X104425714Y-73493333D01*
X104330476Y-73540952D01*
X104282857Y-73588571D01*
X104235238Y-73683809D01*
%TO.C,J7*%
X91511904Y-76557142D02*
X91464285Y-76604761D01*
X91321428Y-76652380D01*
X91226190Y-76652380D01*
X91083333Y-76604761D01*
X90988095Y-76509523D01*
X90940476Y-76414285D01*
X90892857Y-76223809D01*
X90892857Y-76080952D01*
X90940476Y-75890476D01*
X90988095Y-75795238D01*
X91083333Y-75700000D01*
X91226190Y-75652380D01*
X91321428Y-75652380D01*
X91464285Y-75700000D01*
X91511904Y-75747619D01*
X92083333Y-76652380D02*
X91988095Y-76604761D01*
X91940476Y-76557142D01*
X91892857Y-76461904D01*
X91892857Y-76176190D01*
X91940476Y-76080952D01*
X91988095Y-76033333D01*
X92083333Y-75985714D01*
X92226190Y-75985714D01*
X92321428Y-76033333D01*
X92369047Y-76080952D01*
X92416666Y-76176190D01*
X92416666Y-76461904D01*
X92369047Y-76557142D01*
X92321428Y-76604761D01*
X92226190Y-76652380D01*
X92083333Y-76652380D01*
X92845238Y-75985714D02*
X92845238Y-76652380D01*
X92845238Y-76080952D02*
X92892857Y-76033333D01*
X92988095Y-75985714D01*
X93130952Y-75985714D01*
X93226190Y-76033333D01*
X93273809Y-76128571D01*
X93273809Y-76652380D01*
X93750000Y-75985714D02*
X93750000Y-76652380D01*
X93750000Y-76080952D02*
X93797619Y-76033333D01*
X93892857Y-75985714D01*
X94035714Y-75985714D01*
X94130952Y-76033333D01*
X94178571Y-76128571D01*
X94178571Y-76652380D01*
X94416666Y-76747619D02*
X95178571Y-76747619D01*
X95607142Y-75652380D02*
X95702380Y-75652380D01*
X95797619Y-75700000D01*
X95845238Y-75747619D01*
X95892857Y-75842857D01*
X95940476Y-76033333D01*
X95940476Y-76271428D01*
X95892857Y-76461904D01*
X95845238Y-76557142D01*
X95797619Y-76604761D01*
X95702380Y-76652380D01*
X95607142Y-76652380D01*
X95511904Y-76604761D01*
X95464285Y-76557142D01*
X95416666Y-76461904D01*
X95369047Y-76271428D01*
X95369047Y-76033333D01*
X95416666Y-75842857D01*
X95464285Y-75747619D01*
X95511904Y-75700000D01*
X95607142Y-75652380D01*
X96892857Y-76652380D02*
X96321428Y-76652380D01*
X96607142Y-76652380D02*
X96607142Y-75652380D01*
X96511904Y-75795238D01*
X96416666Y-75890476D01*
X96321428Y-75938095D01*
X97226190Y-76652380D02*
X97750000Y-75985714D01*
X97226190Y-75985714D02*
X97750000Y-76652380D01*
X98321428Y-75652380D02*
X98416666Y-75652380D01*
X98511904Y-75700000D01*
X98559523Y-75747619D01*
X98607142Y-75842857D01*
X98654761Y-76033333D01*
X98654761Y-76271428D01*
X98607142Y-76461904D01*
X98559523Y-76557142D01*
X98511904Y-76604761D01*
X98416666Y-76652380D01*
X98321428Y-76652380D01*
X98226190Y-76604761D01*
X98178571Y-76557142D01*
X98130952Y-76461904D01*
X98083333Y-76271428D01*
X98083333Y-76033333D01*
X98130952Y-75842857D01*
X98178571Y-75747619D01*
X98226190Y-75700000D01*
X98321428Y-75652380D01*
X99607142Y-76652380D02*
X99035714Y-76652380D01*
X99321428Y-76652380D02*
X99321428Y-75652380D01*
X99226190Y-75795238D01*
X99130952Y-75890476D01*
X99035714Y-75938095D01*
X103806666Y-75652380D02*
X103806666Y-76366666D01*
X103759047Y-76509523D01*
X103663809Y-76604761D01*
X103520952Y-76652380D01*
X103425714Y-76652380D01*
X104187619Y-75652380D02*
X104854285Y-75652380D01*
X104425714Y-76652380D01*
%TO.C,R1*%
X106962380Y-78962619D02*
X106962380Y-78867380D01*
X107010000Y-78772142D01*
X107057619Y-78724523D01*
X107152857Y-78676904D01*
X107343333Y-78629285D01*
X107581428Y-78629285D01*
X107771904Y-78676904D01*
X107867142Y-78724523D01*
X107914761Y-78772142D01*
X107962380Y-78867380D01*
X107962380Y-78962619D01*
X107914761Y-79057857D01*
X107867142Y-79105476D01*
X107771904Y-79153095D01*
X107581428Y-79200714D01*
X107343333Y-79200714D01*
X107152857Y-79153095D01*
X107057619Y-79105476D01*
X107010000Y-79057857D01*
X106962380Y-78962619D01*
D14*
X109120952Y-78981666D02*
X108930476Y-79115000D01*
X109120952Y-79210238D02*
X108720952Y-79210238D01*
X108720952Y-79057857D01*
X108740000Y-79019761D01*
X108759047Y-79000714D01*
X108797142Y-78981666D01*
X108854285Y-78981666D01*
X108892380Y-79000714D01*
X108911428Y-79019761D01*
X108930476Y-79057857D01*
X108930476Y-79210238D01*
X109120952Y-78600714D02*
X109120952Y-78829285D01*
X109120952Y-78715000D02*
X108720952Y-78715000D01*
X108778095Y-78753095D01*
X108816190Y-78791190D01*
X108835238Y-78829285D01*
%TO.C,U1*%
D13*
X108878095Y-78292380D02*
X108878095Y-77292380D01*
X109211428Y-78006666D01*
X109544761Y-77292380D01*
X109544761Y-78292380D01*
X110592380Y-78197142D02*
X110544761Y-78244761D01*
X110401904Y-78292380D01*
X110306666Y-78292380D01*
X110163809Y-78244761D01*
X110068571Y-78149523D01*
X110020952Y-78054285D01*
X109973333Y-77863809D01*
X109973333Y-77720952D01*
X110020952Y-77530476D01*
X110068571Y-77435238D01*
X110163809Y-77340000D01*
X110306666Y-77292380D01*
X110401904Y-77292380D01*
X110544761Y-77340000D01*
X110592380Y-77387619D01*
X111020952Y-78292380D02*
X111020952Y-77292380D01*
X111401904Y-77292380D01*
X111497142Y-77340000D01*
X111544761Y-77387619D01*
X111592380Y-77482857D01*
X111592380Y-77625714D01*
X111544761Y-77720952D01*
X111497142Y-77768571D01*
X111401904Y-77816190D01*
X111020952Y-77816190D01*
X111973333Y-77387619D02*
X112020952Y-77340000D01*
X112116190Y-77292380D01*
X112354285Y-77292380D01*
X112449523Y-77340000D01*
X112497142Y-77387619D01*
X112544761Y-77482857D01*
X112544761Y-77578095D01*
X112497142Y-77720952D01*
X111925714Y-78292380D01*
X112544761Y-78292380D01*
X113449523Y-77292380D02*
X112973333Y-77292380D01*
X112925714Y-77768571D01*
X112973333Y-77720952D01*
X113068571Y-77673333D01*
X113306666Y-77673333D01*
X113401904Y-77720952D01*
X113449523Y-77768571D01*
X113497142Y-77863809D01*
X113497142Y-78101904D01*
X113449523Y-78197142D01*
X113401904Y-78244761D01*
X113306666Y-78292380D01*
X113068571Y-78292380D01*
X112973333Y-78244761D01*
X112925714Y-78197142D01*
X114449523Y-78292380D02*
X113878095Y-78292380D01*
X114163809Y-78292380D02*
X114163809Y-77292380D01*
X114068571Y-77435238D01*
X113973333Y-77530476D01*
X113878095Y-77578095D01*
X115354285Y-77292380D02*
X114878095Y-77292380D01*
X114830476Y-77768571D01*
X114878095Y-77720952D01*
X114973333Y-77673333D01*
X115211428Y-77673333D01*
X115306666Y-77720952D01*
X115354285Y-77768571D01*
X115401904Y-77863809D01*
X115401904Y-78101904D01*
X115354285Y-78197142D01*
X115306666Y-78244761D01*
X115211428Y-78292380D01*
X114973333Y-78292380D01*
X114878095Y-78244761D01*
X114830476Y-78197142D01*
X115830476Y-77911428D02*
X116592380Y-77911428D01*
X116973333Y-78292380D02*
X117497142Y-77625714D01*
X116973333Y-77625714D02*
X117497142Y-78292380D01*
X117830476Y-78244761D02*
X117973333Y-78292380D01*
X118211428Y-78292380D01*
X118306666Y-78244761D01*
X118354285Y-78197142D01*
X118401904Y-78101904D01*
X118401904Y-78006666D01*
X118354285Y-77911428D01*
X118306666Y-77863809D01*
X118211428Y-77816190D01*
X118020952Y-77768571D01*
X117925714Y-77720952D01*
X117878095Y-77673333D01*
X117830476Y-77578095D01*
X117830476Y-77482857D01*
X117878095Y-77387619D01*
X117925714Y-77340000D01*
X118020952Y-77292380D01*
X118259047Y-77292380D01*
X118401904Y-77340000D01*
X119020952Y-77292380D02*
X119211428Y-77292380D01*
X119306666Y-77340000D01*
X119401904Y-77435238D01*
X119449523Y-77625714D01*
X119449523Y-77959047D01*
X119401904Y-78149523D01*
X119306666Y-78244761D01*
X119211428Y-78292380D01*
X119020952Y-78292380D01*
X118925714Y-78244761D01*
X118830476Y-78149523D01*
X118782857Y-77959047D01*
X118782857Y-77625714D01*
X118830476Y-77435238D01*
X118925714Y-77340000D01*
X119020952Y-77292380D01*
X113378095Y-70572380D02*
X113378095Y-71381904D01*
X113425714Y-71477142D01*
X113473333Y-71524761D01*
X113568571Y-71572380D01*
X113759047Y-71572380D01*
X113854285Y-71524761D01*
X113901904Y-71477142D01*
X113949523Y-71381904D01*
X113949523Y-70572380D01*
X114949523Y-71572380D02*
X114378095Y-71572380D01*
X114663809Y-71572380D02*
X114663809Y-70572380D01*
X114568571Y-70715238D01*
X114473333Y-70810476D01*
X114378095Y-70858095D01*
%TO.C,Y1*%
X107882857Y-75942380D02*
X108549523Y-76942380D01*
X108549523Y-75942380D02*
X107882857Y-76942380D01*
X108835238Y-75942380D02*
X109454285Y-75942380D01*
X109120952Y-76323333D01*
X109263809Y-76323333D01*
X109359047Y-76370952D01*
X109406666Y-76418571D01*
X109454285Y-76513809D01*
X109454285Y-76751904D01*
X109406666Y-76847142D01*
X109359047Y-76894761D01*
X109263809Y-76942380D01*
X108978095Y-76942380D01*
X108882857Y-76894761D01*
X108835238Y-76847142D01*
X109835238Y-76037619D02*
X109882857Y-75990000D01*
X109978095Y-75942380D01*
X110216190Y-75942380D01*
X110311428Y-75990000D01*
X110359047Y-76037619D01*
X110406666Y-76132857D01*
X110406666Y-76228095D01*
X110359047Y-76370952D01*
X109787619Y-76942380D01*
X110406666Y-76942380D01*
X110787619Y-76037619D02*
X110835238Y-75990000D01*
X110930476Y-75942380D01*
X111168571Y-75942380D01*
X111263809Y-75990000D01*
X111311428Y-76037619D01*
X111359047Y-76132857D01*
X111359047Y-76228095D01*
X111311428Y-76370952D01*
X110740000Y-76942380D01*
X111359047Y-76942380D01*
X112263809Y-75942380D02*
X111787619Y-75942380D01*
X111740000Y-76418571D01*
X111787619Y-76370952D01*
X111882857Y-76323333D01*
X112120952Y-76323333D01*
X112216190Y-76370952D01*
X112263809Y-76418571D01*
X112311428Y-76513809D01*
X112311428Y-76751904D01*
X112263809Y-76847142D01*
X112216190Y-76894761D01*
X112120952Y-76942380D01*
X111882857Y-76942380D01*
X111787619Y-76894761D01*
X111740000Y-76847142D01*
X113263809Y-76942380D02*
X112692380Y-76942380D01*
X112978095Y-76942380D02*
X112978095Y-75942380D01*
X112882857Y-76085238D01*
X112787619Y-76180476D01*
X112692380Y-76228095D01*
X114120952Y-75942380D02*
X113930476Y-75942380D01*
X113835238Y-75990000D01*
X113787619Y-76037619D01*
X113692380Y-76180476D01*
X113644761Y-76370952D01*
X113644761Y-76751904D01*
X113692380Y-76847142D01*
X113740000Y-76894761D01*
X113835238Y-76942380D01*
X114025714Y-76942380D01*
X114120952Y-76894761D01*
X114168571Y-76847142D01*
X114216190Y-76751904D01*
X114216190Y-76513809D01*
X114168571Y-76418571D01*
X114120952Y-76370952D01*
X114025714Y-76323333D01*
X113835238Y-76323333D01*
X113740000Y-76370952D01*
X113692380Y-76418571D01*
X113644761Y-76513809D01*
X114644761Y-76942380D02*
X114644761Y-75942380D01*
X114978095Y-76656666D01*
X115311428Y-75942380D01*
X115311428Y-76942380D01*
X116263809Y-76942380D02*
X115787619Y-76942380D01*
X115787619Y-75942380D01*
X116930476Y-76418571D02*
X117073333Y-76466190D01*
X117120952Y-76513809D01*
X117168571Y-76609047D01*
X117168571Y-76751904D01*
X117120952Y-76847142D01*
X117073333Y-76894761D01*
X116978095Y-76942380D01*
X116597142Y-76942380D01*
X116597142Y-75942380D01*
X116930476Y-75942380D01*
X117025714Y-75990000D01*
X117073333Y-76037619D01*
X117120952Y-76132857D01*
X117120952Y-76228095D01*
X117073333Y-76323333D01*
X117025714Y-76370952D01*
X116930476Y-76418571D01*
X116597142Y-76418571D01*
X118025714Y-76275714D02*
X118025714Y-76942380D01*
X117787619Y-75894761D02*
X117549523Y-76609047D01*
X118168571Y-76609047D01*
X118501904Y-76894761D02*
X118644761Y-76942380D01*
X118882857Y-76942380D01*
X118978095Y-76894761D01*
X119025714Y-76847142D01*
X119073333Y-76751904D01*
X119073333Y-76656666D01*
X119025714Y-76561428D01*
X118978095Y-76513809D01*
X118882857Y-76466190D01*
X118692380Y-76418571D01*
X118597142Y-76370952D01*
X118549523Y-76323333D01*
X118501904Y-76228095D01*
X118501904Y-76132857D01*
X118549523Y-76037619D01*
X118597142Y-75990000D01*
X118692380Y-75942380D01*
X118930476Y-75942380D01*
X119073333Y-75990000D01*
X119501904Y-76942380D02*
X119501904Y-75942380D01*
D15*
X113406666Y-78923333D02*
X113406666Y-79256666D01*
X113173333Y-78556666D02*
X113406666Y-78923333D01*
X113640000Y-78556666D01*
X114240000Y-79256666D02*
X113840000Y-79256666D01*
X114040000Y-79256666D02*
X114040000Y-78556666D01*
X113973333Y-78656666D01*
X113906666Y-78723333D01*
X113840000Y-78756666D01*
%TD*%
M02*
