M48
; DRILL file {KiCad (5.1.9)-1} date 06/01/21 13:49:13
; FORMAT={-:-/ absolute / inch / decimal}
; #@! TF.CreationDate,2021-06-01T13:49:13+02:00
; #@! TF.GenerationSoftware,Kicad,Pcbnew,(5.1.9)-1
; #@! TF.FileFunction,Plated,1,2,PTH
FMAT,2
INCH
T1C0.0236
T2C0.0300
T3C0.0394
%
G90
G05
T1
X4.1945Y-2.9465
X4.1945Y-3.0528
X4.1945Y-3.1551
X4.3933Y-3.0154
X4.4583Y-2.7969
X4.5606Y-2.4937
X4.5882Y-2.5882
X4.5882Y-2.6984
X4.5882Y-2.7496
X4.5882Y-2.848
X4.5961Y-3.1906
T2
X4.0Y-2.5
X4.0Y-2.6
X4.0Y-2.7
X4.0Y-2.8
X4.0Y-2.9
X4.0Y-3.0
X4.0Y-3.1
X4.0Y-3.2
T3
X4.1Y-2.5
X4.1Y-2.6
X4.1Y-2.7
X4.1Y-2.8
X4.1Y-2.9
X4.1Y-3.0
X4.1Y-3.1
X4.1Y-3.2
T0
M30
