G04 #@! TF.GenerationSoftware,KiCad,Pcbnew,(6.0.8)*
G04 #@! TF.CreationDate,2023-04-23T16:45:02+02:00*
G04 #@! TF.ProjectId,17_CAN_Controller,31375f43-414e-45f4-936f-6e74726f6c6c,rev?*
G04 #@! TF.SameCoordinates,Original*
G04 #@! TF.FileFunction,Copper,L2,Bot*
G04 #@! TF.FilePolarity,Positive*
%FSLAX46Y46*%
G04 Gerber Fmt 4.6, Leading zero omitted, Abs format (unit mm)*
G04 Created by KiCad (PCBNEW (6.0.8)) date 2023-04-23 16:45:02*
%MOMM*%
%LPD*%
G01*
G04 APERTURE LIST*
G04 #@! TA.AperFunction,ComponentPad*
%ADD10R,1.700000X1.700000*%
G04 #@! TD*
G04 #@! TA.AperFunction,ComponentPad*
%ADD11O,1.700000X1.700000*%
G04 #@! TD*
G04 #@! TA.AperFunction,ViaPad*
%ADD12C,1.000000*%
G04 #@! TD*
G04 #@! TA.AperFunction,Conductor*
%ADD13C,0.400000*%
G04 #@! TD*
G04 APERTURE END LIST*
D10*
X104140000Y-63500000D03*
D11*
X104140000Y-66040000D03*
X104140000Y-68580000D03*
X104140000Y-71120000D03*
X104140000Y-73660000D03*
X104140000Y-76200000D03*
X104140000Y-78740000D03*
X104140000Y-81280000D03*
D10*
X119380000Y-81280000D03*
D12*
X115840000Y-63340000D03*
X106540000Y-80140000D03*
X111590000Y-76590000D03*
X106540000Y-77540000D03*
X116740000Y-81040000D03*
X106540000Y-74840000D03*
X116540000Y-65740000D03*
X116540000Y-68540000D03*
X113240000Y-71040000D03*
X116540000Y-69840000D03*
X116540000Y-72340000D03*
D13*
X116440000Y-63940000D02*
X115840000Y-63340000D01*
X104140000Y-71120000D02*
X106060000Y-71120000D01*
X111590000Y-75790000D02*
X115940001Y-71439999D01*
X119140001Y-71439999D02*
X119240000Y-71340000D01*
X115940001Y-71439999D02*
X119140001Y-71439999D01*
X111590000Y-76590000D02*
X111590000Y-75790000D01*
X119240000Y-79940000D02*
X119240000Y-71340000D01*
X106060000Y-71120000D02*
X109840000Y-67340000D01*
X119240000Y-71340000D02*
X119240000Y-67340000D01*
X118140000Y-81040000D02*
X119240000Y-79940000D01*
X119240000Y-67340000D02*
X119240000Y-65040000D01*
X116740000Y-81040000D02*
X118140000Y-81040000D01*
X118140000Y-63940000D02*
X116440000Y-63940000D01*
X119240000Y-65040000D02*
X118140000Y-63940000D01*
X109840000Y-67340000D02*
X119240000Y-67340000D01*
X116540000Y-65740000D02*
X114300000Y-63500000D01*
X114300000Y-63500000D02*
X104140000Y-63500000D01*
X116540000Y-68540000D02*
X110740000Y-68540000D01*
X110740000Y-68540000D02*
X105620000Y-73660000D01*
X105620000Y-73660000D02*
X104140000Y-73660000D01*
X108080000Y-76200000D02*
X104140000Y-76200000D01*
X113240000Y-71040000D02*
X108080000Y-76200000D01*
X107640000Y-78740000D02*
X104140000Y-78740000D01*
X116540000Y-69840000D02*
X107640000Y-78740000D01*
X116540000Y-72340000D02*
X116540000Y-76340000D01*
X116540000Y-76340000D02*
X111600000Y-81280000D01*
X111600000Y-81280000D02*
X107600000Y-81280000D01*
X107600000Y-81280000D02*
X104140000Y-81280000D01*
G04 #@! TA.AperFunction,Conductor*
G36*
X120083621Y-62758502D02*
G01*
X120130114Y-62812158D01*
X120141500Y-62864500D01*
X120141500Y-79796000D01*
X120121498Y-79864121D01*
X120067842Y-79910614D01*
X120015500Y-79922000D01*
X119652115Y-79922000D01*
X119636876Y-79926475D01*
X119635671Y-79927865D01*
X119634000Y-79935548D01*
X119634000Y-81408000D01*
X119613998Y-81476121D01*
X119560342Y-81522614D01*
X119508000Y-81534000D01*
X118040116Y-81534000D01*
X118024877Y-81538475D01*
X118023672Y-81539865D01*
X118022001Y-81547548D01*
X118022001Y-81915500D01*
X118001999Y-81983621D01*
X117948343Y-82030114D01*
X117896001Y-82041500D01*
X112147541Y-82041500D01*
X112079420Y-82021498D01*
X112032927Y-81967842D01*
X112022823Y-81897568D01*
X112052317Y-81832988D01*
X112064216Y-81820986D01*
X112065721Y-81819660D01*
X112071981Y-81815357D01*
X112113436Y-81768829D01*
X112118416Y-81763554D01*
X112874085Y-81007885D01*
X118022000Y-81007885D01*
X118026475Y-81023124D01*
X118027865Y-81024329D01*
X118035548Y-81026000D01*
X119107885Y-81026000D01*
X119123124Y-81021525D01*
X119124329Y-81020135D01*
X119126000Y-81012452D01*
X119126000Y-79940116D01*
X119121525Y-79924877D01*
X119120135Y-79923672D01*
X119112452Y-79922001D01*
X118485331Y-79922001D01*
X118478510Y-79922371D01*
X118427648Y-79927895D01*
X118412396Y-79931521D01*
X118291946Y-79976676D01*
X118276351Y-79985214D01*
X118174276Y-80061715D01*
X118161715Y-80074276D01*
X118085214Y-80176351D01*
X118076676Y-80191946D01*
X118031522Y-80312394D01*
X118027895Y-80327649D01*
X118022369Y-80378514D01*
X118022000Y-80385328D01*
X118022000Y-81007885D01*
X112874085Y-81007885D01*
X117020520Y-76861450D01*
X117026785Y-76855596D01*
X117053275Y-76832487D01*
X117070385Y-76817561D01*
X117107129Y-76765280D01*
X117111061Y-76759986D01*
X117145791Y-76715693D01*
X117150476Y-76709718D01*
X117153599Y-76702802D01*
X117154983Y-76700516D01*
X117163357Y-76685835D01*
X117164622Y-76683475D01*
X117168990Y-76677261D01*
X117192203Y-76617723D01*
X117194759Y-76611642D01*
X117217918Y-76560352D01*
X117221045Y-76553427D01*
X117222429Y-76545960D01*
X117223230Y-76543405D01*
X117227859Y-76527152D01*
X117228522Y-76524572D01*
X117231282Y-76517491D01*
X117239622Y-76454139D01*
X117240653Y-76447632D01*
X117250912Y-76392280D01*
X117252296Y-76384814D01*
X117248709Y-76322608D01*
X117248500Y-76315354D01*
X117248500Y-73109538D01*
X117268502Y-73041417D01*
X117279118Y-73027207D01*
X117364054Y-72928807D01*
X117364055Y-72928806D01*
X117368078Y-72924145D01*
X117465769Y-72752179D01*
X117528197Y-72564513D01*
X117552985Y-72368295D01*
X117553380Y-72340000D01*
X117534080Y-72143167D01*
X117476916Y-71953831D01*
X117384066Y-71779204D01*
X117313709Y-71692938D01*
X117262960Y-71630713D01*
X117262957Y-71630710D01*
X117259065Y-71625938D01*
X117254316Y-71622009D01*
X117111425Y-71503799D01*
X117111421Y-71503797D01*
X117106675Y-71499870D01*
X116932701Y-71405802D01*
X116743768Y-71347318D01*
X116737643Y-71346674D01*
X116737642Y-71346674D01*
X116553204Y-71327289D01*
X116553202Y-71327289D01*
X116547075Y-71326645D01*
X116352728Y-71344332D01*
X116283076Y-71330587D01*
X116231911Y-71281366D01*
X116215480Y-71212297D01*
X116238998Y-71145309D01*
X116252214Y-71129756D01*
X116496691Y-70885279D01*
X116559003Y-70851253D01*
X116576115Y-70848746D01*
X116630929Y-70844528D01*
X116709830Y-70838457D01*
X116709834Y-70838456D01*
X116715972Y-70837984D01*
X116906463Y-70784798D01*
X116911967Y-70782018D01*
X116911969Y-70782017D01*
X117077495Y-70698404D01*
X117077497Y-70698403D01*
X117082996Y-70695625D01*
X117238847Y-70573861D01*
X117368078Y-70424145D01*
X117465769Y-70252179D01*
X117528197Y-70064513D01*
X117552985Y-69868295D01*
X117553380Y-69840000D01*
X117534080Y-69643167D01*
X117526340Y-69617529D01*
X117478697Y-69459731D01*
X117476916Y-69453831D01*
X117384066Y-69279204D01*
X117376893Y-69270409D01*
X117349339Y-69204977D01*
X117361535Y-69135035D01*
X117367855Y-69124403D01*
X117368078Y-69124145D01*
X117465769Y-68952179D01*
X117528197Y-68764513D01*
X117552985Y-68568295D01*
X117553380Y-68540000D01*
X117534080Y-68343167D01*
X117476916Y-68153831D01*
X117384066Y-67979204D01*
X117286693Y-67859813D01*
X117262960Y-67830713D01*
X117262957Y-67830710D01*
X117259065Y-67825938D01*
X117254316Y-67822009D01*
X117111425Y-67703799D01*
X117111421Y-67703797D01*
X117106675Y-67699870D01*
X116932701Y-67605802D01*
X116743768Y-67547318D01*
X116737643Y-67546674D01*
X116737642Y-67546674D01*
X116553204Y-67527289D01*
X116553202Y-67527289D01*
X116547075Y-67526645D01*
X116464576Y-67534153D01*
X116356251Y-67544011D01*
X116356248Y-67544012D01*
X116350112Y-67544570D01*
X116344206Y-67546308D01*
X116344202Y-67546309D01*
X116239076Y-67577249D01*
X116160381Y-67600410D01*
X116154923Y-67603263D01*
X116154919Y-67603265D01*
X116064147Y-67650720D01*
X115985110Y-67692040D01*
X115846236Y-67803698D01*
X115780616Y-67830793D01*
X115767286Y-67831500D01*
X110768911Y-67831500D01*
X110760342Y-67831208D01*
X110710223Y-67827791D01*
X110710219Y-67827791D01*
X110702647Y-67827275D01*
X110639685Y-67838264D01*
X110633195Y-67839221D01*
X110569758Y-67846898D01*
X110562649Y-67849584D01*
X110560078Y-67850216D01*
X110543772Y-67854676D01*
X110541204Y-67855451D01*
X110533716Y-67856758D01*
X110498722Y-67872119D01*
X110475212Y-67882439D01*
X110469105Y-67884931D01*
X110416452Y-67904827D01*
X110409344Y-67907513D01*
X110403083Y-67911816D01*
X110400717Y-67913053D01*
X110385937Y-67921280D01*
X110383652Y-67922631D01*
X110376695Y-67925685D01*
X110370675Y-67930305D01*
X110370669Y-67930308D01*
X110339542Y-67954194D01*
X110325998Y-67964587D01*
X110320668Y-67968459D01*
X110274280Y-68000339D01*
X110274275Y-68000344D01*
X110268019Y-68004643D01*
X110262968Y-68010313D01*
X110262966Y-68010314D01*
X110226565Y-68051170D01*
X110221584Y-68056446D01*
X105420478Y-72857552D01*
X105358166Y-72891578D01*
X105287351Y-72886513D01*
X105230515Y-72843966D01*
X105225594Y-72836901D01*
X105222826Y-72832622D01*
X105222819Y-72832613D01*
X105220014Y-72828277D01*
X105069670Y-72663051D01*
X105065619Y-72659852D01*
X105065615Y-72659848D01*
X104898414Y-72527800D01*
X104898410Y-72527798D01*
X104894359Y-72524598D01*
X104852569Y-72501529D01*
X104802598Y-72451097D01*
X104787826Y-72381654D01*
X104812942Y-72315248D01*
X104840294Y-72288641D01*
X105015328Y-72163792D01*
X105023200Y-72157139D01*
X105174052Y-72006812D01*
X105180730Y-71998965D01*
X105305003Y-71826020D01*
X105310313Y-71817183D01*
X105404670Y-71626267D01*
X105408469Y-71616672D01*
X105470377Y-71412910D01*
X105472555Y-71402837D01*
X105473986Y-71391962D01*
X105471775Y-71377778D01*
X105458617Y-71374000D01*
X104012000Y-71374000D01*
X103943879Y-71353998D01*
X103897386Y-71300342D01*
X103886000Y-71248000D01*
X103886000Y-70992000D01*
X103906002Y-70923879D01*
X103959658Y-70877386D01*
X104012000Y-70866000D01*
X105458344Y-70866000D01*
X105471875Y-70862027D01*
X105473180Y-70852947D01*
X105431214Y-70685875D01*
X105427894Y-70676124D01*
X105342972Y-70480814D01*
X105338105Y-70471739D01*
X105222426Y-70292926D01*
X105216136Y-70284757D01*
X105072806Y-70127240D01*
X105065273Y-70120215D01*
X104898139Y-69988222D01*
X104889556Y-69982520D01*
X104852602Y-69962120D01*
X104802631Y-69911687D01*
X104787859Y-69842245D01*
X104812975Y-69775839D01*
X104840327Y-69749232D01*
X104897378Y-69708538D01*
X105019860Y-69621173D01*
X105178096Y-69463489D01*
X105308453Y-69282077D01*
X105386508Y-69124145D01*
X105405136Y-69086453D01*
X105405137Y-69086451D01*
X105407430Y-69081811D01*
X105472370Y-68868069D01*
X105501529Y-68646590D01*
X105503156Y-68580000D01*
X105484852Y-68357361D01*
X105430431Y-68140702D01*
X105341354Y-67935840D01*
X105278227Y-67838260D01*
X105222822Y-67752617D01*
X105222820Y-67752614D01*
X105220014Y-67748277D01*
X105069670Y-67583051D01*
X105065619Y-67579852D01*
X105065615Y-67579848D01*
X104898414Y-67447800D01*
X104898410Y-67447798D01*
X104894359Y-67444598D01*
X104853053Y-67421796D01*
X104803084Y-67371364D01*
X104788312Y-67301921D01*
X104813428Y-67235516D01*
X104840780Y-67208909D01*
X104897378Y-67168538D01*
X105019860Y-67081173D01*
X105178096Y-66923489D01*
X105308453Y-66742077D01*
X105311296Y-66736326D01*
X105405136Y-66546453D01*
X105405137Y-66546451D01*
X105407430Y-66541811D01*
X105472370Y-66328069D01*
X105501529Y-66106590D01*
X105503156Y-66040000D01*
X105484852Y-65817361D01*
X105430431Y-65600702D01*
X105341354Y-65395840D01*
X105220014Y-65208277D01*
X105189214Y-65174428D01*
X105072798Y-65046488D01*
X105041746Y-64982642D01*
X105050141Y-64912143D01*
X105095317Y-64857375D01*
X105121761Y-64843706D01*
X105228297Y-64803767D01*
X105236705Y-64800615D01*
X105353261Y-64713261D01*
X105440615Y-64596705D01*
X105491745Y-64460316D01*
X105498500Y-64398134D01*
X105498500Y-64334500D01*
X105518502Y-64266379D01*
X105572158Y-64219886D01*
X105624500Y-64208500D01*
X113954340Y-64208500D01*
X114022461Y-64228502D01*
X114043435Y-64245405D01*
X115494374Y-65696345D01*
X115528400Y-65758657D01*
X115530837Y-65774897D01*
X115543268Y-65922934D01*
X115544967Y-65928858D01*
X115595931Y-66106590D01*
X115597783Y-66113050D01*
X115688187Y-66288956D01*
X115811035Y-66443953D01*
X115961650Y-66572136D01*
X116134294Y-66668624D01*
X116322392Y-66729740D01*
X116518777Y-66753158D01*
X116524912Y-66752686D01*
X116524914Y-66752686D01*
X116709830Y-66738457D01*
X116709834Y-66738456D01*
X116715972Y-66737984D01*
X116906463Y-66684798D01*
X116911967Y-66682018D01*
X116911969Y-66682017D01*
X117077495Y-66598404D01*
X117077497Y-66598403D01*
X117082996Y-66595625D01*
X117238847Y-66473861D01*
X117368078Y-66324145D01*
X117465769Y-66152179D01*
X117528197Y-65964513D01*
X117552985Y-65768295D01*
X117553380Y-65740000D01*
X117534080Y-65543167D01*
X117476916Y-65353831D01*
X117384066Y-65179204D01*
X117313709Y-65092938D01*
X117262960Y-65030713D01*
X117262957Y-65030710D01*
X117259065Y-65025938D01*
X117254316Y-65022009D01*
X117111425Y-64903799D01*
X117111421Y-64903797D01*
X117106675Y-64899870D01*
X116932701Y-64805802D01*
X116743768Y-64747318D01*
X116737643Y-64746674D01*
X116737642Y-64746674D01*
X116674084Y-64739994D01*
X116570820Y-64729141D01*
X116505164Y-64702128D01*
X116494896Y-64692926D01*
X114821450Y-63019480D01*
X114815596Y-63013215D01*
X114815201Y-63012762D01*
X114777561Y-62969615D01*
X114771346Y-62965247D01*
X114765702Y-62960165D01*
X114767328Y-62958359D01*
X114730447Y-62912061D01*
X114723256Y-62841429D01*
X114755393Y-62778123D01*
X114816654Y-62742240D01*
X114847126Y-62738500D01*
X120015500Y-62738500D01*
X120083621Y-62758502D01*
G37*
G04 #@! TD.AperFunction*
G04 #@! TA.AperFunction,Conductor*
G36*
X115464885Y-72021251D02*
G01*
X115521721Y-72063798D01*
X115546532Y-72130318D01*
X115546068Y-72153350D01*
X115526719Y-72325851D01*
X115527613Y-72336495D01*
X115541889Y-72506507D01*
X115543268Y-72522934D01*
X115544967Y-72528858D01*
X115582528Y-72659848D01*
X115597783Y-72713050D01*
X115688187Y-72888956D01*
X115797763Y-73027207D01*
X115804246Y-73035387D01*
X115830883Y-73101197D01*
X115831500Y-73113651D01*
X115831500Y-75994340D01*
X115811498Y-76062461D01*
X115794595Y-76083435D01*
X111343435Y-80534595D01*
X111281123Y-80568621D01*
X111254340Y-80571500D01*
X105368286Y-80571500D01*
X105300165Y-80551498D01*
X105262494Y-80513941D01*
X105222818Y-80452612D01*
X105220014Y-80448277D01*
X105069670Y-80283051D01*
X105065619Y-80279852D01*
X105065615Y-80279848D01*
X104898414Y-80147800D01*
X104898410Y-80147798D01*
X104894359Y-80144598D01*
X104853053Y-80121796D01*
X104803084Y-80071364D01*
X104788312Y-80001921D01*
X104813428Y-79935516D01*
X104840780Y-79908909D01*
X104897378Y-79868538D01*
X105019860Y-79781173D01*
X105178096Y-79623489D01*
X105266132Y-79500974D01*
X105322127Y-79457326D01*
X105368455Y-79448500D01*
X107611088Y-79448500D01*
X107619658Y-79448792D01*
X107669776Y-79452209D01*
X107669780Y-79452209D01*
X107677352Y-79452725D01*
X107684829Y-79451420D01*
X107684830Y-79451420D01*
X107711308Y-79446799D01*
X107740303Y-79441738D01*
X107746821Y-79440777D01*
X107810242Y-79433102D01*
X107817343Y-79430419D01*
X107819952Y-79429778D01*
X107836262Y-79425315D01*
X107838798Y-79424550D01*
X107846284Y-79423243D01*
X107904800Y-79397556D01*
X107910904Y-79395065D01*
X107963548Y-79375173D01*
X107963549Y-79375172D01*
X107970656Y-79372487D01*
X107976919Y-79368183D01*
X107979285Y-79366946D01*
X107994097Y-79358701D01*
X107996351Y-79357368D01*
X108003305Y-79354315D01*
X108054002Y-79315413D01*
X108059332Y-79311541D01*
X108105720Y-79279661D01*
X108105725Y-79279656D01*
X108111981Y-79275357D01*
X108153436Y-79228829D01*
X108158416Y-79223554D01*
X115331758Y-72050212D01*
X115394070Y-72016186D01*
X115464885Y-72021251D01*
G37*
G04 #@! TD.AperFunction*
G04 #@! TA.AperFunction,Conductor*
G36*
X108216943Y-76915649D02*
G01*
X108271968Y-76960512D01*
X108294003Y-77028003D01*
X108276052Y-77096693D01*
X108257155Y-77120875D01*
X107383435Y-77994595D01*
X107321123Y-78028621D01*
X107294340Y-78031500D01*
X105368286Y-78031500D01*
X105300165Y-78011498D01*
X105262494Y-77973941D01*
X105222818Y-77912612D01*
X105220014Y-77908277D01*
X105069670Y-77743051D01*
X105065619Y-77739852D01*
X105065615Y-77739848D01*
X104898414Y-77607800D01*
X104898410Y-77607798D01*
X104894359Y-77604598D01*
X104853053Y-77581796D01*
X104803084Y-77531364D01*
X104788312Y-77461921D01*
X104813428Y-77395516D01*
X104840780Y-77368909D01*
X104897378Y-77328538D01*
X105019860Y-77241173D01*
X105178096Y-77083489D01*
X105266132Y-76960974D01*
X105322127Y-76917326D01*
X105368455Y-76908500D01*
X108051088Y-76908500D01*
X108059658Y-76908792D01*
X108109776Y-76912209D01*
X108109780Y-76912209D01*
X108117352Y-76912725D01*
X108124828Y-76911420D01*
X108124832Y-76911420D01*
X108146398Y-76907656D01*
X108216943Y-76915649D01*
G37*
G04 #@! TD.AperFunction*
G04 #@! TA.AperFunction,Conductor*
G36*
X115569344Y-69268502D02*
G01*
X115615837Y-69322158D01*
X115625941Y-69392432D01*
X115613532Y-69429537D01*
X115613963Y-69429722D01*
X115611718Y-69434961D01*
X115611637Y-69435202D01*
X115611534Y-69435389D01*
X115611532Y-69435394D01*
X115608567Y-69440787D01*
X115606706Y-69446654D01*
X115606705Y-69446656D01*
X115601365Y-69463489D01*
X115548765Y-69629306D01*
X115539878Y-69708538D01*
X115528421Y-69810679D01*
X115500950Y-69876146D01*
X115492301Y-69885729D01*
X114449421Y-70928609D01*
X114387109Y-70962635D01*
X114316294Y-70957570D01*
X114259458Y-70915023D01*
X114236272Y-70855270D01*
X114235879Y-70855348D01*
X114235438Y-70853119D01*
X114234927Y-70851803D01*
X114234682Y-70849304D01*
X114234682Y-70849301D01*
X114234080Y-70843167D01*
X114176916Y-70653831D01*
X114084066Y-70479204D01*
X114013709Y-70392938D01*
X113962960Y-70330713D01*
X113962957Y-70330710D01*
X113959065Y-70325938D01*
X113952724Y-70320692D01*
X113811425Y-70203799D01*
X113811421Y-70203797D01*
X113806675Y-70199870D01*
X113632701Y-70105802D01*
X113443768Y-70047318D01*
X113437643Y-70046674D01*
X113437642Y-70046674D01*
X113253204Y-70027289D01*
X113253202Y-70027289D01*
X113247075Y-70026645D01*
X113164576Y-70034153D01*
X113056251Y-70044011D01*
X113056248Y-70044012D01*
X113050112Y-70044570D01*
X113044206Y-70046308D01*
X113044202Y-70046309D01*
X112939076Y-70077249D01*
X112860381Y-70100410D01*
X112854923Y-70103263D01*
X112854919Y-70103265D01*
X112809060Y-70127240D01*
X112685110Y-70192040D01*
X112530975Y-70315968D01*
X112403846Y-70467474D01*
X112400879Y-70472872D01*
X112400875Y-70472877D01*
X112343274Y-70577655D01*
X112308567Y-70640787D01*
X112306706Y-70646654D01*
X112306705Y-70646656D01*
X112250627Y-70823436D01*
X112248765Y-70829306D01*
X112234378Y-70957570D01*
X112228421Y-71010679D01*
X112200950Y-71076146D01*
X112192301Y-71085729D01*
X107823435Y-75454595D01*
X107761123Y-75488621D01*
X107734340Y-75491500D01*
X105368286Y-75491500D01*
X105300165Y-75471498D01*
X105262494Y-75433941D01*
X105222818Y-75372612D01*
X105220014Y-75368277D01*
X105069670Y-75203051D01*
X105065619Y-75199852D01*
X105065615Y-75199848D01*
X104898414Y-75067800D01*
X104898410Y-75067798D01*
X104894359Y-75064598D01*
X104853053Y-75041796D01*
X104803084Y-74991364D01*
X104788312Y-74921921D01*
X104813428Y-74855516D01*
X104840780Y-74828909D01*
X104897378Y-74788538D01*
X105019860Y-74701173D01*
X105178096Y-74543489D01*
X105266132Y-74420974D01*
X105322127Y-74377326D01*
X105368455Y-74368500D01*
X105591088Y-74368500D01*
X105599658Y-74368792D01*
X105649776Y-74372209D01*
X105649780Y-74372209D01*
X105657352Y-74372725D01*
X105664829Y-74371420D01*
X105664830Y-74371420D01*
X105691308Y-74366799D01*
X105720303Y-74361738D01*
X105726821Y-74360777D01*
X105790242Y-74353102D01*
X105797343Y-74350419D01*
X105799952Y-74349778D01*
X105816262Y-74345315D01*
X105818798Y-74344550D01*
X105826284Y-74343243D01*
X105884800Y-74317556D01*
X105890904Y-74315065D01*
X105943548Y-74295173D01*
X105943549Y-74295172D01*
X105950656Y-74292487D01*
X105956919Y-74288183D01*
X105959285Y-74286946D01*
X105974097Y-74278701D01*
X105976351Y-74277368D01*
X105983305Y-74274315D01*
X106034002Y-74235413D01*
X106039332Y-74231541D01*
X106085720Y-74199661D01*
X106085725Y-74199656D01*
X106091981Y-74195357D01*
X106133436Y-74148829D01*
X106138416Y-74143554D01*
X110996566Y-69285405D01*
X111058878Y-69251379D01*
X111085661Y-69248500D01*
X115501223Y-69248500D01*
X115569344Y-69268502D01*
G37*
G04 #@! TD.AperFunction*
M02*
