%TF.GenerationSoftware,KiCad,Pcbnew,(6.0.8)*%
%TF.CreationDate,2023-04-23T16:46:23+02:00*%
%TF.ProjectId,17_CAN_Controller,31375f43-414e-45f4-936f-6e74726f6c6c,rev?*%
%TF.SameCoordinates,Original*%
%TF.FileFunction,Drillmap*%
%TF.FilePolarity,Positive*%
%FSLAX45Y45*%
G04 Gerber Fmt 4.5, Leading zero omitted, Abs format (unit mm)*
G04 Created by KiCad (PCBNEW (6.0.8)) date 2023-04-23 16:46:23*
%MOMM*%
%LPD*%
G01*
G04 APERTURE LIST*
%ADD10C,0.050000*%
%ADD11C,0.200000*%
%ADD12C,0.060000*%
%ADD13C,0.100000*%
G04 APERTURE END LIST*
D10*
X10287000Y-8255000D02*
X12065000Y-8255000D01*
X10287000Y-6223000D02*
X12065000Y-6223000D01*
X10287000Y-8255000D02*
X10287000Y-6223000D01*
X12065000Y-6223000D02*
X12065000Y-8255000D01*
D11*
D12*
X10624000Y-7454000D02*
X10684000Y-7514000D01*
X10684000Y-7454000D02*
X10624000Y-7514000D01*
X10624000Y-7724000D02*
X10684000Y-7784000D01*
X10684000Y-7724000D02*
X10624000Y-7784000D01*
X10624000Y-7984000D02*
X10684000Y-8044000D01*
X10684000Y-7984000D02*
X10624000Y-8044000D01*
X11129000Y-7629000D02*
X11189000Y-7689000D01*
X11189000Y-7629000D02*
X11129000Y-7689000D01*
X11294000Y-7074000D02*
X11354000Y-7134000D01*
X11354000Y-7074000D02*
X11294000Y-7134000D01*
X11554000Y-6304000D02*
X11614000Y-6364000D01*
X11614000Y-6304000D02*
X11554000Y-6364000D01*
X11624000Y-6544000D02*
X11684000Y-6604000D01*
X11684000Y-6544000D02*
X11624000Y-6604000D01*
X11624000Y-6824000D02*
X11684000Y-6884000D01*
X11684000Y-6824000D02*
X11624000Y-6884000D01*
X11624000Y-6954000D02*
X11684000Y-7014000D01*
X11684000Y-6954000D02*
X11624000Y-7014000D01*
X11624000Y-7204000D02*
X11684000Y-7264000D01*
X11684000Y-7204000D02*
X11624000Y-7264000D01*
X11644000Y-8074000D02*
X11704000Y-8134000D01*
X11704000Y-8074000D02*
X11644000Y-8134000D01*
D13*
X10464000Y-6350000D02*
G75*
G03*
X10464000Y-6350000I-50000J0D01*
G01*
X10464000Y-6604000D02*
G75*
G03*
X10464000Y-6604000I-50000J0D01*
G01*
X10464000Y-6858000D02*
G75*
G03*
X10464000Y-6858000I-50000J0D01*
G01*
X10464000Y-7112000D02*
G75*
G03*
X10464000Y-7112000I-50000J0D01*
G01*
X10464000Y-7366000D02*
G75*
G03*
X10464000Y-7366000I-50000J0D01*
G01*
X10464000Y-7620000D02*
G75*
G03*
X10464000Y-7620000I-50000J0D01*
G01*
X10464000Y-7874000D02*
G75*
G03*
X10464000Y-7874000I-50000J0D01*
G01*
X10464000Y-8128000D02*
G75*
G03*
X10464000Y-8128000I-50000J0D01*
G01*
X11988000Y-8128000D02*
G75*
G03*
X11988000Y-8128000I-50000J0D01*
G01*
D11*
X10542119Y-8567976D02*
X10542119Y-8367976D01*
X10589738Y-8367976D01*
X10618310Y-8377500D01*
X10637357Y-8396548D01*
X10646881Y-8415595D01*
X10656405Y-8453690D01*
X10656405Y-8482262D01*
X10646881Y-8520357D01*
X10637357Y-8539405D01*
X10618310Y-8558452D01*
X10589738Y-8567976D01*
X10542119Y-8567976D01*
X10742119Y-8567976D02*
X10742119Y-8434643D01*
X10742119Y-8472738D02*
X10751643Y-8453690D01*
X10761167Y-8444167D01*
X10780214Y-8434643D01*
X10799262Y-8434643D01*
X10865929Y-8567976D02*
X10865929Y-8434643D01*
X10865929Y-8367976D02*
X10856405Y-8377500D01*
X10865929Y-8387024D01*
X10875452Y-8377500D01*
X10865929Y-8367976D01*
X10865929Y-8387024D01*
X10989738Y-8567976D02*
X10970690Y-8558452D01*
X10961167Y-8539405D01*
X10961167Y-8367976D01*
X11094500Y-8567976D02*
X11075452Y-8558452D01*
X11065929Y-8539405D01*
X11065929Y-8367976D01*
X11323071Y-8567976D02*
X11323071Y-8367976D01*
X11389738Y-8510833D01*
X11456405Y-8367976D01*
X11456405Y-8567976D01*
X11637357Y-8567976D02*
X11637357Y-8463214D01*
X11627833Y-8444167D01*
X11608786Y-8434643D01*
X11570690Y-8434643D01*
X11551643Y-8444167D01*
X11637357Y-8558452D02*
X11618309Y-8567976D01*
X11570690Y-8567976D01*
X11551643Y-8558452D01*
X11542119Y-8539405D01*
X11542119Y-8520357D01*
X11551643Y-8501310D01*
X11570690Y-8491786D01*
X11618309Y-8491786D01*
X11637357Y-8482262D01*
X11732595Y-8434643D02*
X11732595Y-8634643D01*
X11732595Y-8444167D02*
X11751643Y-8434643D01*
X11789738Y-8434643D01*
X11808786Y-8444167D01*
X11818309Y-8453690D01*
X11827833Y-8472738D01*
X11827833Y-8529881D01*
X11818309Y-8548929D01*
X11808786Y-8558452D01*
X11789738Y-8567976D01*
X11751643Y-8567976D01*
X11732595Y-8558452D01*
X11913548Y-8548929D02*
X11923071Y-8558452D01*
X11913548Y-8567976D01*
X11904024Y-8558452D01*
X11913548Y-8548929D01*
X11913548Y-8567976D01*
X11913548Y-8444167D02*
X11923071Y-8453690D01*
X11913548Y-8463214D01*
X11904024Y-8453690D01*
X11913548Y-8444167D01*
X11913548Y-8463214D01*
D12*
X10224500Y-8867500D02*
X10284500Y-8927500D01*
X10284500Y-8867500D02*
X10224500Y-8927500D01*
D11*
X10580214Y-8787976D02*
X10599262Y-8787976D01*
X10618310Y-8797500D01*
X10627833Y-8807024D01*
X10637357Y-8826071D01*
X10646881Y-8864167D01*
X10646881Y-8911786D01*
X10637357Y-8949881D01*
X10627833Y-8968929D01*
X10618310Y-8978452D01*
X10599262Y-8987976D01*
X10580214Y-8987976D01*
X10561167Y-8978452D01*
X10551643Y-8968929D01*
X10542119Y-8949881D01*
X10532595Y-8911786D01*
X10532595Y-8864167D01*
X10542119Y-8826071D01*
X10551643Y-8807024D01*
X10561167Y-8797500D01*
X10580214Y-8787976D01*
X10732595Y-8968929D02*
X10742119Y-8978452D01*
X10732595Y-8987976D01*
X10723071Y-8978452D01*
X10732595Y-8968929D01*
X10732595Y-8987976D01*
X10913548Y-8787976D02*
X10875452Y-8787976D01*
X10856405Y-8797500D01*
X10846881Y-8807024D01*
X10827833Y-8835595D01*
X10818310Y-8873690D01*
X10818310Y-8949881D01*
X10827833Y-8968929D01*
X10837357Y-8978452D01*
X10856405Y-8987976D01*
X10894500Y-8987976D01*
X10913548Y-8978452D01*
X10923071Y-8968929D01*
X10932595Y-8949881D01*
X10932595Y-8902262D01*
X10923071Y-8883214D01*
X10913548Y-8873690D01*
X10894500Y-8864167D01*
X10856405Y-8864167D01*
X10837357Y-8873690D01*
X10827833Y-8883214D01*
X10818310Y-8902262D01*
X11056405Y-8787976D02*
X11075452Y-8787976D01*
X11094500Y-8797500D01*
X11104024Y-8807024D01*
X11113548Y-8826071D01*
X11123071Y-8864167D01*
X11123071Y-8911786D01*
X11113548Y-8949881D01*
X11104024Y-8968929D01*
X11094500Y-8978452D01*
X11075452Y-8987976D01*
X11056405Y-8987976D01*
X11037357Y-8978452D01*
X11027833Y-8968929D01*
X11018310Y-8949881D01*
X11008786Y-8911786D01*
X11008786Y-8864167D01*
X11018310Y-8826071D01*
X11027833Y-8807024D01*
X11037357Y-8797500D01*
X11056405Y-8787976D01*
X11246881Y-8787976D02*
X11265928Y-8787976D01*
X11284976Y-8797500D01*
X11294500Y-8807024D01*
X11304024Y-8826071D01*
X11313548Y-8864167D01*
X11313548Y-8911786D01*
X11304024Y-8949881D01*
X11294500Y-8968929D01*
X11284976Y-8978452D01*
X11265928Y-8987976D01*
X11246881Y-8987976D01*
X11227833Y-8978452D01*
X11218309Y-8968929D01*
X11208786Y-8949881D01*
X11199262Y-8911786D01*
X11199262Y-8864167D01*
X11208786Y-8826071D01*
X11218309Y-8807024D01*
X11227833Y-8797500D01*
X11246881Y-8787976D01*
X11399262Y-8987976D02*
X11399262Y-8854643D01*
X11399262Y-8873690D02*
X11408786Y-8864167D01*
X11427833Y-8854643D01*
X11456405Y-8854643D01*
X11475452Y-8864167D01*
X11484976Y-8883214D01*
X11484976Y-8987976D01*
X11484976Y-8883214D02*
X11494500Y-8864167D01*
X11513548Y-8854643D01*
X11542119Y-8854643D01*
X11561167Y-8864167D01*
X11570690Y-8883214D01*
X11570690Y-8987976D01*
X11665928Y-8987976D02*
X11665928Y-8854643D01*
X11665928Y-8873690D02*
X11675452Y-8864167D01*
X11694500Y-8854643D01*
X11723071Y-8854643D01*
X11742119Y-8864167D01*
X11751643Y-8883214D01*
X11751643Y-8987976D01*
X11751643Y-8883214D02*
X11761167Y-8864167D01*
X11780214Y-8854643D01*
X11808786Y-8854643D01*
X11827833Y-8864167D01*
X11837357Y-8883214D01*
X11837357Y-8987976D01*
X12227833Y-8778452D02*
X12056405Y-9035595D01*
X12484976Y-8787976D02*
X12504024Y-8787976D01*
X12523071Y-8797500D01*
X12532595Y-8807024D01*
X12542119Y-8826071D01*
X12551643Y-8864167D01*
X12551643Y-8911786D01*
X12542119Y-8949881D01*
X12532595Y-8968929D01*
X12523071Y-8978452D01*
X12504024Y-8987976D01*
X12484976Y-8987976D01*
X12465928Y-8978452D01*
X12456405Y-8968929D01*
X12446881Y-8949881D01*
X12437357Y-8911786D01*
X12437357Y-8864167D01*
X12446881Y-8826071D01*
X12456405Y-8807024D01*
X12465928Y-8797500D01*
X12484976Y-8787976D01*
X12637357Y-8968929D02*
X12646881Y-8978452D01*
X12637357Y-8987976D01*
X12627833Y-8978452D01*
X12637357Y-8968929D01*
X12637357Y-8987976D01*
X12770690Y-8787976D02*
X12789738Y-8787976D01*
X12808786Y-8797500D01*
X12818309Y-8807024D01*
X12827833Y-8826071D01*
X12837357Y-8864167D01*
X12837357Y-8911786D01*
X12827833Y-8949881D01*
X12818309Y-8968929D01*
X12808786Y-8978452D01*
X12789738Y-8987976D01*
X12770690Y-8987976D01*
X12751643Y-8978452D01*
X12742119Y-8968929D01*
X12732595Y-8949881D01*
X12723071Y-8911786D01*
X12723071Y-8864167D01*
X12732595Y-8826071D01*
X12742119Y-8807024D01*
X12751643Y-8797500D01*
X12770690Y-8787976D01*
X12913548Y-8807024D02*
X12923071Y-8797500D01*
X12942119Y-8787976D01*
X12989738Y-8787976D01*
X13008786Y-8797500D01*
X13018309Y-8807024D01*
X13027833Y-8826071D01*
X13027833Y-8845119D01*
X13018309Y-8873690D01*
X12904024Y-8987976D01*
X13027833Y-8987976D01*
X13094500Y-8787976D02*
X13218309Y-8787976D01*
X13151643Y-8864167D01*
X13180214Y-8864167D01*
X13199262Y-8873690D01*
X13208786Y-8883214D01*
X13218309Y-8902262D01*
X13218309Y-8949881D01*
X13208786Y-8968929D01*
X13199262Y-8978452D01*
X13180214Y-8987976D01*
X13123071Y-8987976D01*
X13104024Y-8978452D01*
X13094500Y-8968929D01*
X13389738Y-8787976D02*
X13351643Y-8787976D01*
X13332595Y-8797500D01*
X13323071Y-8807024D01*
X13304024Y-8835595D01*
X13294500Y-8873690D01*
X13294500Y-8949881D01*
X13304024Y-8968929D01*
X13313548Y-8978452D01*
X13332595Y-8987976D01*
X13370690Y-8987976D01*
X13389738Y-8978452D01*
X13399262Y-8968929D01*
X13408786Y-8949881D01*
X13408786Y-8902262D01*
X13399262Y-8883214D01*
X13389738Y-8873690D01*
X13370690Y-8864167D01*
X13332595Y-8864167D01*
X13313548Y-8873690D01*
X13304024Y-8883214D01*
X13294500Y-8902262D01*
X13484976Y-8787976D02*
X13484976Y-8826071D01*
X13561167Y-8787976D02*
X13561167Y-8826071D01*
X13856405Y-9064167D02*
X13846881Y-9054643D01*
X13827833Y-9026071D01*
X13818309Y-9007024D01*
X13808786Y-8978452D01*
X13799262Y-8930833D01*
X13799262Y-8892738D01*
X13808786Y-8845119D01*
X13818309Y-8816548D01*
X13827833Y-8797500D01*
X13846881Y-8768929D01*
X13856405Y-8759405D01*
X14037357Y-8987976D02*
X13923071Y-8987976D01*
X13980214Y-8987976D02*
X13980214Y-8787976D01*
X13961167Y-8816548D01*
X13942119Y-8835595D01*
X13923071Y-8845119D01*
X14227833Y-8987976D02*
X14113548Y-8987976D01*
X14170690Y-8987976D02*
X14170690Y-8787976D01*
X14151643Y-8816548D01*
X14132595Y-8835595D01*
X14113548Y-8845119D01*
X14465928Y-8987976D02*
X14465928Y-8787976D01*
X14551643Y-8987976D02*
X14551643Y-8883214D01*
X14542119Y-8864167D01*
X14523071Y-8854643D01*
X14494500Y-8854643D01*
X14475452Y-8864167D01*
X14465928Y-8873690D01*
X14675452Y-8987976D02*
X14656405Y-8978452D01*
X14646881Y-8968929D01*
X14637357Y-8949881D01*
X14637357Y-8892738D01*
X14646881Y-8873690D01*
X14656405Y-8864167D01*
X14675452Y-8854643D01*
X14704024Y-8854643D01*
X14723071Y-8864167D01*
X14732595Y-8873690D01*
X14742119Y-8892738D01*
X14742119Y-8949881D01*
X14732595Y-8968929D01*
X14723071Y-8978452D01*
X14704024Y-8987976D01*
X14675452Y-8987976D01*
X14856405Y-8987976D02*
X14837357Y-8978452D01*
X14827833Y-8959405D01*
X14827833Y-8787976D01*
X15008786Y-8978452D02*
X14989738Y-8987976D01*
X14951643Y-8987976D01*
X14932595Y-8978452D01*
X14923071Y-8959405D01*
X14923071Y-8883214D01*
X14932595Y-8864167D01*
X14951643Y-8854643D01*
X14989738Y-8854643D01*
X15008786Y-8864167D01*
X15018309Y-8883214D01*
X15018309Y-8902262D01*
X14923071Y-8921310D01*
X15094500Y-8978452D02*
X15113548Y-8987976D01*
X15151643Y-8987976D01*
X15170690Y-8978452D01*
X15180214Y-8959405D01*
X15180214Y-8949881D01*
X15170690Y-8930833D01*
X15151643Y-8921310D01*
X15123071Y-8921310D01*
X15104024Y-8911786D01*
X15094500Y-8892738D01*
X15094500Y-8883214D01*
X15104024Y-8864167D01*
X15123071Y-8854643D01*
X15151643Y-8854643D01*
X15170690Y-8864167D01*
X15246881Y-9064167D02*
X15256405Y-9054643D01*
X15275452Y-9026071D01*
X15284976Y-9007024D01*
X15294500Y-8978452D01*
X15304024Y-8930833D01*
X15304024Y-8892738D01*
X15294500Y-8845119D01*
X15284976Y-8816548D01*
X15275452Y-8797500D01*
X15256405Y-8768929D01*
X15246881Y-8759405D01*
D13*
X10284500Y-9161500D02*
G75*
G03*
X10284500Y-9161500I-50000J0D01*
G01*
D11*
X10646881Y-9251976D02*
X10532595Y-9251976D01*
X10589738Y-9251976D02*
X10589738Y-9051976D01*
X10570690Y-9080548D01*
X10551643Y-9099595D01*
X10532595Y-9109119D01*
X10732595Y-9232929D02*
X10742119Y-9242452D01*
X10732595Y-9251976D01*
X10723071Y-9242452D01*
X10732595Y-9232929D01*
X10732595Y-9251976D01*
X10865929Y-9051976D02*
X10884976Y-9051976D01*
X10904024Y-9061500D01*
X10913548Y-9071024D01*
X10923071Y-9090071D01*
X10932595Y-9128167D01*
X10932595Y-9175786D01*
X10923071Y-9213881D01*
X10913548Y-9232929D01*
X10904024Y-9242452D01*
X10884976Y-9251976D01*
X10865929Y-9251976D01*
X10846881Y-9242452D01*
X10837357Y-9232929D01*
X10827833Y-9213881D01*
X10818310Y-9175786D01*
X10818310Y-9128167D01*
X10827833Y-9090071D01*
X10837357Y-9071024D01*
X10846881Y-9061500D01*
X10865929Y-9051976D01*
X11056405Y-9051976D02*
X11075452Y-9051976D01*
X11094500Y-9061500D01*
X11104024Y-9071024D01*
X11113548Y-9090071D01*
X11123071Y-9128167D01*
X11123071Y-9175786D01*
X11113548Y-9213881D01*
X11104024Y-9232929D01*
X11094500Y-9242452D01*
X11075452Y-9251976D01*
X11056405Y-9251976D01*
X11037357Y-9242452D01*
X11027833Y-9232929D01*
X11018310Y-9213881D01*
X11008786Y-9175786D01*
X11008786Y-9128167D01*
X11018310Y-9090071D01*
X11027833Y-9071024D01*
X11037357Y-9061500D01*
X11056405Y-9051976D01*
X11246881Y-9051976D02*
X11265928Y-9051976D01*
X11284976Y-9061500D01*
X11294500Y-9071024D01*
X11304024Y-9090071D01*
X11313548Y-9128167D01*
X11313548Y-9175786D01*
X11304024Y-9213881D01*
X11294500Y-9232929D01*
X11284976Y-9242452D01*
X11265928Y-9251976D01*
X11246881Y-9251976D01*
X11227833Y-9242452D01*
X11218309Y-9232929D01*
X11208786Y-9213881D01*
X11199262Y-9175786D01*
X11199262Y-9128167D01*
X11208786Y-9090071D01*
X11218309Y-9071024D01*
X11227833Y-9061500D01*
X11246881Y-9051976D01*
X11399262Y-9251976D02*
X11399262Y-9118643D01*
X11399262Y-9137690D02*
X11408786Y-9128167D01*
X11427833Y-9118643D01*
X11456405Y-9118643D01*
X11475452Y-9128167D01*
X11484976Y-9147214D01*
X11484976Y-9251976D01*
X11484976Y-9147214D02*
X11494500Y-9128167D01*
X11513548Y-9118643D01*
X11542119Y-9118643D01*
X11561167Y-9128167D01*
X11570690Y-9147214D01*
X11570690Y-9251976D01*
X11665928Y-9251976D02*
X11665928Y-9118643D01*
X11665928Y-9137690D02*
X11675452Y-9128167D01*
X11694500Y-9118643D01*
X11723071Y-9118643D01*
X11742119Y-9128167D01*
X11751643Y-9147214D01*
X11751643Y-9251976D01*
X11751643Y-9147214D02*
X11761167Y-9128167D01*
X11780214Y-9118643D01*
X11808786Y-9118643D01*
X11827833Y-9128167D01*
X11837357Y-9147214D01*
X11837357Y-9251976D01*
X12227833Y-9042452D02*
X12056405Y-9299595D01*
X12484976Y-9051976D02*
X12504024Y-9051976D01*
X12523071Y-9061500D01*
X12532595Y-9071024D01*
X12542119Y-9090071D01*
X12551643Y-9128167D01*
X12551643Y-9175786D01*
X12542119Y-9213881D01*
X12532595Y-9232929D01*
X12523071Y-9242452D01*
X12504024Y-9251976D01*
X12484976Y-9251976D01*
X12465928Y-9242452D01*
X12456405Y-9232929D01*
X12446881Y-9213881D01*
X12437357Y-9175786D01*
X12437357Y-9128167D01*
X12446881Y-9090071D01*
X12456405Y-9071024D01*
X12465928Y-9061500D01*
X12484976Y-9051976D01*
X12637357Y-9232929D02*
X12646881Y-9242452D01*
X12637357Y-9251976D01*
X12627833Y-9242452D01*
X12637357Y-9232929D01*
X12637357Y-9251976D01*
X12770690Y-9051976D02*
X12789738Y-9051976D01*
X12808786Y-9061500D01*
X12818309Y-9071024D01*
X12827833Y-9090071D01*
X12837357Y-9128167D01*
X12837357Y-9175786D01*
X12827833Y-9213881D01*
X12818309Y-9232929D01*
X12808786Y-9242452D01*
X12789738Y-9251976D01*
X12770690Y-9251976D01*
X12751643Y-9242452D01*
X12742119Y-9232929D01*
X12732595Y-9213881D01*
X12723071Y-9175786D01*
X12723071Y-9128167D01*
X12732595Y-9090071D01*
X12742119Y-9071024D01*
X12751643Y-9061500D01*
X12770690Y-9051976D01*
X12904024Y-9051976D02*
X13027833Y-9051976D01*
X12961167Y-9128167D01*
X12989738Y-9128167D01*
X13008786Y-9137690D01*
X13018309Y-9147214D01*
X13027833Y-9166262D01*
X13027833Y-9213881D01*
X13018309Y-9232929D01*
X13008786Y-9242452D01*
X12989738Y-9251976D01*
X12932595Y-9251976D01*
X12913548Y-9242452D01*
X12904024Y-9232929D01*
X13123071Y-9251976D02*
X13161167Y-9251976D01*
X13180214Y-9242452D01*
X13189738Y-9232929D01*
X13208786Y-9204357D01*
X13218309Y-9166262D01*
X13218309Y-9090071D01*
X13208786Y-9071024D01*
X13199262Y-9061500D01*
X13180214Y-9051976D01*
X13142119Y-9051976D01*
X13123071Y-9061500D01*
X13113548Y-9071024D01*
X13104024Y-9090071D01*
X13104024Y-9137690D01*
X13113548Y-9156738D01*
X13123071Y-9166262D01*
X13142119Y-9175786D01*
X13180214Y-9175786D01*
X13199262Y-9166262D01*
X13208786Y-9156738D01*
X13218309Y-9137690D01*
X13389738Y-9118643D02*
X13389738Y-9251976D01*
X13342119Y-9042452D02*
X13294500Y-9185310D01*
X13418309Y-9185310D01*
X13484976Y-9051976D02*
X13484976Y-9090071D01*
X13561167Y-9051976D02*
X13561167Y-9090071D01*
X13856405Y-9328167D02*
X13846881Y-9318643D01*
X13827833Y-9290071D01*
X13818309Y-9271024D01*
X13808786Y-9242452D01*
X13799262Y-9194833D01*
X13799262Y-9156738D01*
X13808786Y-9109119D01*
X13818309Y-9080548D01*
X13827833Y-9061500D01*
X13846881Y-9032929D01*
X13856405Y-9023405D01*
X13942119Y-9251976D02*
X13980214Y-9251976D01*
X13999262Y-9242452D01*
X14008786Y-9232929D01*
X14027833Y-9204357D01*
X14037357Y-9166262D01*
X14037357Y-9090071D01*
X14027833Y-9071024D01*
X14018309Y-9061500D01*
X13999262Y-9051976D01*
X13961167Y-9051976D01*
X13942119Y-9061500D01*
X13932595Y-9071024D01*
X13923071Y-9090071D01*
X13923071Y-9137690D01*
X13932595Y-9156738D01*
X13942119Y-9166262D01*
X13961167Y-9175786D01*
X13999262Y-9175786D01*
X14018309Y-9166262D01*
X14027833Y-9156738D01*
X14037357Y-9137690D01*
X14275452Y-9251976D02*
X14275452Y-9051976D01*
X14361167Y-9251976D02*
X14361167Y-9147214D01*
X14351643Y-9128167D01*
X14332595Y-9118643D01*
X14304024Y-9118643D01*
X14284976Y-9128167D01*
X14275452Y-9137690D01*
X14484976Y-9251976D02*
X14465928Y-9242452D01*
X14456405Y-9232929D01*
X14446881Y-9213881D01*
X14446881Y-9156738D01*
X14456405Y-9137690D01*
X14465928Y-9128167D01*
X14484976Y-9118643D01*
X14513548Y-9118643D01*
X14532595Y-9128167D01*
X14542119Y-9137690D01*
X14551643Y-9156738D01*
X14551643Y-9213881D01*
X14542119Y-9232929D01*
X14532595Y-9242452D01*
X14513548Y-9251976D01*
X14484976Y-9251976D01*
X14665928Y-9251976D02*
X14646881Y-9242452D01*
X14637357Y-9223405D01*
X14637357Y-9051976D01*
X14818309Y-9242452D02*
X14799262Y-9251976D01*
X14761167Y-9251976D01*
X14742119Y-9242452D01*
X14732595Y-9223405D01*
X14732595Y-9147214D01*
X14742119Y-9128167D01*
X14761167Y-9118643D01*
X14799262Y-9118643D01*
X14818309Y-9128167D01*
X14827833Y-9147214D01*
X14827833Y-9166262D01*
X14732595Y-9185310D01*
X14904024Y-9242452D02*
X14923071Y-9251976D01*
X14961167Y-9251976D01*
X14980214Y-9242452D01*
X14989738Y-9223405D01*
X14989738Y-9213881D01*
X14980214Y-9194833D01*
X14961167Y-9185310D01*
X14932595Y-9185310D01*
X14913548Y-9175786D01*
X14904024Y-9156738D01*
X14904024Y-9147214D01*
X14913548Y-9128167D01*
X14932595Y-9118643D01*
X14961167Y-9118643D01*
X14980214Y-9128167D01*
X15056405Y-9328167D02*
X15065928Y-9318643D01*
X15084976Y-9290071D01*
X15094500Y-9271024D01*
X15104024Y-9242452D01*
X15113548Y-9194833D01*
X15113548Y-9156738D01*
X15104024Y-9109119D01*
X15094500Y-9080548D01*
X15084976Y-9061500D01*
X15065928Y-9032929D01*
X15056405Y-9023405D01*
M02*
