G04 #@! TF.GenerationSoftware,KiCad,Pcbnew,(6.0.8)*
G04 #@! TF.CreationDate,2023-04-23T16:45:02+02:00*
G04 #@! TF.ProjectId,17_CAN_Controller,31375f43-414e-45f4-936f-6e74726f6c6c,rev?*
G04 #@! TF.SameCoordinates,Original*
G04 #@! TF.FileFunction,AssemblyDrawing,Top*
%FSLAX46Y46*%
G04 Gerber Fmt 4.6, Leading zero omitted, Abs format (unit mm)*
G04 Created by KiCad (PCBNEW (6.0.8)) date 2023-04-23 16:45:02*
%MOMM*%
%LPD*%
G01*
G04 APERTURE LIST*
%ADD10C,0.060000*%
%ADD11C,0.105000*%
%ADD12C,0.150000*%
%ADD13C,0.100000*%
G04 APERTURE END LIST*
D10*
X112473333Y-64220952D02*
X112340000Y-64030476D01*
X112244761Y-64220952D02*
X112244761Y-63820952D01*
X112397142Y-63820952D01*
X112435238Y-63840000D01*
X112454285Y-63859047D01*
X112473333Y-63897142D01*
X112473333Y-63954285D01*
X112454285Y-63992380D01*
X112435238Y-64011428D01*
X112397142Y-64030476D01*
X112244761Y-64030476D01*
X112625714Y-63859047D02*
X112644761Y-63840000D01*
X112682857Y-63820952D01*
X112778095Y-63820952D01*
X112816190Y-63840000D01*
X112835238Y-63859047D01*
X112854285Y-63897142D01*
X112854285Y-63935238D01*
X112835238Y-63992380D01*
X112606666Y-64220952D01*
X112854285Y-64220952D01*
X117973333Y-64182857D02*
X117954285Y-64201904D01*
X117897142Y-64220952D01*
X117859047Y-64220952D01*
X117801904Y-64201904D01*
X117763809Y-64163809D01*
X117744761Y-64125714D01*
X117725714Y-64049523D01*
X117725714Y-63992380D01*
X117744761Y-63916190D01*
X117763809Y-63878095D01*
X117801904Y-63840000D01*
X117859047Y-63820952D01*
X117897142Y-63820952D01*
X117954285Y-63840000D01*
X117973333Y-63859047D01*
X118354285Y-64220952D02*
X118125714Y-64220952D01*
X118240000Y-64220952D02*
X118240000Y-63820952D01*
X118201904Y-63878095D01*
X118163809Y-63916190D01*
X118125714Y-63935238D01*
X110882857Y-78981666D02*
X110901904Y-79000714D01*
X110920952Y-79057857D01*
X110920952Y-79095952D01*
X110901904Y-79153095D01*
X110863809Y-79191190D01*
X110825714Y-79210238D01*
X110749523Y-79229285D01*
X110692380Y-79229285D01*
X110616190Y-79210238D01*
X110578095Y-79191190D01*
X110540000Y-79153095D01*
X110520952Y-79095952D01*
X110520952Y-79057857D01*
X110540000Y-79000714D01*
X110559047Y-78981666D01*
X110559047Y-78829285D02*
X110540000Y-78810238D01*
X110520952Y-78772142D01*
X110520952Y-78676904D01*
X110540000Y-78638809D01*
X110559047Y-78619761D01*
X110597142Y-78600714D01*
X110635238Y-78600714D01*
X110692380Y-78619761D01*
X110920952Y-78848333D01*
X110920952Y-78600714D01*
X116882857Y-79006666D02*
X116901904Y-79025714D01*
X116920952Y-79082857D01*
X116920952Y-79120952D01*
X116901904Y-79178095D01*
X116863809Y-79216190D01*
X116825714Y-79235238D01*
X116749523Y-79254285D01*
X116692380Y-79254285D01*
X116616190Y-79235238D01*
X116578095Y-79216190D01*
X116540000Y-79178095D01*
X116520952Y-79120952D01*
X116520952Y-79082857D01*
X116540000Y-79025714D01*
X116559047Y-79006666D01*
X116520952Y-78873333D02*
X116520952Y-78625714D01*
X116673333Y-78759047D01*
X116673333Y-78701904D01*
X116692380Y-78663809D01*
X116711428Y-78644761D01*
X116749523Y-78625714D01*
X116844761Y-78625714D01*
X116882857Y-78644761D01*
X116901904Y-78663809D01*
X116920952Y-78701904D01*
X116920952Y-78816190D01*
X116901904Y-78854285D01*
X116882857Y-78873333D01*
X109120952Y-78981666D02*
X108930476Y-79115000D01*
X109120952Y-79210238D02*
X108720952Y-79210238D01*
X108720952Y-79057857D01*
X108740000Y-79019761D01*
X108759047Y-79000714D01*
X108797142Y-78981666D01*
X108854285Y-78981666D01*
X108892380Y-79000714D01*
X108911428Y-79019761D01*
X108930476Y-79057857D01*
X108930476Y-79210238D01*
X109120952Y-78600714D02*
X109120952Y-78829285D01*
X109120952Y-78715000D02*
X108720952Y-78715000D01*
X108778095Y-78753095D01*
X108816190Y-78791190D01*
X108835238Y-78829285D01*
D11*
X113406666Y-78923333D02*
X113406666Y-79256666D01*
X113173333Y-78556666D02*
X113406666Y-78923333D01*
X113640000Y-78556666D01*
X114240000Y-79256666D02*
X113840000Y-79256666D01*
X114040000Y-79256666D02*
X114040000Y-78556666D01*
X113973333Y-78656666D01*
X113906666Y-78723333D01*
X113840000Y-78756666D01*
D12*
X113378095Y-70572380D02*
X113378095Y-71381904D01*
X113425714Y-71477142D01*
X113473333Y-71524761D01*
X113568571Y-71572380D01*
X113759047Y-71572380D01*
X113854285Y-71524761D01*
X113901904Y-71477142D01*
X113949523Y-71381904D01*
X113949523Y-70572380D01*
X114949523Y-71572380D02*
X114378095Y-71572380D01*
X114663809Y-71572380D02*
X114663809Y-70572380D01*
X114568571Y-70715238D01*
X114473333Y-70810476D01*
X114378095Y-70858095D01*
D13*
X111740000Y-64452500D02*
X111740000Y-63627500D01*
X113340000Y-64452500D02*
X111740000Y-64452500D01*
X111740000Y-63627500D02*
X113340000Y-63627500D01*
X113340000Y-63627500D02*
X113340000Y-64452500D01*
X118840000Y-64440000D02*
X117240000Y-64440000D01*
X117240000Y-64440000D02*
X117240000Y-63640000D01*
X117240000Y-63640000D02*
X118840000Y-63640000D01*
X118840000Y-63640000D02*
X118840000Y-64440000D01*
X111140000Y-78115000D02*
X111140000Y-79715000D01*
X111140000Y-79715000D02*
X110340000Y-79715000D01*
X110340000Y-79715000D02*
X110340000Y-78115000D01*
X110340000Y-78115000D02*
X111140000Y-78115000D01*
X117140000Y-78140000D02*
X117140000Y-79740000D01*
X117140000Y-79740000D02*
X116340000Y-79740000D01*
X116340000Y-79740000D02*
X116340000Y-78140000D01*
X116340000Y-78140000D02*
X117140000Y-78140000D01*
X109352500Y-79715000D02*
X108527500Y-79715000D01*
X109352500Y-78115000D02*
X109352500Y-79715000D01*
X108527500Y-79715000D02*
X108527500Y-78115000D01*
X108527500Y-78115000D02*
X109352500Y-78115000D01*
X115340000Y-78690000D02*
X114340000Y-77690000D01*
X112140000Y-77690000D02*
X112140000Y-80190000D01*
X115340000Y-77690000D02*
X112140000Y-77690000D01*
X115340000Y-80190000D02*
X115340000Y-77690000D01*
X112140000Y-80190000D02*
X115340000Y-80190000D01*
X110390000Y-66345000D02*
X111390000Y-65345000D01*
X111390000Y-65345000D02*
X117890000Y-65345000D01*
X117890000Y-76895000D02*
X110390000Y-76895000D01*
X117890000Y-65345000D02*
X117890000Y-76895000D01*
X110390000Y-76895000D02*
X110390000Y-66345000D01*
M02*
